%TF.GenerationSoftware,KiCad,Pcbnew,(6.0.2)*%
%TF.CreationDate,2022-02-25T10:45:33+01:00*%
%TF.ProjectId,CNC_interface,434e435f-696e-4746-9572-666163652e6b,rev?*%
%TF.SameCoordinates,Original*%
%TF.FileFunction,Copper,L1,Top*%
%TF.FilePolarity,Positive*%
%FSLAX46Y46*%
G04 Gerber Fmt 4.6, Leading zero omitted, Abs format (unit mm)*
G04 Created by KiCad (PCBNEW (6.0.2)) date 2022-02-25 10:45:33*
%MOMM*%
%LPD*%
G01*
G04 APERTURE LIST*
G04 Aperture macros list*
%AMRoundRect*
0 Rectangle with rounded corners*
0 $1 Rounding radius*
0 $2 $3 $4 $5 $6 $7 $8 $9 X,Y pos of 4 corners*
0 Add a 4 corners polygon primitive as box body*
4,1,4,$2,$3,$4,$5,$6,$7,$8,$9,$2,$3,0*
0 Add four circle primitives for the rounded corners*
1,1,$1+$1,$2,$3*
1,1,$1+$1,$4,$5*
1,1,$1+$1,$6,$7*
1,1,$1+$1,$8,$9*
0 Add four rect primitives between the rounded corners*
20,1,$1+$1,$2,$3,$4,$5,0*
20,1,$1+$1,$4,$5,$6,$7,0*
20,1,$1+$1,$6,$7,$8,$9,0*
20,1,$1+$1,$8,$9,$2,$3,0*%
G04 Aperture macros list end*
%TA.AperFunction,ComponentPad*%
%ADD10C,4.700000*%
%TD*%
%TA.AperFunction,ComponentPad*%
%ADD11R,2.200000X2.200000*%
%TD*%
%TA.AperFunction,ComponentPad*%
%ADD12O,2.200000X2.200000*%
%TD*%
%TA.AperFunction,ComponentPad*%
%ADD13RoundRect,0.250000X-0.725000X0.600000X-0.725000X-0.600000X0.725000X-0.600000X0.725000X0.600000X0*%
%TD*%
%TA.AperFunction,ComponentPad*%
%ADD14O,1.950000X1.700000*%
%TD*%
%TA.AperFunction,ComponentPad*%
%ADD15C,1.524000*%
%TD*%
%TA.AperFunction,ComponentPad*%
%ADD16R,1.700000X1.700000*%
%TD*%
%TA.AperFunction,ComponentPad*%
%ADD17O,1.700000X1.700000*%
%TD*%
%TA.AperFunction,ComponentPad*%
%ADD18RoundRect,0.250000X0.725000X-0.600000X0.725000X0.600000X-0.725000X0.600000X-0.725000X-0.600000X0*%
%TD*%
%TA.AperFunction,ComponentPad*%
%ADD19R,2.000000X1.905000*%
%TD*%
%TA.AperFunction,ComponentPad*%
%ADD20O,2.000000X1.905000*%
%TD*%
%TA.AperFunction,ComponentPad*%
%ADD21R,1.600000X1.600000*%
%TD*%
%TA.AperFunction,ComponentPad*%
%ADD22C,1.600000*%
%TD*%
%TA.AperFunction,ComponentPad*%
%ADD23R,1.275000X1.800000*%
%TD*%
%TA.AperFunction,ComponentPad*%
%ADD24O,1.275000X1.800000*%
%TD*%
%TA.AperFunction,ComponentPad*%
%ADD25R,2.400000X2.400000*%
%TD*%
%TA.AperFunction,ComponentPad*%
%ADD26C,2.400000*%
%TD*%
%TA.AperFunction,ComponentPad*%
%ADD27O,3.200000X3.200000*%
%TD*%
%TA.AperFunction,ComponentPad*%
%ADD28R,3.200000X3.200000*%
%TD*%
%TA.AperFunction,ComponentPad*%
%ADD29O,1.600000X1.600000*%
%TD*%
%TA.AperFunction,SMDPad,CuDef*%
%ADD30R,0.700000X0.300000*%
%TD*%
%TA.AperFunction,ComponentPad*%
%ADD31C,0.650000*%
%TD*%
%TA.AperFunction,ComponentPad*%
%ADD32C,1.400000*%
%TD*%
%TA.AperFunction,ComponentPad*%
%ADD33C,3.000000*%
%TD*%
%TA.AperFunction,ViaPad*%
%ADD34C,0.800000*%
%TD*%
%TA.AperFunction,Conductor*%
%ADD35C,0.500000*%
%TD*%
%TA.AperFunction,Conductor*%
%ADD36C,1.000000*%
%TD*%
%TA.AperFunction,Conductor*%
%ADD37C,0.250000*%
%TD*%
%TA.AperFunction,Conductor*%
%ADD38C,2.300000*%
%TD*%
%TA.AperFunction,Conductor*%
%ADD39C,0.350000*%
%TD*%
G04 APERTURE END LIST*
D10*
%TO.P,2M2.5,1*%
%TO.N,N/C*%
X132080000Y-101600000D03*
%TD*%
%TO.P,1M2.5,1*%
%TO.N,N/C*%
X132080000Y-76200000D03*
%TD*%
%TO.P,3M2.5,1*%
%TO.N,N/C*%
X132080000Y-129540000D03*
%TD*%
%TO.P,4M2.5,1*%
%TO.N,N/C*%
X144780000Y-101600000D03*
%TD*%
D11*
%TO.P,D1,1,K*%
%TO.N,+12V*%
X157480000Y-68580000D03*
D12*
%TO.P,D1,2,A*%
%TO.N,DC-*%
X147320000Y-68580000D03*
%TD*%
D13*
%TO.P,J1,1,Pin_1*%
%TO.N,OB2x*%
X119380000Y-119380000D03*
D14*
%TO.P,J1,2,Pin_2*%
%TO.N,OB1x*%
X119380000Y-121880000D03*
%TO.P,J1,3,Pin_3*%
%TO.N,OA1x*%
X119380000Y-124380000D03*
%TO.P,J1,4,Pin_4*%
%TO.N,OA2x*%
X119380000Y-126880000D03*
%TD*%
D13*
%TO.P,J2,1,Pin_1*%
%TO.N,OB2y*%
X119380000Y-92770000D03*
D14*
%TO.P,J2,2,Pin_2*%
%TO.N,OB1y*%
X119380000Y-95270000D03*
%TO.P,J2,3,Pin_3*%
%TO.N,OA1y*%
X119380000Y-97770000D03*
%TO.P,J2,4,Pin_4*%
%TO.N,OA2y*%
X119380000Y-100270000D03*
%TD*%
D13*
%TO.P,J3,1,Pin_1*%
%TO.N,OB2z*%
X119380000Y-67370000D03*
D14*
%TO.P,J3,2,Pin_2*%
%TO.N,OB1z*%
X119380000Y-69870000D03*
%TO.P,J3,3,Pin_3*%
%TO.N,OA1z*%
X119380000Y-72370000D03*
%TO.P,J3,4,Pin_4*%
%TO.N,OA2z*%
X119380000Y-74870000D03*
%TD*%
D15*
%TO.P,J6,1,Pin_1*%
%TO.N,+12V*%
X157480000Y-60960000D03*
%TO.P,J6,2,Pin_2*%
%TO.N,DC-*%
X152400000Y-60960000D03*
%TD*%
D16*
%TO.P,J8,1,Pin_1*%
%TO.N,GND*%
X127025000Y-114300000D03*
D17*
%TO.P,J8,2,Pin_2*%
%TO.N,+5V*%
X127025000Y-116840000D03*
%TO.P,J8,3,Pin_3*%
%TO.N,OB2x*%
X127025000Y-119380000D03*
%TO.P,J8,4,Pin_4*%
%TO.N,OB1x*%
X127025000Y-121920000D03*
%TO.P,J8,5,Pin_5*%
%TO.N,OA1x*%
X127025000Y-124460000D03*
%TO.P,J8,6,Pin_6*%
%TO.N,OA2x*%
X127025000Y-127000000D03*
%TO.P,J8,7,Pin_7*%
%TO.N,GND*%
X127025000Y-129540000D03*
%TO.P,J8,8,Pin_8*%
%TO.N,+12V*%
X127025000Y-132080000D03*
%TD*%
D16*
%TO.P,J9,1,Pin_1*%
%TO.N,DIRx*%
X139725000Y-114300000D03*
D17*
%TO.P,J9,2,Pin_2*%
%TO.N,STEPx*%
X139725000Y-116840000D03*
%TO.P,J9,3,Pin_3*%
%TO.N,unconnected-(J9-Pad3)*%
X139725000Y-119380000D03*
%TO.P,J9,4,Pin_4*%
%TO.N,unconnected-(J9-Pad4)*%
X139725000Y-121920000D03*
%TO.P,J9,5,Pin_5*%
%TO.N,unconnected-(J9-Pad5)*%
X139725000Y-124460000D03*
%TO.P,J9,6,Pin_6*%
%TO.N,+5V*%
X139725000Y-127000000D03*
%TO.P,J9,7,Pin_7*%
X139725000Y-129540000D03*
%TO.P,J9,8,Pin_8*%
%TO.N,ENx*%
X139725000Y-132080000D03*
%TD*%
D16*
%TO.P,J10,1,Pin_1*%
%TO.N,GND*%
X127025000Y-87645000D03*
D17*
%TO.P,J10,2,Pin_2*%
%TO.N,+5V*%
X127025000Y-90185000D03*
%TO.P,J10,3,Pin_3*%
%TO.N,OB2y*%
X127025000Y-92725000D03*
%TO.P,J10,4,Pin_4*%
%TO.N,OB1y*%
X127025000Y-95265000D03*
%TO.P,J10,5,Pin_5*%
%TO.N,OA1y*%
X127025000Y-97805000D03*
%TO.P,J10,6,Pin_6*%
%TO.N,OA2y*%
X127025000Y-100345000D03*
%TO.P,J10,7,Pin_7*%
%TO.N,GND*%
X127025000Y-102885000D03*
%TO.P,J10,8,Pin_8*%
%TO.N,+12V*%
X127025000Y-105425000D03*
%TD*%
D16*
%TO.P,J11,1,Pin_1*%
%TO.N,DIRy*%
X139725000Y-87645000D03*
D17*
%TO.P,J11,2,Pin_2*%
%TO.N,STEPy*%
X139725000Y-90185000D03*
%TO.P,J11,3,Pin_3*%
%TO.N,unconnected-(J11-Pad3)*%
X139725000Y-92725000D03*
%TO.P,J11,4,Pin_4*%
%TO.N,unconnected-(J11-Pad4)*%
X139725000Y-95265000D03*
%TO.P,J11,5,Pin_5*%
%TO.N,unconnected-(J11-Pad5)*%
X139725000Y-97805000D03*
%TO.P,J11,6,Pin_6*%
%TO.N,+5V*%
X139725000Y-100345000D03*
%TO.P,J11,7,Pin_7*%
X139725000Y-102885000D03*
%TO.P,J11,8,Pin_8*%
%TO.N,ENy*%
X139725000Y-105425000D03*
%TD*%
D16*
%TO.P,J12,1,Pin_1*%
%TO.N,GND*%
X127025000Y-62245000D03*
D17*
%TO.P,J12,2,Pin_2*%
%TO.N,+5V*%
X127025000Y-64785000D03*
%TO.P,J12,3,Pin_3*%
%TO.N,OB2z*%
X127025000Y-67325000D03*
%TO.P,J12,4,Pin_4*%
%TO.N,OB1z*%
X127025000Y-69865000D03*
%TO.P,J12,5,Pin_5*%
%TO.N,OA1z*%
X127025000Y-72405000D03*
%TO.P,J12,6,Pin_6*%
%TO.N,OA2z*%
X127025000Y-74945000D03*
%TO.P,J12,7,Pin_7*%
%TO.N,GND*%
X127025000Y-77485000D03*
%TO.P,J12,8,Pin_8*%
%TO.N,+12V*%
X127025000Y-80025000D03*
%TD*%
D16*
%TO.P,J13,1,Pin_1*%
%TO.N,DIRz*%
X139725000Y-62245000D03*
D17*
%TO.P,J13,2,Pin_2*%
%TO.N,STEPz*%
X139725000Y-64785000D03*
%TO.P,J13,3,Pin_3*%
%TO.N,unconnected-(J13-Pad3)*%
X139725000Y-67325000D03*
%TO.P,J13,4,Pin_4*%
%TO.N,unconnected-(J13-Pad4)*%
X139725000Y-69865000D03*
%TO.P,J13,5,Pin_5*%
%TO.N,unconnected-(J13-Pad5)*%
X139725000Y-72405000D03*
%TO.P,J13,6,Pin_6*%
%TO.N,+5V*%
X139725000Y-74945000D03*
%TO.P,J13,7,Pin_7*%
X139725000Y-77485000D03*
%TO.P,J13,8,Pin_8*%
%TO.N,ENz*%
X139725000Y-80025000D03*
%TD*%
D18*
%TO.P,J14,1,Pin_1*%
%TO.N,+5V*%
X187960000Y-91400000D03*
D14*
%TO.P,J14,2,Pin_2*%
%TO.N,GND*%
X187960000Y-88900000D03*
%TO.P,J14,3,Pin_3*%
%TO.N,Lx*%
X187960000Y-86400000D03*
%TD*%
D18*
%TO.P,J15,1,Pin_1*%
%TO.N,+5V*%
X187960000Y-104140000D03*
D14*
%TO.P,J15,2,Pin_2*%
%TO.N,GND*%
X187960000Y-101640000D03*
%TO.P,J15,3,Pin_3*%
%TO.N,Ly*%
X187960000Y-99140000D03*
%TD*%
D18*
%TO.P,J16,1,Pin_1*%
%TO.N,+5V*%
X187960000Y-116840000D03*
D14*
%TO.P,J16,2,Pin_2*%
%TO.N,GND*%
X187960000Y-114340000D03*
%TO.P,J16,3,Pin_3*%
%TO.N,Lz*%
X187960000Y-111840000D03*
%TD*%
D19*
%TO.P,Q1,1,G*%
%TO.N,DCtrl*%
X172720000Y-76200000D03*
D20*
%TO.P,Q1,2,D*%
%TO.N,DC-*%
X172720000Y-73660000D03*
%TO.P,Q1,3,S*%
%TO.N,GND*%
X172720000Y-71120000D03*
%TD*%
D15*
%TO.P,J5,1,Pin_1*%
%TO.N,+12V*%
X165195000Y-60865000D03*
%TO.P,J5,2,Pin_2*%
%TO.N,GND*%
X170275000Y-60865000D03*
%TD*%
D16*
%TO.P,J18,1,Pin_1*%
%TO.N,CONT*%
X144320000Y-124460000D03*
D17*
%TO.P,J18,2,Pin_2*%
%TO.N,16*%
X146860000Y-124460000D03*
%TO.P,J18,3,Pin_3*%
%TO.N,AREF*%
X149400000Y-124460000D03*
%TO.P,J18,4,Pin_4*%
%TO.N,GND*%
X151940000Y-124460000D03*
%TO.P,J18,5,Pin_5*%
%TO.N,13*%
X154480000Y-124460000D03*
%TO.P,J18,6,Pin_6*%
%TO.N,DCtrl*%
X157020000Y-124460000D03*
%TO.P,J18,7,Pin_7*%
%TO.N,ENx*%
X159560000Y-124460000D03*
%TO.P,J18,8,Pin_8*%
%TO.N,STEPx*%
X162100000Y-124460000D03*
%TO.P,J18,9,Pin_9*%
%TO.N,DIRx*%
X164640000Y-124460000D03*
%TO.P,J18,10,Pin_10*%
%TO.N,ENy*%
X167180000Y-124460000D03*
%TD*%
D21*
%TO.P,C4,1*%
%TO.N,+5V*%
X132080000Y-88900000D03*
D22*
%TO.P,C4,2*%
%TO.N,GND*%
X134580000Y-88900000D03*
%TD*%
D16*
%TO.P,J17,1,Pin_1*%
%TO.N,STEPy*%
X170180000Y-124460000D03*
D17*
%TO.P,J17,2,Pin_2*%
%TO.N,DIRy*%
X172720000Y-124460000D03*
%TO.P,J17,3,Pin_3*%
%TO.N,ENz*%
X175260000Y-124460000D03*
%TO.P,J17,4,Pin_4*%
%TO.N,STEPz*%
X177800000Y-124460000D03*
%TO.P,J17,5,Pin_5*%
%TO.N,DIRz*%
X180340000Y-124460000D03*
%TO.P,J17,6,Pin_6*%
%TO.N,Lx*%
X182880000Y-124460000D03*
%TO.P,J17,7,Pin_7*%
%TO.N,Ly*%
X185420000Y-124460000D03*
%TO.P,J17,8,Pin_8*%
%TO.N,Lz*%
X187960000Y-124460000D03*
%TD*%
D23*
%TO.P,U1,1,VIN*%
%TO.N,+12V*%
X154940000Y-81280000D03*
D24*
%TO.P,U1,2,OUT*%
%TO.N,Net-(D2-Pad1)*%
X156640000Y-81280000D03*
%TO.P,U1,3,GND*%
%TO.N,GND*%
X158340000Y-81280000D03*
%TO.P,U1,4,FB*%
%TO.N,+5V*%
X160040000Y-81280000D03*
%TO.P,U1,5,~{ON}/OFF*%
%TO.N,GND*%
X161740000Y-81280000D03*
%TD*%
D21*
%TO.P,C3,1*%
%TO.N,+5V*%
X132080000Y-116840000D03*
D22*
%TO.P,C3,2*%
%TO.N,GND*%
X134580000Y-116840000D03*
%TD*%
D25*
%TO.P,C2,1*%
%TO.N,+5V*%
X149860000Y-111760000D03*
D26*
%TO.P,C2,2*%
%TO.N,GND*%
X149860000Y-116760000D03*
%TD*%
D27*
%TO.P,D2,2,A*%
%TO.N,GND*%
X170180000Y-88900000D03*
D28*
%TO.P,D2,1,K*%
%TO.N,Net-(D2-Pad1)*%
X154940000Y-88900000D03*
%TD*%
D22*
%TO.P,R1,1*%
%TO.N,DCtrl*%
X157480000Y-73660000D03*
D29*
%TO.P,R1,2*%
%TO.N,GND*%
X147320000Y-73660000D03*
%TD*%
D21*
%TO.P,C5,1*%
%TO.N,+5V*%
X132080000Y-63500000D03*
D22*
%TO.P,C5,2*%
%TO.N,GND*%
X134580000Y-63500000D03*
%TD*%
D21*
%TO.P,C1,1*%
%TO.N,+12V*%
X147320000Y-81280000D03*
D22*
%TO.P,C1,2*%
%TO.N,GND*%
X147320000Y-83780000D03*
%TD*%
D30*
%TO.P,J19,A1,GND*%
%TO.N,GND*%
X180400000Y-78950000D03*
%TO.P,J19,A2,TX1+*%
%TO.N,unconnected-(J19-PadA2)*%
X180400000Y-78450000D03*
%TO.P,J19,A3,TX1-*%
%TO.N,unconnected-(J19-PadA3)*%
X180400000Y-77950000D03*
%TO.P,J19,A4,VBUS*%
%TO.N,+5V*%
X180400000Y-77450000D03*
%TO.P,J19,A5,CC1*%
%TO.N,unconnected-(J19-PadA5)*%
X180400000Y-76950000D03*
%TO.P,J19,A6,D+*%
%TO.N,unconnected-(J19-PadA6)*%
X180400000Y-76450000D03*
%TO.P,J19,A7,D-*%
%TO.N,unconnected-(J19-PadA7)*%
X180400000Y-75950000D03*
%TO.P,J19,A8,SBU1*%
%TO.N,unconnected-(J19-PadA8)*%
X180400000Y-75450000D03*
%TO.P,J19,A9,VBUS*%
%TO.N,+5V*%
X180400000Y-74950000D03*
%TO.P,J19,A10,RX2-*%
%TO.N,unconnected-(J19-PadA10)*%
X180400000Y-74450000D03*
%TO.P,J19,A11,RX2+*%
%TO.N,unconnected-(J19-PadA11)*%
X180400000Y-73950000D03*
%TO.P,J19,A12,GND*%
%TO.N,GND*%
X180400000Y-73450000D03*
D31*
%TO.P,J19,B1,GND*%
X181710000Y-73400000D03*
%TO.P,J19,B2,TX2+*%
%TO.N,unconnected-(J19-PadB2)*%
X182410000Y-73800000D03*
%TO.P,J19,B3,TX2-*%
%TO.N,unconnected-(J19-PadB3)*%
X182410000Y-74600000D03*
%TO.P,J19,B4,VBUS*%
%TO.N,+5V*%
X181710000Y-75000000D03*
%TO.P,J19,B5,CC2*%
%TO.N,unconnected-(J19-PadB5)*%
X182410000Y-75400000D03*
%TO.P,J19,B6,D+*%
%TO.N,unconnected-(J19-PadB6)*%
X181710000Y-75800000D03*
%TO.P,J19,B7,D-*%
%TO.N,unconnected-(J19-PadB7)*%
X181710000Y-76600000D03*
%TO.P,J19,B8,SBU2*%
%TO.N,unconnected-(J19-PadB8)*%
X182410000Y-77000000D03*
%TO.P,J19,B9,VBUS*%
%TO.N,+5V*%
X181710000Y-77400000D03*
%TO.P,J19,B10,RX1-*%
%TO.N,unconnected-(J19-PadB10)*%
X182410000Y-77800000D03*
%TO.P,J19,B11,RX1+*%
%TO.N,unconnected-(J19-PadB11)*%
X182410000Y-78600000D03*
%TO.P,J19,B12,GND*%
%TO.N,GND*%
X181710000Y-79000000D03*
D32*
%TO.P,J19,S1,SHIELD*%
X182310000Y-80330000D03*
X188260000Y-71710000D03*
X182310000Y-72070000D03*
X188260000Y-80690000D03*
%TD*%
D22*
%TO.P,R2,1*%
%TO.N,CONT*%
X180340000Y-68580000D03*
D29*
%TO.P,R2,2*%
%TO.N,GND*%
X180340000Y-58420000D03*
%TD*%
D15*
%TO.P,J4,1,Pin_1*%
%TO.N,+5V*%
X188055000Y-60960000D03*
%TO.P,J4,2,Pin_2*%
%TO.N,CONT*%
X188055000Y-66040000D03*
%TD*%
D33*
%TO.P,L1,1,1*%
%TO.N,+5V*%
X170180000Y-118380000D03*
%TO.P,L1,2,2*%
%TO.N,Net-(D2-Pad1)*%
X170180000Y-94880000D03*
%TD*%
D34*
%TO.N,CONT*%
X162560000Y-129540000D03*
%TD*%
D35*
%TO.N,DC-*%
X152400000Y-60960000D02*
X152400000Y-63500000D01*
X152400000Y-63500000D02*
X147320000Y-68580000D01*
D36*
%TO.N,+5V*%
X149860000Y-111760000D02*
X163560000Y-111760000D01*
X132080000Y-69840000D02*
X132080000Y-63500000D01*
D37*
X139725000Y-100345000D02*
X139725000Y-102885000D01*
X139725000Y-127000000D02*
X139725000Y-129540000D01*
X130795000Y-64785000D02*
X132080000Y-63500000D01*
D36*
X132080000Y-119355000D02*
X139725000Y-127000000D01*
D37*
X127025000Y-64785000D02*
X130795000Y-64785000D01*
X181660000Y-77450000D02*
X181710000Y-77400000D01*
X180400000Y-77450000D02*
X181660000Y-77450000D01*
D36*
X132080000Y-88900000D02*
X132080000Y-85130000D01*
X132080000Y-85130000D02*
X139725000Y-77485000D01*
D37*
X180400000Y-74950000D02*
X181660000Y-74950000D01*
D36*
X139725000Y-77485000D02*
X132080000Y-69840000D01*
D37*
X181660000Y-74950000D02*
X181710000Y-75000000D01*
X139725000Y-74945000D02*
X139725000Y-77485000D01*
D36*
X132080000Y-116840000D02*
X132080000Y-119355000D01*
D37*
X160040000Y-81280000D02*
X160040000Y-81542500D01*
D36*
X132080000Y-110530000D02*
X132080000Y-116840000D01*
D37*
X127025000Y-90185000D02*
X130795000Y-90185000D01*
D36*
X139725000Y-102885000D02*
X132080000Y-95240000D01*
X149860000Y-111760000D02*
X140985000Y-102885000D01*
X140985000Y-102885000D02*
X139725000Y-102885000D01*
D37*
X130795000Y-90185000D02*
X132080000Y-88900000D01*
X127025000Y-116840000D02*
X132080000Y-116840000D01*
D36*
X132080000Y-95240000D02*
X132080000Y-88900000D01*
X139725000Y-102885000D02*
X132080000Y-110530000D01*
X163560000Y-111760000D02*
X170180000Y-118380000D01*
%TO.N,OA2x*%
X119500000Y-127000000D02*
X119380000Y-126880000D01*
X127025000Y-127000000D02*
X119500000Y-127000000D01*
%TO.N,OA1x*%
X119380000Y-124380000D02*
X126945000Y-124380000D01*
X126945000Y-124380000D02*
X127025000Y-124460000D01*
%TO.N,OB1x*%
X127025000Y-121920000D02*
X119420000Y-121920000D01*
X119420000Y-121920000D02*
X119380000Y-121880000D01*
%TO.N,OB2x*%
X119380000Y-119380000D02*
X127025000Y-119380000D01*
D37*
%TO.N,ENx*%
X159560000Y-124460000D02*
X151940000Y-132080000D01*
X151940000Y-132080000D02*
X139725000Y-132080000D01*
%TO.N,STEPx*%
X141778501Y-118893501D02*
X139725000Y-116840000D01*
X162100000Y-124460000D02*
X156533501Y-118893501D01*
X156533501Y-118893501D02*
X141778501Y-118893501D01*
%TO.N,DIRx*%
X164640000Y-124460000D02*
X154480000Y-114300000D01*
X154480000Y-114300000D02*
X139725000Y-114300000D01*
D36*
%TO.N,OA2y*%
X127025000Y-100345000D02*
X119455000Y-100345000D01*
X119455000Y-100345000D02*
X119380000Y-100270000D01*
%TO.N,OA1y*%
X126990000Y-97770000D02*
X127025000Y-97805000D01*
X119380000Y-97770000D02*
X126990000Y-97770000D01*
%TO.N,OB1y*%
X127025000Y-95265000D02*
X119385000Y-95265000D01*
X119385000Y-95265000D02*
X119380000Y-95270000D01*
%TO.N,OB2y*%
X126980000Y-92770000D02*
X127025000Y-92725000D01*
X119380000Y-92770000D02*
X126980000Y-92770000D01*
D37*
%TO.N,ENy*%
X167180000Y-124460000D02*
X156004511Y-113284511D01*
X156004511Y-113284511D02*
X147584511Y-113284511D01*
X147584511Y-113284511D02*
X139725000Y-105425000D01*
%TO.N,GND*%
X181710000Y-79000000D02*
X182310000Y-79600000D01*
X181660000Y-73450000D02*
X181710000Y-73400000D01*
X182310000Y-79600000D02*
X182310000Y-80330000D01*
X180400000Y-73450000D02*
X181660000Y-73450000D01*
X182310000Y-72800000D02*
X182310000Y-72070000D01*
X181710000Y-73400000D02*
X182310000Y-72800000D01*
X180400000Y-78950000D02*
X181660000Y-78950000D01*
X181660000Y-78950000D02*
X181710000Y-79000000D01*
%TO.N,STEPy*%
X149860000Y-100320000D02*
X139725000Y-90185000D01*
X172720000Y-116840000D02*
X165100000Y-109220000D01*
X172720000Y-119380000D02*
X172720000Y-116840000D01*
X170180000Y-124460000D02*
X170180000Y-121920000D01*
X149860000Y-109220000D02*
X149860000Y-100320000D01*
X170180000Y-121920000D02*
X172720000Y-119380000D01*
X165100000Y-109220000D02*
X149860000Y-109220000D01*
%TO.N,DIRy*%
X173570000Y-115150000D02*
X165100000Y-106680000D01*
X157480000Y-105400000D02*
X139725000Y-87645000D01*
X173570000Y-123610000D02*
X173570000Y-115150000D01*
X157480000Y-106680000D02*
X157480000Y-105400000D01*
X172720000Y-124460000D02*
X173570000Y-123610000D01*
X165100000Y-106680000D02*
X157480000Y-106680000D01*
D36*
%TO.N,OA2z*%
X119455000Y-74945000D02*
X119380000Y-74870000D01*
X127025000Y-74945000D02*
X119455000Y-74945000D01*
%TO.N,OA1z*%
X119380000Y-72370000D02*
X126990000Y-72370000D01*
X126990000Y-72370000D02*
X127025000Y-72405000D01*
%TO.N,OB1z*%
X119385000Y-69865000D02*
X119380000Y-69870000D01*
X127025000Y-69865000D02*
X119385000Y-69865000D01*
%TO.N,OB2z*%
X119380000Y-67370000D02*
X126980000Y-67370000D01*
X126980000Y-67370000D02*
X127025000Y-67325000D01*
D37*
%TO.N,ENz*%
X165100000Y-104140000D02*
X160020000Y-104140000D01*
X160020000Y-104140000D02*
X139725000Y-83845000D01*
X139725000Y-83845000D02*
X139725000Y-80025000D01*
X175260000Y-114300000D02*
X165100000Y-104140000D01*
X175260000Y-124460000D02*
X175260000Y-114300000D01*
%TO.N,STEPz*%
X160020000Y-101600000D02*
X142240000Y-83820000D01*
X177800000Y-124460000D02*
X177800000Y-114300000D01*
X177800000Y-114300000D02*
X165100000Y-101600000D01*
X165100000Y-101600000D02*
X160020000Y-101600000D01*
X142240000Y-83820000D02*
X142240000Y-67300000D01*
X142240000Y-67300000D02*
X139725000Y-64785000D01*
%TO.N,DIRz*%
X160020000Y-99060000D02*
X144780000Y-83820000D01*
X140985000Y-62245000D02*
X139725000Y-62245000D01*
X180340000Y-124460000D02*
X180340000Y-114300000D01*
X165100000Y-99060000D02*
X160020000Y-99060000D01*
X144780000Y-66040000D02*
X140985000Y-62245000D01*
X144780000Y-83820000D02*
X144780000Y-66040000D01*
X180340000Y-114300000D02*
X165100000Y-99060000D01*
%TO.N,Lx*%
X182880000Y-98617493D02*
X190500000Y-90997493D01*
X190500000Y-88940000D02*
X187960000Y-86400000D01*
X182880000Y-124460000D02*
X182880000Y-98617493D01*
X190500000Y-90997493D02*
X190500000Y-88940000D01*
%TO.N,Ly*%
X185420000Y-124460000D02*
X185420000Y-101680000D01*
X185420000Y-101680000D02*
X187960000Y-99140000D01*
%TO.N,Lz*%
X189259520Y-123160480D02*
X189259520Y-113139520D01*
X187960000Y-124460000D02*
X189259520Y-123160480D01*
X189259520Y-113139520D02*
X187960000Y-111840000D01*
D36*
%TO.N,Net-(D2-Pad1)*%
X164200000Y-88900000D02*
X170180000Y-94880000D01*
X154940000Y-88900000D02*
X164200000Y-88900000D01*
X156640000Y-87200000D02*
X154940000Y-88900000D01*
X156640000Y-81280000D02*
X156640000Y-87200000D01*
D37*
%TO.N,CONT*%
X185515000Y-68580000D02*
X188055000Y-66040000D01*
X162560000Y-129540000D02*
X187960000Y-129540000D01*
X187960000Y-129540000D02*
X190949520Y-126550480D01*
X190949520Y-68934520D02*
X188055000Y-66040000D01*
X180340000Y-68580000D02*
X185515000Y-68580000D01*
X190949520Y-126550480D02*
X190949520Y-68934520D01*
D38*
%TO.N,+12V*%
X116840000Y-78740000D02*
X116840000Y-104140000D01*
X116840000Y-60960000D02*
X116840000Y-78740000D01*
X157480000Y-60960000D02*
X154940000Y-58420000D01*
X119380000Y-132080000D02*
X127025000Y-132080000D01*
X127025000Y-80025000D02*
X118125000Y-80025000D01*
X157575000Y-60865000D02*
X157480000Y-60960000D01*
X118125000Y-80025000D02*
X116840000Y-78740000D01*
X116840000Y-104140000D02*
X116840000Y-129540000D01*
X154940000Y-58420000D02*
X119380000Y-58420000D01*
D37*
X147320000Y-81280000D02*
X154940000Y-81280000D01*
D39*
X165195000Y-60865000D02*
X160020000Y-66040000D01*
D38*
X119380000Y-58420000D02*
X116840000Y-60960000D01*
X118125000Y-105425000D02*
X116840000Y-104140000D01*
X165195000Y-60865000D02*
X157575000Y-60865000D01*
D39*
X160020000Y-76200000D02*
X154940000Y-81280000D01*
D35*
X157480000Y-60960000D02*
X157480000Y-68580000D01*
D39*
X160020000Y-66040000D02*
X160020000Y-76200000D01*
D38*
X127025000Y-105425000D02*
X118125000Y-105425000D01*
X116840000Y-129540000D02*
X119380000Y-132080000D01*
%TD*%
M02*
