%TF.GenerationSoftware,KiCad,Pcbnew,(6.0.2)*%
%TF.CreationDate,2022-02-25T10:45:33+01:00*%
%TF.ProjectId,CNC_interface,434e435f-696e-4746-9572-666163652e6b,rev?*%
%TF.SameCoordinates,Original*%
%TF.FileFunction,Legend,Bot*%
%TF.FilePolarity,Positive*%
%FSLAX46Y46*%
G04 Gerber Fmt 4.6, Leading zero omitted, Abs format (unit mm)*
G04 Created by KiCad (PCBNEW (6.0.2)) date 2022-02-25 10:45:33*
%MOMM*%
%LPD*%
G01*
G04 APERTURE LIST*
%ADD10C,0.150000*%
%ADD11C,0.900000*%
G04 APERTURE END LIST*
D10*
X119475238Y-80809761D02*
X120332380Y-82095476D01*
X118427619Y-80809761D02*
X119284761Y-82095476D01*
X119665714Y-83848333D02*
X119713333Y-83800714D01*
X119808571Y-83657857D01*
X119856190Y-83562619D01*
X119903809Y-83419761D01*
X119951428Y-83181666D01*
X119951428Y-82991190D01*
X119903809Y-82753095D01*
X119856190Y-82610238D01*
X119808571Y-82515000D01*
X119713333Y-82372142D01*
X119665714Y-82324523D01*
X119237142Y-82467380D02*
X119332380Y-82657857D01*
X118808571Y-82800714D02*
X118046666Y-83086428D01*
X118808571Y-83372142D01*
X119189523Y-84029761D02*
X120046666Y-85315476D01*
X118856190Y-85077380D02*
X118856190Y-84410714D01*
X118856190Y-84601190D02*
X118808571Y-84505952D01*
X118760952Y-84458333D01*
X118665714Y-84410714D01*
X118570476Y-84410714D01*
X118237142Y-85077380D02*
X118237142Y-84410714D01*
X118237142Y-84601190D02*
X118189523Y-84505952D01*
X118141904Y-84458333D01*
X118046666Y-84410714D01*
X117951428Y-84410714D01*
X120760952Y-85687380D02*
X120760952Y-85925476D01*
X120999047Y-85830238D02*
X120760952Y-85925476D01*
X120522857Y-85830238D01*
X120903809Y-86115952D02*
X120760952Y-85925476D01*
X120618095Y-86115952D01*
X120475238Y-85592142D02*
X119618095Y-86877857D01*
X119570476Y-87068333D02*
X119522857Y-87020714D01*
X119427619Y-86877857D01*
X119380000Y-86782619D01*
X119332380Y-86639761D01*
X119284761Y-86401666D01*
X119284761Y-86211190D01*
X119332380Y-85973095D01*
X119380000Y-85830238D01*
X119427619Y-85735000D01*
X119522857Y-85592142D01*
X119570476Y-85544523D01*
X118903809Y-87068333D02*
X118856190Y-87020714D01*
X118760952Y-86877857D01*
X118713333Y-86782619D01*
X118665714Y-86639761D01*
X118618095Y-86401666D01*
X118618095Y-86211190D01*
X118665714Y-85973095D01*
X118713333Y-85830238D01*
X118760952Y-85735000D01*
X118856190Y-85592142D01*
X118903809Y-85544523D01*
X118380000Y-86782619D02*
X117618095Y-86782619D01*
D11*
X179228571Y-96299047D02*
X179419047Y-96108571D01*
X179609523Y-95537142D01*
X179609523Y-95156190D01*
X179419047Y-94584761D01*
X179038095Y-94203809D01*
X178657142Y-94013333D01*
X177895238Y-93822857D01*
X177323809Y-93822857D01*
X176561904Y-94013333D01*
X176180952Y-94203809D01*
X175800000Y-94584761D01*
X175609523Y-95156190D01*
X175609523Y-95537142D01*
X175800000Y-96108571D01*
X175990476Y-96299047D01*
X179609523Y-98013333D02*
X175609523Y-98013333D01*
X179609523Y-100299047D01*
X175609523Y-100299047D01*
X179228571Y-104489523D02*
X179419047Y-104299047D01*
X179609523Y-103727619D01*
X179609523Y-103346666D01*
X179419047Y-102775238D01*
X179038095Y-102394285D01*
X178657142Y-102203809D01*
X177895238Y-102013333D01*
X177323809Y-102013333D01*
X176561904Y-102203809D01*
X176180952Y-102394285D01*
X175800000Y-102775238D01*
X175609523Y-103346666D01*
X175609523Y-103727619D01*
X175800000Y-104299047D01*
X175990476Y-104489523D01*
X179609523Y-109251428D02*
X175609523Y-109251428D01*
X175609523Y-110775238D01*
X175800000Y-111156190D01*
X175990476Y-111346666D01*
X176371428Y-111537142D01*
X176942857Y-111537142D01*
X177323809Y-111346666D01*
X177514285Y-111156190D01*
X177704761Y-110775238D01*
X177704761Y-109251428D01*
X179228571Y-115537142D02*
X179419047Y-115346666D01*
X179609523Y-114775238D01*
X179609523Y-114394285D01*
X179419047Y-113822857D01*
X179038095Y-113441904D01*
X178657142Y-113251428D01*
X177895238Y-113060952D01*
X177323809Y-113060952D01*
X176561904Y-113251428D01*
X176180952Y-113441904D01*
X175800000Y-113822857D01*
X175609523Y-114394285D01*
X175609523Y-114775238D01*
X175800000Y-115346666D01*
X175990476Y-115537142D01*
X177514285Y-118584761D02*
X177704761Y-119156190D01*
X177895238Y-119346666D01*
X178276190Y-119537142D01*
X178847619Y-119537142D01*
X179228571Y-119346666D01*
X179419047Y-119156190D01*
X179609523Y-118775238D01*
X179609523Y-117251428D01*
X175609523Y-117251428D01*
X175609523Y-118584761D01*
X175800000Y-118965714D01*
X175990476Y-119156190D01*
X176371428Y-119346666D01*
X176752380Y-119346666D01*
X177133333Y-119156190D01*
X177323809Y-118965714D01*
X177514285Y-118584761D01*
X177514285Y-117251428D01*
D10*
X182808571Y-98465714D02*
X182808571Y-98799047D01*
X183332380Y-98941904D02*
X183332380Y-98465714D01*
X182332380Y-98465714D01*
X182332380Y-98941904D01*
X183237142Y-99941904D02*
X183284761Y-99894285D01*
X183332380Y-99751428D01*
X183332380Y-99656190D01*
X183284761Y-99513333D01*
X183189523Y-99418095D01*
X183094285Y-99370476D01*
X182903809Y-99322857D01*
X182760952Y-99322857D01*
X182570476Y-99370476D01*
X182475238Y-99418095D01*
X182380000Y-99513333D01*
X182332380Y-99656190D01*
X182332380Y-99751428D01*
X182380000Y-99894285D01*
X182427619Y-99941904D01*
X183046666Y-100322857D02*
X183046666Y-100799047D01*
X183332380Y-100227619D02*
X182332380Y-100560952D01*
X183332380Y-100894285D01*
X183332380Y-101227619D02*
X182332380Y-101227619D01*
X183046666Y-101560952D01*
X182332380Y-101894285D01*
X183332380Y-101894285D01*
X183332380Y-103132380D02*
X182332380Y-103132380D01*
X182332380Y-103513333D01*
X182380000Y-103608571D01*
X182427619Y-103656190D01*
X182522857Y-103703809D01*
X182665714Y-103703809D01*
X182760952Y-103656190D01*
X182808571Y-103608571D01*
X182856190Y-103513333D01*
X182856190Y-103132380D01*
X183332380Y-104132380D02*
X182665714Y-104132380D01*
X182856190Y-104132380D02*
X182760952Y-104180000D01*
X182713333Y-104227619D01*
X182665714Y-104322857D01*
X182665714Y-104418095D01*
X183332380Y-104894285D02*
X183284761Y-104799047D01*
X183237142Y-104751428D01*
X183141904Y-104703809D01*
X182856190Y-104703809D01*
X182760952Y-104751428D01*
X182713333Y-104799047D01*
X182665714Y-104894285D01*
X182665714Y-105037142D01*
X182713333Y-105132380D01*
X182760952Y-105180000D01*
X182856190Y-105227619D01*
X183141904Y-105227619D01*
X183237142Y-105180000D01*
X183284761Y-105132380D01*
X183332380Y-105037142D01*
X183332380Y-104894285D01*
X182665714Y-105656190D02*
X183522857Y-105656190D01*
X183618095Y-105608571D01*
X183665714Y-105513333D01*
X183665714Y-105465714D01*
X182332380Y-105656190D02*
X182380000Y-105608571D01*
X182427619Y-105656190D01*
X182380000Y-105703809D01*
X182332380Y-105656190D01*
X182427619Y-105656190D01*
X183284761Y-106513333D02*
X183332380Y-106418095D01*
X183332380Y-106227619D01*
X183284761Y-106132380D01*
X183189523Y-106084761D01*
X182808571Y-106084761D01*
X182713333Y-106132380D01*
X182665714Y-106227619D01*
X182665714Y-106418095D01*
X182713333Y-106513333D01*
X182808571Y-106560952D01*
X182903809Y-106560952D01*
X182999047Y-106084761D01*
X182665714Y-106846666D02*
X182665714Y-107227619D01*
X182332380Y-106989523D02*
X183189523Y-106989523D01*
X183284761Y-107037142D01*
X183332380Y-107132380D01*
X183332380Y-107227619D01*
X183332380Y-108322857D02*
X182665714Y-108322857D01*
X182856190Y-108322857D02*
X182760952Y-108370476D01*
X182713333Y-108418095D01*
X182665714Y-108513333D01*
X182665714Y-108608571D01*
X183332380Y-109084761D02*
X183284761Y-108989523D01*
X183237142Y-108941904D01*
X183141904Y-108894285D01*
X182856190Y-108894285D01*
X182760952Y-108941904D01*
X182713333Y-108989523D01*
X182665714Y-109084761D01*
X182665714Y-109227619D01*
X182713333Y-109322857D01*
X182760952Y-109370476D01*
X182856190Y-109418095D01*
X183141904Y-109418095D01*
X183237142Y-109370476D01*
X183284761Y-109322857D01*
X183332380Y-109227619D01*
X183332380Y-109084761D01*
X183332380Y-109846666D02*
X182332380Y-109846666D01*
X182713333Y-109846666D02*
X182665714Y-109941904D01*
X182665714Y-110132380D01*
X182713333Y-110227619D01*
X182760952Y-110275238D01*
X182856190Y-110322857D01*
X183141904Y-110322857D01*
X183237142Y-110275238D01*
X183284761Y-110227619D01*
X183332380Y-110132380D01*
X183332380Y-109941904D01*
X183284761Y-109846666D01*
X183332380Y-110894285D02*
X183284761Y-110799047D01*
X183237142Y-110751428D01*
X183141904Y-110703809D01*
X182856190Y-110703809D01*
X182760952Y-110751428D01*
X182713333Y-110799047D01*
X182665714Y-110894285D01*
X182665714Y-111037142D01*
X182713333Y-111132380D01*
X182760952Y-111180000D01*
X182856190Y-111227619D01*
X183141904Y-111227619D01*
X183237142Y-111180000D01*
X183284761Y-111132380D01*
X183332380Y-111037142D01*
X183332380Y-110894285D01*
X182665714Y-111513333D02*
X182665714Y-111894285D01*
X182332380Y-111656190D02*
X183189523Y-111656190D01*
X183284761Y-111703809D01*
X183332380Y-111799047D01*
X183332380Y-111894285D01*
X183332380Y-112227619D02*
X182665714Y-112227619D01*
X182332380Y-112227619D02*
X182380000Y-112180000D01*
X182427619Y-112227619D01*
X182380000Y-112275238D01*
X182332380Y-112227619D01*
X182427619Y-112227619D01*
X182665714Y-113132380D02*
X183665714Y-113132380D01*
X183284761Y-113132380D02*
X183332380Y-113037142D01*
X183332380Y-112846666D01*
X183284761Y-112751428D01*
X183237142Y-112703809D01*
X183141904Y-112656190D01*
X182856190Y-112656190D01*
X182760952Y-112703809D01*
X182713333Y-112751428D01*
X182665714Y-112846666D01*
X182665714Y-113037142D01*
X182713333Y-113132380D01*
X182665714Y-114037142D02*
X183332380Y-114037142D01*
X182665714Y-113608571D02*
X183189523Y-113608571D01*
X183284761Y-113656190D01*
X183332380Y-113751428D01*
X183332380Y-113894285D01*
X183284761Y-113989523D01*
X183237142Y-114037142D01*
X183284761Y-114894285D02*
X183332380Y-114799047D01*
X183332380Y-114608571D01*
X183284761Y-114513333D01*
X183189523Y-114465714D01*
X182808571Y-114465714D01*
X182713333Y-114513333D01*
X182665714Y-114608571D01*
X182665714Y-114799047D01*
X182713333Y-114894285D01*
X182808571Y-114941904D01*
X182903809Y-114941904D01*
X182999047Y-114465714D01*
X133389523Y-57872380D02*
X132818095Y-57872380D01*
X133103809Y-58872380D02*
X133103809Y-57872380D01*
X132294285Y-57872380D02*
X132103809Y-57872380D01*
X132008571Y-57920000D01*
X131913333Y-58015238D01*
X131865714Y-58205714D01*
X131865714Y-58539047D01*
X131913333Y-58729523D01*
X132008571Y-58824761D01*
X132103809Y-58872380D01*
X132294285Y-58872380D01*
X132389523Y-58824761D01*
X132484761Y-58729523D01*
X132532380Y-58539047D01*
X132532380Y-58205714D01*
X132484761Y-58015238D01*
X132389523Y-57920000D01*
X132294285Y-57872380D01*
X131437142Y-58872380D02*
X131437142Y-57872380D01*
X131056190Y-57872380D01*
X130960952Y-57920000D01*
X130913333Y-57967619D01*
X130865714Y-58062857D01*
X130865714Y-58205714D01*
X130913333Y-58300952D01*
X130960952Y-58348571D01*
X131056190Y-58396190D01*
X131437142Y-58396190D01*
X133389523Y-83272380D02*
X132818095Y-83272380D01*
X133103809Y-84272380D02*
X133103809Y-83272380D01*
X132294285Y-83272380D02*
X132103809Y-83272380D01*
X132008571Y-83320000D01*
X131913333Y-83415238D01*
X131865714Y-83605714D01*
X131865714Y-83939047D01*
X131913333Y-84129523D01*
X132008571Y-84224761D01*
X132103809Y-84272380D01*
X132294285Y-84272380D01*
X132389523Y-84224761D01*
X132484761Y-84129523D01*
X132532380Y-83939047D01*
X132532380Y-83605714D01*
X132484761Y-83415238D01*
X132389523Y-83320000D01*
X132294285Y-83272380D01*
X131437142Y-84272380D02*
X131437142Y-83272380D01*
X131056190Y-83272380D01*
X130960952Y-83320000D01*
X130913333Y-83367619D01*
X130865714Y-83462857D01*
X130865714Y-83605714D01*
X130913333Y-83700952D01*
X130960952Y-83748571D01*
X131056190Y-83796190D01*
X131437142Y-83796190D01*
X133389523Y-111212380D02*
X132818095Y-111212380D01*
X133103809Y-112212380D02*
X133103809Y-111212380D01*
X132294285Y-111212380D02*
X132103809Y-111212380D01*
X132008571Y-111260000D01*
X131913333Y-111355238D01*
X131865714Y-111545714D01*
X131865714Y-111879047D01*
X131913333Y-112069523D01*
X132008571Y-112164761D01*
X132103809Y-112212380D01*
X132294285Y-112212380D01*
X132389523Y-112164761D01*
X132484761Y-112069523D01*
X132532380Y-111879047D01*
X132532380Y-111545714D01*
X132484761Y-111355238D01*
X132389523Y-111260000D01*
X132294285Y-111212380D01*
X131437142Y-112212380D02*
X131437142Y-111212380D01*
X131056190Y-111212380D01*
X130960952Y-111260000D01*
X130913333Y-111307619D01*
X130865714Y-111402857D01*
X130865714Y-111545714D01*
X130913333Y-111640952D01*
X130960952Y-111688571D01*
X131056190Y-111736190D01*
X131437142Y-111736190D01*
X173568571Y-111736190D02*
X173568571Y-112212380D01*
X173901904Y-111212380D02*
X173568571Y-111736190D01*
X173235237Y-111212380D01*
X172473333Y-112212380D02*
X172473333Y-111688571D01*
X172520952Y-111593333D01*
X172616190Y-111545714D01*
X172806666Y-111545714D01*
X172901904Y-111593333D01*
X172473333Y-112164761D02*
X172568571Y-112212380D01*
X172806666Y-112212380D01*
X172901904Y-112164761D01*
X172949523Y-112069523D01*
X172949523Y-111974285D01*
X172901904Y-111879047D01*
X172806666Y-111831428D01*
X172568571Y-111831428D01*
X172473333Y-111783809D01*
X171568571Y-112164761D02*
X171663809Y-112212380D01*
X171854285Y-112212380D01*
X171949523Y-112164761D01*
X171997142Y-112117142D01*
X172044761Y-112021904D01*
X172044761Y-111736190D01*
X171997142Y-111640952D01*
X171949523Y-111593333D01*
X171854285Y-111545714D01*
X171663809Y-111545714D01*
X171568571Y-111593333D01*
X170997142Y-112212380D02*
X171092380Y-112164761D01*
X171139999Y-112117142D01*
X171187618Y-112021904D01*
X171187618Y-111736190D01*
X171139999Y-111640952D01*
X171092380Y-111593333D01*
X170997142Y-111545714D01*
X170854285Y-111545714D01*
X170759047Y-111593333D01*
X170711428Y-111640952D01*
X170663809Y-111736190D01*
X170663809Y-112021904D01*
X170711428Y-112117142D01*
X170759047Y-112164761D01*
X170854285Y-112212380D01*
X170997142Y-112212380D01*
X169806666Y-111545714D02*
X169806666Y-112212380D01*
X170235237Y-111545714D02*
X170235237Y-112069523D01*
X170187618Y-112164761D01*
X170092380Y-112212380D01*
X169949523Y-112212380D01*
X169854285Y-112164761D01*
X169806666Y-112117142D01*
X169330475Y-112212380D02*
X169330475Y-111212380D01*
X169330475Y-111593333D02*
X169235237Y-111545714D01*
X169044761Y-111545714D01*
X168949523Y-111593333D01*
X168901904Y-111640952D01*
X168854285Y-111736190D01*
X168854285Y-112021904D01*
X168901904Y-112117142D01*
X168949523Y-112164761D01*
X169044761Y-112212380D01*
X169235237Y-112212380D01*
X169330475Y-112164761D01*
X167092380Y-112117142D02*
X167139999Y-112164761D01*
X167282856Y-112212380D01*
X167378094Y-112212380D01*
X167520952Y-112164761D01*
X167616190Y-112069523D01*
X167663809Y-111974285D01*
X167711428Y-111783809D01*
X167711428Y-111640952D01*
X167663809Y-111450476D01*
X167616190Y-111355238D01*
X167520952Y-111260000D01*
X167378094Y-111212380D01*
X167282856Y-111212380D01*
X167139999Y-111260000D01*
X167092380Y-111307619D01*
X166520952Y-112212380D02*
X166616190Y-112164761D01*
X166663809Y-112069523D01*
X166663809Y-111212380D01*
X165759047Y-112164761D02*
X165854285Y-112212380D01*
X166044761Y-112212380D01*
X166139999Y-112164761D01*
X166187618Y-112069523D01*
X166187618Y-111688571D01*
X166139999Y-111593333D01*
X166044761Y-111545714D01*
X165854285Y-111545714D01*
X165759047Y-111593333D01*
X165711428Y-111688571D01*
X165711428Y-111783809D01*
X166187618Y-111879047D01*
X165854285Y-111164761D02*
X165997142Y-111307619D01*
X165282856Y-112212380D02*
X165282856Y-111545714D01*
X165282856Y-111640952D02*
X165235237Y-111593333D01*
X165139999Y-111545714D01*
X164997142Y-111545714D01*
X164901904Y-111593333D01*
X164854285Y-111688571D01*
X164854285Y-112212380D01*
X164854285Y-111688571D02*
X164806666Y-111593333D01*
X164711428Y-111545714D01*
X164568571Y-111545714D01*
X164473333Y-111593333D01*
X164425714Y-111688571D01*
X164425714Y-112212380D01*
X163568571Y-112164761D02*
X163663809Y-112212380D01*
X163854285Y-112212380D01*
X163949523Y-112164761D01*
X163997142Y-112069523D01*
X163997142Y-111688571D01*
X163949523Y-111593333D01*
X163854285Y-111545714D01*
X163663809Y-111545714D01*
X163568571Y-111593333D01*
X163520952Y-111688571D01*
X163520952Y-111783809D01*
X163997142Y-111879047D01*
X163092380Y-111545714D02*
X163092380Y-112212380D01*
X163092380Y-111640952D02*
X163044761Y-111593333D01*
X162949523Y-111545714D01*
X162806666Y-111545714D01*
X162711428Y-111593333D01*
X162663809Y-111688571D01*
X162663809Y-112212380D01*
X162330475Y-111545714D02*
X161949523Y-111545714D01*
X162187618Y-111212380D02*
X162187618Y-112069523D01*
X162139999Y-112164761D01*
X162044761Y-112212380D01*
X161949523Y-112212380D01*
X173901904Y-108672380D02*
X173568571Y-109672380D01*
X173235238Y-108672380D01*
X172901904Y-109672380D02*
X172901904Y-109005714D01*
X172901904Y-108672380D02*
X172949524Y-108720000D01*
X172901904Y-108767619D01*
X172854285Y-108720000D01*
X172901904Y-108672380D01*
X172901904Y-108767619D01*
X171997143Y-109624761D02*
X172092381Y-109672380D01*
X172282857Y-109672380D01*
X172378095Y-109624761D01*
X172425714Y-109577142D01*
X172473333Y-109481904D01*
X172473333Y-109196190D01*
X172425714Y-109100952D01*
X172378095Y-109053333D01*
X172282857Y-109005714D01*
X172092381Y-109005714D01*
X171997143Y-109053333D01*
X171425714Y-109672380D02*
X171520952Y-109624761D01*
X171568571Y-109577142D01*
X171616190Y-109481904D01*
X171616190Y-109196190D01*
X171568571Y-109100952D01*
X171520952Y-109053333D01*
X171425714Y-109005714D01*
X171282857Y-109005714D01*
X171187619Y-109053333D01*
X171140000Y-109100952D01*
X171092381Y-109196190D01*
X171092381Y-109481904D01*
X171140000Y-109577142D01*
X171187619Y-109624761D01*
X171282857Y-109672380D01*
X171425714Y-109672380D01*
X169901904Y-109672380D02*
X169901904Y-108672380D01*
X169330476Y-109672380D01*
X169330476Y-108672380D01*
X168425714Y-109672380D02*
X168425714Y-109148571D01*
X168473333Y-109053333D01*
X168568571Y-109005714D01*
X168759047Y-109005714D01*
X168854285Y-109053333D01*
X168425714Y-109624761D02*
X168520952Y-109672380D01*
X168759047Y-109672380D01*
X168854285Y-109624761D01*
X168901904Y-109529523D01*
X168901904Y-109434285D01*
X168854285Y-109339047D01*
X168759047Y-109291428D01*
X168520952Y-109291428D01*
X168425714Y-109243809D01*
X168092381Y-109005714D02*
X167711428Y-109005714D01*
X167949524Y-108672380D02*
X167949524Y-109529523D01*
X167901904Y-109624761D01*
X167806666Y-109672380D01*
X167711428Y-109672380D01*
X167378095Y-109672380D02*
X167378095Y-108672380D01*
X166949524Y-109672380D02*
X166949524Y-109148571D01*
X166997143Y-109053333D01*
X167092381Y-109005714D01*
X167235238Y-109005714D01*
X167330476Y-109053333D01*
X167378095Y-109100952D01*
X166044762Y-109672380D02*
X166044762Y-109148571D01*
X166092381Y-109053333D01*
X166187619Y-109005714D01*
X166378095Y-109005714D01*
X166473333Y-109053333D01*
X166044762Y-109624761D02*
X166140000Y-109672380D01*
X166378095Y-109672380D01*
X166473333Y-109624761D01*
X166520952Y-109529523D01*
X166520952Y-109434285D01*
X166473333Y-109339047D01*
X166378095Y-109291428D01*
X166140000Y-109291428D01*
X166044762Y-109243809D01*
X165568571Y-109005714D02*
X165568571Y-109672380D01*
X165568571Y-109100952D02*
X165520952Y-109053333D01*
X165425714Y-109005714D01*
X165282857Y-109005714D01*
X165187619Y-109053333D01*
X165140000Y-109148571D01*
X165140000Y-109672380D01*
X173759047Y-107132380D02*
X173759047Y-106132380D01*
X173378095Y-106132380D01*
X173282857Y-106180000D01*
X173235238Y-106227619D01*
X173187619Y-106322857D01*
X173187619Y-106465714D01*
X173235238Y-106560952D01*
X173282857Y-106608571D01*
X173378095Y-106656190D01*
X173759047Y-106656190D01*
X172378095Y-107084761D02*
X172473333Y-107132380D01*
X172663809Y-107132380D01*
X172759047Y-107084761D01*
X172806666Y-106989523D01*
X172806666Y-106608571D01*
X172759047Y-106513333D01*
X172663809Y-106465714D01*
X172473333Y-106465714D01*
X172378095Y-106513333D01*
X172330476Y-106608571D01*
X172330476Y-106703809D01*
X172806666Y-106799047D01*
X171901904Y-106465714D02*
X171901904Y-107132380D01*
X171901904Y-106560952D02*
X171854285Y-106513333D01*
X171759047Y-106465714D01*
X171616190Y-106465714D01*
X171520952Y-106513333D01*
X171473333Y-106608571D01*
X171473333Y-107132380D01*
X170997142Y-106465714D02*
X170997142Y-107132380D01*
X170997142Y-106560952D02*
X170949523Y-106513333D01*
X170854285Y-106465714D01*
X170711428Y-106465714D01*
X170616190Y-106513333D01*
X170568571Y-106608571D01*
X170568571Y-107132380D01*
X170092381Y-107132380D02*
X170092381Y-106465714D01*
X170092381Y-106132380D02*
X170140000Y-106180000D01*
X170092381Y-106227619D01*
X170044762Y-106180000D01*
X170092381Y-106132380D01*
X170092381Y-106227619D01*
X169616190Y-106465714D02*
X169616190Y-107132380D01*
X169616190Y-106560952D02*
X169568571Y-106513333D01*
X169473333Y-106465714D01*
X169330476Y-106465714D01*
X169235238Y-106513333D01*
X169187619Y-106608571D01*
X169187619Y-107132380D01*
X168282857Y-106465714D02*
X168282857Y-107275238D01*
X168330476Y-107370476D01*
X168378095Y-107418095D01*
X168473333Y-107465714D01*
X168616190Y-107465714D01*
X168711428Y-107418095D01*
X168282857Y-107084761D02*
X168378095Y-107132380D01*
X168568571Y-107132380D01*
X168663809Y-107084761D01*
X168711428Y-107037142D01*
X168759047Y-106941904D01*
X168759047Y-106656190D01*
X168711428Y-106560952D01*
X168663809Y-106513333D01*
X168568571Y-106465714D01*
X168378095Y-106465714D01*
X168282857Y-106513333D01*
X166473333Y-107037142D02*
X166520952Y-107084761D01*
X166663809Y-107132380D01*
X166759047Y-107132380D01*
X166901904Y-107084761D01*
X166997142Y-106989523D01*
X167044762Y-106894285D01*
X167092381Y-106703809D01*
X167092381Y-106560952D01*
X167044762Y-106370476D01*
X166997142Y-106275238D01*
X166901904Y-106180000D01*
X166759047Y-106132380D01*
X166663809Y-106132380D01*
X166520952Y-106180000D01*
X166473333Y-106227619D01*
X166044762Y-107132380D02*
X166044762Y-106132380D01*
X165616190Y-107132380D02*
X165616190Y-106608571D01*
X165663809Y-106513333D01*
X165759047Y-106465714D01*
X165901904Y-106465714D01*
X165997142Y-106513333D01*
X166044762Y-106560952D01*
X164997142Y-107132380D02*
X165092381Y-107084761D01*
X165140000Y-106989523D01*
X165140000Y-106132380D01*
X164473333Y-107132380D02*
X164568571Y-107084761D01*
X164616190Y-107037142D01*
X164663809Y-106941904D01*
X164663809Y-106656190D01*
X164616190Y-106560952D01*
X164568571Y-106513333D01*
X164473333Y-106465714D01*
X164330476Y-106465714D01*
X164235238Y-106513333D01*
X164187619Y-106560952D01*
X164140000Y-106656190D01*
X164140000Y-106941904D01*
X164187619Y-107037142D01*
X164235238Y-107084761D01*
X164330476Y-107132380D01*
X164473333Y-107132380D01*
X163330476Y-107084761D02*
X163425714Y-107132380D01*
X163616190Y-107132380D01*
X163711428Y-107084761D01*
X163759047Y-106989523D01*
X163759047Y-106608571D01*
X163711428Y-106513333D01*
X163616190Y-106465714D01*
X163425714Y-106465714D01*
X163330476Y-106513333D01*
X163282857Y-106608571D01*
X163282857Y-106703809D01*
X163759047Y-106799047D01*
X163425714Y-106084761D02*
X163568571Y-106227619D01*
X173759047Y-104592380D02*
X173759047Y-103592380D01*
X173425714Y-104306666D01*
X173092381Y-103592380D01*
X173092381Y-104592380D01*
X172187619Y-104592380D02*
X172187619Y-104068571D01*
X172235238Y-103973333D01*
X172330476Y-103925714D01*
X172520952Y-103925714D01*
X172616190Y-103973333D01*
X172187619Y-104544761D02*
X172282857Y-104592380D01*
X172520952Y-104592380D01*
X172616190Y-104544761D01*
X172663809Y-104449523D01*
X172663809Y-104354285D01*
X172616190Y-104259047D01*
X172520952Y-104211428D01*
X172282857Y-104211428D01*
X172187619Y-104163809D01*
X171711428Y-104592380D02*
X171711428Y-103925714D01*
X171711428Y-104116190D02*
X171663809Y-104020952D01*
X171616190Y-103973333D01*
X171520952Y-103925714D01*
X171425714Y-103925714D01*
X171235238Y-103925714D02*
X170854286Y-103925714D01*
X171092381Y-103592380D02*
X171092381Y-104449523D01*
X171044762Y-104544761D01*
X170949524Y-104592380D01*
X170854286Y-104592380D01*
X170520952Y-104592380D02*
X170520952Y-103925714D01*
X170520952Y-103592380D02*
X170568571Y-103640000D01*
X170520952Y-103687619D01*
X170473333Y-103640000D01*
X170520952Y-103592380D01*
X170520952Y-103687619D01*
X170044762Y-103925714D02*
X170044762Y-104592380D01*
X170044762Y-104020952D02*
X169997143Y-103973333D01*
X169901905Y-103925714D01*
X169759047Y-103925714D01*
X169663809Y-103973333D01*
X169616190Y-104068571D01*
X169616190Y-104592380D01*
X168759047Y-104544761D02*
X168854286Y-104592380D01*
X169044762Y-104592380D01*
X169140000Y-104544761D01*
X169187619Y-104449523D01*
X169187619Y-104068571D01*
X169140000Y-103973333D01*
X169044762Y-103925714D01*
X168854286Y-103925714D01*
X168759047Y-103973333D01*
X168711428Y-104068571D01*
X168711428Y-104163809D01*
X169187619Y-104259047D01*
X168378095Y-103925714D02*
X167854286Y-103925714D01*
X168378095Y-104592380D01*
X167854286Y-104592380D01*
X166759047Y-104544761D02*
X166616190Y-104592380D01*
X166378095Y-104592380D01*
X166282857Y-104544761D01*
X166235238Y-104497142D01*
X166187619Y-104401904D01*
X166187619Y-104306666D01*
X166235238Y-104211428D01*
X166282857Y-104163809D01*
X166378095Y-104116190D01*
X166568571Y-104068571D01*
X166663809Y-104020952D01*
X166711428Y-103973333D01*
X166759047Y-103878095D01*
X166759047Y-103782857D01*
X166711428Y-103687619D01*
X166663809Y-103640000D01*
X166568571Y-103592380D01*
X166330476Y-103592380D01*
X166187619Y-103640000D01*
X165378095Y-104544761D02*
X165473333Y-104592380D01*
X165663809Y-104592380D01*
X165759047Y-104544761D01*
X165806666Y-104449523D01*
X165806666Y-104068571D01*
X165759047Y-103973333D01*
X165663809Y-103925714D01*
X165473333Y-103925714D01*
X165378095Y-103973333D01*
X165330476Y-104068571D01*
X165330476Y-104163809D01*
X165806666Y-104259047D01*
X165473333Y-103544761D02*
X165616190Y-103687619D01*
X164901905Y-104592380D02*
X164901905Y-103592380D01*
X164901905Y-103973333D02*
X164806666Y-103925714D01*
X164616190Y-103925714D01*
X164520952Y-103973333D01*
X164473333Y-104020952D01*
X164425714Y-104116190D01*
X164425714Y-104401904D01*
X164473333Y-104497142D01*
X164520952Y-104544761D01*
X164616190Y-104592380D01*
X164806666Y-104592380D01*
X164901905Y-104544761D01*
X163568571Y-104592380D02*
X163568571Y-104068571D01*
X163616190Y-103973333D01*
X163711428Y-103925714D01*
X163901905Y-103925714D01*
X163997143Y-103973333D01*
X163568571Y-104544761D02*
X163663809Y-104592380D01*
X163901905Y-104592380D01*
X163997143Y-104544761D01*
X164044762Y-104449523D01*
X164044762Y-104354285D01*
X163997143Y-104259047D01*
X163901905Y-104211428D01*
X163663809Y-104211428D01*
X163568571Y-104163809D01*
X163140000Y-104544761D02*
X163044762Y-104592380D01*
X162854286Y-104592380D01*
X162759047Y-104544761D01*
X162711428Y-104449523D01*
X162711428Y-104401904D01*
X162759047Y-104306666D01*
X162854286Y-104259047D01*
X162997143Y-104259047D01*
X163092381Y-104211428D01*
X163140000Y-104116190D01*
X163140000Y-104068571D01*
X163092381Y-103973333D01*
X162997143Y-103925714D01*
X162854286Y-103925714D01*
X162759047Y-103973333D01*
X162425714Y-103925714D02*
X162044762Y-103925714D01*
X162282857Y-103592380D02*
X162282857Y-104449523D01*
X162235238Y-104544761D01*
X162140000Y-104592380D01*
X162044762Y-104592380D01*
X161711428Y-104592380D02*
X161711428Y-103925714D01*
X161711428Y-103592380D02*
X161759047Y-103640000D01*
X161711428Y-103687619D01*
X161663809Y-103640000D01*
X161711428Y-103592380D01*
X161711428Y-103687619D01*
X160854286Y-104544761D02*
X160949524Y-104592380D01*
X161140000Y-104592380D01*
X161235238Y-104544761D01*
X161282857Y-104449523D01*
X161282857Y-104068571D01*
X161235238Y-103973333D01*
X161140000Y-103925714D01*
X160949524Y-103925714D01*
X160854286Y-103973333D01*
X160806666Y-104068571D01*
X160806666Y-104163809D01*
X161282857Y-104259047D01*
X160378095Y-103925714D02*
X160378095Y-104592380D01*
X160378095Y-104020952D02*
X160330476Y-103973333D01*
X160235238Y-103925714D01*
X160092381Y-103925714D01*
X159997143Y-103973333D01*
X159949524Y-104068571D01*
X159949524Y-104592380D01*
X173473333Y-101052380D02*
X173473333Y-101766666D01*
X173520952Y-101909523D01*
X173616190Y-102004761D01*
X173759047Y-102052380D01*
X173854285Y-102052380D01*
X172568571Y-102052380D02*
X172568571Y-101528571D01*
X172616190Y-101433333D01*
X172711428Y-101385714D01*
X172901904Y-101385714D01*
X172997142Y-101433333D01*
X172568571Y-102004761D02*
X172663809Y-102052380D01*
X172901904Y-102052380D01*
X172997142Y-102004761D01*
X173044761Y-101909523D01*
X173044761Y-101814285D01*
X172997142Y-101719047D01*
X172901904Y-101671428D01*
X172663809Y-101671428D01*
X172568571Y-101623809D01*
X172092381Y-101385714D02*
X172092381Y-102052380D01*
X172092381Y-101480952D02*
X172044761Y-101433333D01*
X171949523Y-101385714D01*
X171806666Y-101385714D01*
X171711428Y-101433333D01*
X171663809Y-101528571D01*
X171663809Y-102052380D01*
X171235238Y-102004761D02*
X171140000Y-102052380D01*
X170949523Y-102052380D01*
X170854285Y-102004761D01*
X170806666Y-101909523D01*
X170806666Y-101861904D01*
X170854285Y-101766666D01*
X170949523Y-101719047D01*
X171092381Y-101719047D01*
X171187619Y-101671428D01*
X171235238Y-101576190D01*
X171235238Y-101528571D01*
X171187619Y-101433333D01*
X171092381Y-101385714D01*
X170949523Y-101385714D01*
X170854285Y-101433333D01*
X170425714Y-102004761D02*
X170330476Y-102052380D01*
X170140000Y-102052380D01*
X170044761Y-102004761D01*
X169997142Y-101909523D01*
X169997142Y-101861904D01*
X170044761Y-101766666D01*
X170140000Y-101719047D01*
X170282857Y-101719047D01*
X170378095Y-101671428D01*
X170425714Y-101576190D01*
X170425714Y-101528571D01*
X170378095Y-101433333D01*
X170282857Y-101385714D01*
X170140000Y-101385714D01*
X170044761Y-101433333D01*
X169187619Y-102004761D02*
X169282857Y-102052380D01*
X169473333Y-102052380D01*
X169568571Y-102004761D01*
X169616190Y-101909523D01*
X169616190Y-101528571D01*
X169568571Y-101433333D01*
X169473333Y-101385714D01*
X169282857Y-101385714D01*
X169187619Y-101433333D01*
X169140000Y-101528571D01*
X169140000Y-101623809D01*
X169616190Y-101719047D01*
X168711428Y-101385714D02*
X168711428Y-102052380D01*
X168711428Y-101480952D02*
X168663809Y-101433333D01*
X168568571Y-101385714D01*
X168425714Y-101385714D01*
X168330476Y-101433333D01*
X168282857Y-101528571D01*
X168282857Y-102052380D01*
X167854285Y-102004761D02*
X167759047Y-102052380D01*
X167568571Y-102052380D01*
X167473333Y-102004761D01*
X167425714Y-101909523D01*
X167425714Y-101861904D01*
X167473333Y-101766666D01*
X167568571Y-101719047D01*
X167711428Y-101719047D01*
X167806666Y-101671428D01*
X167854285Y-101576190D01*
X167854285Y-101528571D01*
X167806666Y-101433333D01*
X167711428Y-101385714D01*
X167568571Y-101385714D01*
X167473333Y-101433333D01*
X166378095Y-101052380D02*
X166044761Y-102052380D01*
X165711428Y-101052380D01*
X165378095Y-102052380D02*
X165378095Y-101385714D01*
X165378095Y-101052380D02*
X165425714Y-101100000D01*
X165378095Y-101147619D01*
X165330476Y-101100000D01*
X165378095Y-101052380D01*
X165378095Y-101147619D01*
X164473333Y-102004761D02*
X164568571Y-102052380D01*
X164759047Y-102052380D01*
X164854285Y-102004761D01*
X164901904Y-101957142D01*
X164949523Y-101861904D01*
X164949523Y-101576190D01*
X164901904Y-101480952D01*
X164854285Y-101433333D01*
X164759047Y-101385714D01*
X164568571Y-101385714D01*
X164473333Y-101433333D01*
X164187619Y-101385714D02*
X163806666Y-101385714D01*
X164044761Y-101052380D02*
X164044761Y-101909523D01*
X163997142Y-102004761D01*
X163901904Y-102052380D01*
X163806666Y-102052380D01*
X163330476Y-102052380D02*
X163425714Y-102004761D01*
X163473333Y-101957142D01*
X163520952Y-101861904D01*
X163520952Y-101576190D01*
X163473333Y-101480952D01*
X163425714Y-101433333D01*
X163330476Y-101385714D01*
X163187619Y-101385714D01*
X163092381Y-101433333D01*
X163044761Y-101480952D01*
X162997142Y-101576190D01*
X162997142Y-101861904D01*
X163044761Y-101957142D01*
X163092381Y-102004761D01*
X163187619Y-102052380D01*
X163330476Y-102052380D01*
X162568571Y-102052380D02*
X162568571Y-101385714D01*
X162568571Y-101576190D02*
X162520952Y-101480952D01*
X162473333Y-101433333D01*
X162378095Y-101385714D01*
X162282857Y-101385714D01*
X173425714Y-98988571D02*
X173282857Y-99036190D01*
X173235238Y-99083809D01*
X173187619Y-99179047D01*
X173187619Y-99321904D01*
X173235238Y-99417142D01*
X173282857Y-99464761D01*
X173378095Y-99512380D01*
X173759047Y-99512380D01*
X173759047Y-98512380D01*
X173425714Y-98512380D01*
X173330476Y-98560000D01*
X173282857Y-98607619D01*
X173235238Y-98702857D01*
X173235238Y-98798095D01*
X173282857Y-98893333D01*
X173330476Y-98940952D01*
X173425714Y-98988571D01*
X173759047Y-98988571D01*
X172330476Y-99512380D02*
X172330476Y-98988571D01*
X172378095Y-98893333D01*
X172473333Y-98845714D01*
X172663809Y-98845714D01*
X172759047Y-98893333D01*
X172330476Y-99464761D02*
X172425714Y-99512380D01*
X172663809Y-99512380D01*
X172759047Y-99464761D01*
X172806666Y-99369523D01*
X172806666Y-99274285D01*
X172759047Y-99179047D01*
X172663809Y-99131428D01*
X172425714Y-99131428D01*
X172330476Y-99083809D01*
X171425714Y-98845714D02*
X171425714Y-99512380D01*
X171854285Y-98845714D02*
X171854285Y-99369523D01*
X171806666Y-99464761D01*
X171711428Y-99512380D01*
X171568571Y-99512380D01*
X171473333Y-99464761D01*
X171425714Y-99417142D01*
X170520952Y-99512380D02*
X170520952Y-98512380D01*
X170520952Y-99464761D02*
X170616190Y-99512380D01*
X170806666Y-99512380D01*
X170901904Y-99464761D01*
X170949523Y-99417142D01*
X170997142Y-99321904D01*
X170997142Y-99036190D01*
X170949523Y-98940952D01*
X170901904Y-98893333D01*
X170806666Y-98845714D01*
X170616190Y-98845714D01*
X170520952Y-98893333D01*
X170044761Y-99512380D02*
X170044761Y-98845714D01*
X170044761Y-98512380D02*
X170092380Y-98560000D01*
X170044761Y-98607619D01*
X169997142Y-98560000D01*
X170044761Y-98512380D01*
X170044761Y-98607619D01*
X169568571Y-98845714D02*
X169568571Y-99512380D01*
X169568571Y-98940952D02*
X169520952Y-98893333D01*
X169425714Y-98845714D01*
X169282857Y-98845714D01*
X169187619Y-98893333D01*
X169140000Y-98988571D01*
X169140000Y-99512380D01*
X167949523Y-99464761D02*
X167806666Y-99512380D01*
X167568571Y-99512380D01*
X167473333Y-99464761D01*
X167425714Y-99417142D01*
X167378095Y-99321904D01*
X167378095Y-99226666D01*
X167425714Y-99131428D01*
X167473333Y-99083809D01*
X167568571Y-99036190D01*
X167759047Y-98988571D01*
X167854285Y-98940952D01*
X167901904Y-98893333D01*
X167949523Y-98798095D01*
X167949523Y-98702857D01*
X167901904Y-98607619D01*
X167854285Y-98560000D01*
X167759047Y-98512380D01*
X167520952Y-98512380D01*
X167378095Y-98560000D01*
X167092380Y-98845714D02*
X166711428Y-98845714D01*
X166949523Y-98512380D02*
X166949523Y-99369523D01*
X166901904Y-99464761D01*
X166806666Y-99512380D01*
X166711428Y-99512380D01*
X165949523Y-99512380D02*
X165949523Y-98988571D01*
X165997142Y-98893333D01*
X166092380Y-98845714D01*
X166282857Y-98845714D01*
X166378095Y-98893333D01*
X165949523Y-99464761D02*
X166044761Y-99512380D01*
X166282857Y-99512380D01*
X166378095Y-99464761D01*
X166425714Y-99369523D01*
X166425714Y-99274285D01*
X166378095Y-99179047D01*
X166282857Y-99131428D01*
X166044761Y-99131428D01*
X165949523Y-99083809D01*
X165473333Y-98845714D02*
X165473333Y-99512380D01*
X165473333Y-98940952D02*
X165425714Y-98893333D01*
X165330476Y-98845714D01*
X165187619Y-98845714D01*
X165092380Y-98893333D01*
X165044761Y-98988571D01*
X165044761Y-99512380D01*
X164568571Y-99512380D02*
X164568571Y-98845714D01*
X164568571Y-98512380D02*
X164616190Y-98560000D01*
X164568571Y-98607619D01*
X164520952Y-98560000D01*
X164568571Y-98512380D01*
X164568571Y-98607619D01*
X164140000Y-99464761D02*
X164044761Y-99512380D01*
X163854285Y-99512380D01*
X163759047Y-99464761D01*
X163711428Y-99369523D01*
X163711428Y-99321904D01*
X163759047Y-99226666D01*
X163854285Y-99179047D01*
X163997142Y-99179047D01*
X164092380Y-99131428D01*
X164140000Y-99036190D01*
X164140000Y-98988571D01*
X164092380Y-98893333D01*
X163997142Y-98845714D01*
X163854285Y-98845714D01*
X163759047Y-98893333D01*
X163140000Y-99512380D02*
X163235238Y-99464761D01*
X163282857Y-99369523D01*
X163282857Y-98512380D01*
X162330476Y-99512380D02*
X162330476Y-98988571D01*
X162378095Y-98893333D01*
X162473333Y-98845714D01*
X162663809Y-98845714D01*
X162759047Y-98893333D01*
X162330476Y-99464761D02*
X162425714Y-99512380D01*
X162663809Y-99512380D01*
X162759047Y-99464761D01*
X162806666Y-99369523D01*
X162806666Y-99274285D01*
X162759047Y-99179047D01*
X162663809Y-99131428D01*
X162425714Y-99131428D01*
X162330476Y-99083809D01*
X161901904Y-99464761D02*
X161806666Y-99512380D01*
X161616190Y-99512380D01*
X161520952Y-99464761D01*
X161473333Y-99369523D01*
X161473333Y-99321904D01*
X161520952Y-99226666D01*
X161616190Y-99179047D01*
X161759047Y-99179047D01*
X161854285Y-99131428D01*
X161901904Y-99036190D01*
X161901904Y-98988571D01*
X161854285Y-98893333D01*
X161759047Y-98845714D01*
X161616190Y-98845714D01*
X161520952Y-98893333D01*
M02*
