M48
; DRILL file {KiCad (6.0.2)} date Fri Feb 25 10:46:30 2022
; FORMAT={-:-/ absolute / inch / decimal}
; #@! TF.CreationDate,2022-02-25T10:46:30+01:00
; #@! TF.GenerationSoftware,Kicad,Pcbnew,(6.0.2)
; #@! TF.FileFunction,Plated,1,2,PTH
FMAT,2
INCH
; #@! TA.AperFunction,Plated,PTH,ViaDrill
T1C0.0157
; #@! TA.AperFunction,Plated,PTH,ComponentDrill
T2C0.0157
; #@! TA.AperFunction,Plated,PTH,ComponentDrill
T3C0.0300
; #@! TA.AperFunction,Plated,PTH,ComponentDrill
T4C0.0315
; #@! TA.AperFunction,Plated,PTH,ComponentDrill
T5C0.0374
; #@! TA.AperFunction,Plated,PTH,ComponentDrill
T6C0.0394
; #@! TA.AperFunction,Plated,PTH,ComponentDrill
T7C0.0433
; #@! TA.AperFunction,Plated,PTH,ComponentDrill
T8C0.0472
; #@! TA.AperFunction,Plated,PTH,ComponentDrill
T9C0.0591
; #@! TA.AperFunction,Plated,PTH,ComponentDrill
T10C0.0630
; #@! TA.AperFunction,Plated,PTH,ComponentDrill
T11C0.1063
%
G90
G05
T1
X6.4Y-5.1
T2
X7.1539Y-2.8898
X7.1539Y-2.9528
X7.1539Y-2.9843
X7.1539Y-3.0157
X7.1539Y-3.0472
X7.1539Y-3.1102
X7.1815Y-2.9055
X7.1815Y-2.937
X7.1815Y-2.9685
X7.1815Y-3.0315
X7.1815Y-3.063
X7.1815Y-3.0945
T3
X6.0Y-2.4
X6.2Y-2.4
X6.5037Y-2.3963
X6.7037Y-2.3963
X7.4037Y-2.4
X7.4037Y-2.6
T4
X5.2Y-2.5
X5.2Y-3.5
X5.2Y-4.6
X5.2984Y-2.5
X5.2984Y-3.5
X5.2984Y-4.6
X5.8Y-2.9
X5.8Y-3.2
X5.8Y-3.2984
X6.2Y-2.9
X7.1Y-2.3
X7.1Y-2.7
T5
X4.7Y-2.6524
X4.7Y-2.7508
X4.7Y-2.8492
X4.7Y-2.9476
X4.7Y-3.6524
X4.7Y-3.7508
X4.7Y-3.8492
X4.7Y-3.9476
X4.7Y-4.7
X4.7Y-4.7984
X4.7Y-4.8969
X4.7Y-4.9953
X7.4Y-3.4016
X7.4Y-3.5
X7.4Y-3.5984
X7.4Y-3.9031
X7.4Y-4.0016
X7.4Y-4.1
X7.4Y-4.4031
X7.4Y-4.5016
X7.4Y-4.6
T6
X5.001Y-2.4506
X5.001Y-2.5506
X5.001Y-2.6506
X5.001Y-2.7506
X5.001Y-2.8506
X5.001Y-2.9506
X5.001Y-3.0506
X5.001Y-3.1506
X5.001Y-3.4506
X5.001Y-3.5506
X5.001Y-3.6506
X5.001Y-3.7506
X5.001Y-3.8506
X5.001Y-3.9506
X5.001Y-4.0506
X5.001Y-4.1506
X5.001Y-4.5
X5.001Y-4.6
X5.001Y-4.7
X5.001Y-4.8
X5.001Y-4.9
X5.001Y-5.0
X5.001Y-5.1
X5.001Y-5.2
X5.501Y-2.4506
X5.501Y-2.5506
X5.501Y-2.6506
X5.501Y-2.7506
X5.501Y-2.8506
X5.501Y-2.9506
X5.501Y-3.0506
X5.501Y-3.1506
X5.501Y-3.4506
X5.501Y-3.5506
X5.501Y-3.6506
X5.501Y-3.7506
X5.501Y-3.8506
X5.501Y-3.9506
X5.501Y-4.0506
X5.501Y-4.1506
X5.501Y-4.5
X5.501Y-4.6
X5.501Y-4.7
X5.501Y-4.8
X5.501Y-4.9
X5.501Y-5.0
X5.501Y-5.1
X5.501Y-5.2
X5.6819Y-4.9
X5.7819Y-4.9
X5.8819Y-4.9
X5.9819Y-4.9
X6.0819Y-4.9
X6.1819Y-4.9
X6.2819Y-4.9
X6.3819Y-4.9
X6.4819Y-4.9
X6.5819Y-4.9
X6.7Y-4.9
X6.8Y-4.9
X6.9Y-4.9
X7.0Y-4.9
X7.1Y-4.9
X7.2Y-4.9
X7.3Y-4.9
X7.4Y-4.9
T7
X5.8Y-2.7
X6.1Y-3.2
X6.1669Y-3.2
X6.2Y-2.7
X6.2339Y-3.2
X6.3008Y-3.2
X6.3677Y-3.2
X6.8Y-2.8
X6.8Y-2.9
X6.8Y-3.0
X7.1776Y-2.8374
X7.1776Y-3.1626
X7.4118Y-2.8232
X7.4118Y-3.1768
T8
X5.9Y-4.4
X5.9Y-4.5969
T9
X6.7Y-3.7354
X6.7Y-4.6606
T10
X6.1Y-3.5
X6.7Y-3.5
T11
X5.2Y-3.0
X5.2Y-4.0
X5.2Y-5.1
X5.7Y-4.0
T0
M30
