%TF.GenerationSoftware,KiCad,Pcbnew,(6.0.2)*%
%TF.CreationDate,2022-02-25T10:45:33+01:00*%
%TF.ProjectId,CNC_interface,434e435f-696e-4746-9572-666163652e6b,rev?*%
%TF.SameCoordinates,Original*%
%TF.FileFunction,Legend,Top*%
%TF.FilePolarity,Positive*%
%FSLAX46Y46*%
G04 Gerber Fmt 4.6, Leading zero omitted, Abs format (unit mm)*
G04 Created by KiCad (PCBNEW (6.0.2)) date 2022-02-25 10:45:33*
%MOMM*%
%LPD*%
G01*
G04 APERTURE LIST*
%ADD10C,0.150000*%
%ADD11C,0.120000*%
G04 APERTURE END LIST*
D10*
X169799047Y-66111428D02*
X170560952Y-66111428D01*
X116332380Y-63285714D02*
X116856190Y-63285714D01*
X116332380Y-63952380D01*
X116856190Y-63952380D01*
X117237142Y-63571428D02*
X117999047Y-63571428D01*
X118475238Y-63952380D02*
X118475238Y-63285714D01*
X118475238Y-63380952D02*
X118522857Y-63333333D01*
X118618095Y-63285714D01*
X118760952Y-63285714D01*
X118856190Y-63333333D01*
X118903809Y-63428571D01*
X118903809Y-63952380D01*
X118903809Y-63428571D02*
X118951428Y-63333333D01*
X119046666Y-63285714D01*
X119189523Y-63285714D01*
X119284761Y-63333333D01*
X119332380Y-63428571D01*
X119332380Y-63952380D01*
X119951428Y-63952380D02*
X119856190Y-63904761D01*
X119808571Y-63857142D01*
X119760952Y-63761904D01*
X119760952Y-63476190D01*
X119808571Y-63380952D01*
X119856190Y-63333333D01*
X119951428Y-63285714D01*
X120094285Y-63285714D01*
X120189523Y-63333333D01*
X120237142Y-63380952D01*
X120284761Y-63476190D01*
X120284761Y-63761904D01*
X120237142Y-63857142D01*
X120189523Y-63904761D01*
X120094285Y-63952380D01*
X119951428Y-63952380D01*
X120570476Y-63285714D02*
X120951428Y-63285714D01*
X120713333Y-62952380D02*
X120713333Y-63809523D01*
X120760952Y-63904761D01*
X120856190Y-63952380D01*
X120951428Y-63952380D01*
X121427619Y-63952380D02*
X121332380Y-63904761D01*
X121284761Y-63857142D01*
X121237142Y-63761904D01*
X121237142Y-63476190D01*
X121284761Y-63380952D01*
X121332380Y-63333333D01*
X121427619Y-63285714D01*
X121570476Y-63285714D01*
X121665714Y-63333333D01*
X121713333Y-63380952D01*
X121760952Y-63476190D01*
X121760952Y-63761904D01*
X121713333Y-63857142D01*
X121665714Y-63904761D01*
X121570476Y-63952380D01*
X121427619Y-63952380D01*
X122189523Y-63952380D02*
X122189523Y-63285714D01*
X122189523Y-63476190D02*
X122237142Y-63380952D01*
X122284761Y-63333333D01*
X122380000Y-63285714D01*
X122475238Y-63285714D01*
X151019047Y-66492380D02*
X151019047Y-65492380D01*
X151257142Y-65492380D01*
X151400000Y-65540000D01*
X151495238Y-65635238D01*
X151542857Y-65730476D01*
X151590476Y-65920952D01*
X151590476Y-66063809D01*
X151542857Y-66254285D01*
X151495238Y-66349523D01*
X151400000Y-66444761D01*
X151257142Y-66492380D01*
X151019047Y-66492380D01*
X152590476Y-66397142D02*
X152542857Y-66444761D01*
X152400000Y-66492380D01*
X152304761Y-66492380D01*
X152161904Y-66444761D01*
X152066666Y-66349523D01*
X152019047Y-66254285D01*
X151971428Y-66063809D01*
X151971428Y-65920952D01*
X152019047Y-65730476D01*
X152066666Y-65635238D01*
X152161904Y-65540000D01*
X152304761Y-65492380D01*
X152400000Y-65492380D01*
X152542857Y-65540000D01*
X152590476Y-65587619D01*
X153019047Y-66111428D02*
X153780952Y-66111428D01*
X183237142Y-67159047D02*
X183284761Y-67206666D01*
X183332380Y-67349523D01*
X183332380Y-67444761D01*
X183284761Y-67587619D01*
X183189523Y-67682857D01*
X183094285Y-67730476D01*
X182903809Y-67778095D01*
X182760952Y-67778095D01*
X182570476Y-67730476D01*
X182475238Y-67682857D01*
X182380000Y-67587619D01*
X182332380Y-67444761D01*
X182332380Y-67349523D01*
X182380000Y-67206666D01*
X182427619Y-67159047D01*
X182332380Y-66540000D02*
X182332380Y-66349523D01*
X182380000Y-66254285D01*
X182475238Y-66159047D01*
X182665714Y-66111428D01*
X182999047Y-66111428D01*
X183189523Y-66159047D01*
X183284761Y-66254285D01*
X183332380Y-66349523D01*
X183332380Y-66540000D01*
X183284761Y-66635238D01*
X183189523Y-66730476D01*
X182999047Y-66778095D01*
X182665714Y-66778095D01*
X182475238Y-66730476D01*
X182380000Y-66635238D01*
X182332380Y-66540000D01*
X183332380Y-65682857D02*
X182332380Y-65682857D01*
X183332380Y-65111428D01*
X182332380Y-65111428D01*
X182332380Y-64778095D02*
X182332380Y-64206666D01*
X183332380Y-64492380D02*
X182332380Y-64492380D01*
X182665714Y-103623809D02*
X183332380Y-103385714D01*
X182665714Y-103147619D02*
X183332380Y-103385714D01*
X183570476Y-103480952D01*
X183618095Y-103528571D01*
X183665714Y-103623809D01*
X182951428Y-102766666D02*
X182951428Y-102004761D01*
X183332380Y-101385714D02*
X183284761Y-101480952D01*
X183189523Y-101528571D01*
X182332380Y-101528571D01*
X183332380Y-101004761D02*
X182665714Y-101004761D01*
X182332380Y-101004761D02*
X182380000Y-101052380D01*
X182427619Y-101004761D01*
X182380000Y-100957142D01*
X182332380Y-101004761D01*
X182427619Y-101004761D01*
X183332380Y-100528571D02*
X182665714Y-100528571D01*
X182760952Y-100528571D02*
X182713333Y-100480952D01*
X182665714Y-100385714D01*
X182665714Y-100242857D01*
X182713333Y-100147619D01*
X182808571Y-100100000D01*
X183332380Y-100100000D01*
X182808571Y-100100000D02*
X182713333Y-100052380D01*
X182665714Y-99957142D01*
X182665714Y-99814285D01*
X182713333Y-99719047D01*
X182808571Y-99671428D01*
X183332380Y-99671428D01*
X182665714Y-116347619D02*
X182665714Y-115823809D01*
X183332380Y-116347619D01*
X183332380Y-115823809D01*
X182951428Y-115442857D02*
X182951428Y-114680952D01*
X183332380Y-114061904D02*
X183284761Y-114157142D01*
X183189523Y-114204761D01*
X182332380Y-114204761D01*
X183332380Y-113680952D02*
X182665714Y-113680952D01*
X182332380Y-113680952D02*
X182380000Y-113728571D01*
X182427619Y-113680952D01*
X182380000Y-113633333D01*
X182332380Y-113680952D01*
X182427619Y-113680952D01*
X183332380Y-113204761D02*
X182665714Y-113204761D01*
X182760952Y-113204761D02*
X182713333Y-113157142D01*
X182665714Y-113061904D01*
X182665714Y-112919047D01*
X182713333Y-112823809D01*
X182808571Y-112776190D01*
X183332380Y-112776190D01*
X182808571Y-112776190D02*
X182713333Y-112728571D01*
X182665714Y-112633333D01*
X182665714Y-112490476D01*
X182713333Y-112395238D01*
X182808571Y-112347619D01*
X183332380Y-112347619D01*
X183332380Y-90947619D02*
X182665714Y-90423809D01*
X182665714Y-90947619D02*
X183332380Y-90423809D01*
X182951428Y-90042857D02*
X182951428Y-89280952D01*
X183332380Y-88661904D02*
X183284761Y-88757142D01*
X183189523Y-88804761D01*
X182332380Y-88804761D01*
X183332380Y-88280952D02*
X182665714Y-88280952D01*
X182332380Y-88280952D02*
X182380000Y-88328571D01*
X182427619Y-88280952D01*
X182380000Y-88233333D01*
X182332380Y-88280952D01*
X182427619Y-88280952D01*
X183332380Y-87804761D02*
X182665714Y-87804761D01*
X182760952Y-87804761D02*
X182713333Y-87757142D01*
X182665714Y-87661904D01*
X182665714Y-87519047D01*
X182713333Y-87423809D01*
X182808571Y-87376190D01*
X183332380Y-87376190D01*
X182808571Y-87376190D02*
X182713333Y-87328571D01*
X182665714Y-87233333D01*
X182665714Y-87090476D01*
X182713333Y-86995238D01*
X182808571Y-86947619D01*
X183332380Y-86947619D01*
X116356190Y-88685714D02*
X116594285Y-89352380D01*
X116832380Y-88685714D02*
X116594285Y-89352380D01*
X116499047Y-89590476D01*
X116451428Y-89638095D01*
X116356190Y-89685714D01*
X117213333Y-88971428D02*
X117975238Y-88971428D01*
X118451428Y-89352380D02*
X118451428Y-88685714D01*
X118451428Y-88780952D02*
X118499047Y-88733333D01*
X118594285Y-88685714D01*
X118737142Y-88685714D01*
X118832380Y-88733333D01*
X118880000Y-88828571D01*
X118880000Y-89352380D01*
X118880000Y-88828571D02*
X118927619Y-88733333D01*
X119022857Y-88685714D01*
X119165714Y-88685714D01*
X119260952Y-88733333D01*
X119308571Y-88828571D01*
X119308571Y-89352380D01*
X119927619Y-89352380D02*
X119832380Y-89304761D01*
X119784761Y-89257142D01*
X119737142Y-89161904D01*
X119737142Y-88876190D01*
X119784761Y-88780952D01*
X119832380Y-88733333D01*
X119927619Y-88685714D01*
X120070476Y-88685714D01*
X120165714Y-88733333D01*
X120213333Y-88780952D01*
X120260952Y-88876190D01*
X120260952Y-89161904D01*
X120213333Y-89257142D01*
X120165714Y-89304761D01*
X120070476Y-89352380D01*
X119927619Y-89352380D01*
X120546666Y-88685714D02*
X120927619Y-88685714D01*
X120689523Y-88352380D02*
X120689523Y-89209523D01*
X120737142Y-89304761D01*
X120832380Y-89352380D01*
X120927619Y-89352380D01*
X121403809Y-89352380D02*
X121308571Y-89304761D01*
X121260952Y-89257142D01*
X121213333Y-89161904D01*
X121213333Y-88876190D01*
X121260952Y-88780952D01*
X121308571Y-88733333D01*
X121403809Y-88685714D01*
X121546666Y-88685714D01*
X121641904Y-88733333D01*
X121689523Y-88780952D01*
X121737142Y-88876190D01*
X121737142Y-89161904D01*
X121689523Y-89257142D01*
X121641904Y-89304761D01*
X121546666Y-89352380D01*
X121403809Y-89352380D01*
X122165714Y-89352380D02*
X122165714Y-88685714D01*
X122165714Y-88876190D02*
X122213333Y-88780952D01*
X122260952Y-88733333D01*
X122356190Y-88685714D01*
X122451428Y-88685714D01*
X156099047Y-66492380D02*
X156099047Y-65492380D01*
X156337142Y-65492380D01*
X156480000Y-65540000D01*
X156575238Y-65635238D01*
X156622857Y-65730476D01*
X156670476Y-65920952D01*
X156670476Y-66063809D01*
X156622857Y-66254285D01*
X156575238Y-66349523D01*
X156480000Y-66444761D01*
X156337142Y-66492380D01*
X156099047Y-66492380D01*
X157670476Y-66397142D02*
X157622857Y-66444761D01*
X157480000Y-66492380D01*
X157384761Y-66492380D01*
X157241904Y-66444761D01*
X157146666Y-66349523D01*
X157099047Y-66254285D01*
X157051428Y-66063809D01*
X157051428Y-65920952D01*
X157099047Y-65730476D01*
X157146666Y-65635238D01*
X157241904Y-65540000D01*
X157384761Y-65492380D01*
X157480000Y-65492380D01*
X157622857Y-65540000D01*
X157670476Y-65587619D01*
X158099047Y-66111428D02*
X158860952Y-66111428D01*
X158480000Y-66492380D02*
X158480000Y-65730476D01*
X167020952Y-66492380D02*
X166449523Y-66492380D01*
X166735238Y-66492380D02*
X166735238Y-65492380D01*
X166640000Y-65635238D01*
X166544761Y-65730476D01*
X166449523Y-65778095D01*
X167401904Y-65587619D02*
X167449523Y-65540000D01*
X167544761Y-65492380D01*
X167782857Y-65492380D01*
X167878095Y-65540000D01*
X167925714Y-65587619D01*
X167973333Y-65682857D01*
X167973333Y-65778095D01*
X167925714Y-65920952D01*
X167354285Y-66492380D01*
X167973333Y-66492380D01*
X168259047Y-65492380D02*
X168592380Y-66492380D01*
X168925714Y-65492380D01*
X182332380Y-61150476D02*
X182332380Y-61626666D01*
X182808571Y-61674285D01*
X182760952Y-61626666D01*
X182713333Y-61531428D01*
X182713333Y-61293333D01*
X182760952Y-61198095D01*
X182808571Y-61150476D01*
X182903809Y-61102857D01*
X183141904Y-61102857D01*
X183237142Y-61150476D01*
X183284761Y-61198095D01*
X183332380Y-61293333D01*
X183332380Y-61531428D01*
X183284761Y-61626666D01*
X183237142Y-61674285D01*
X182332380Y-60817142D02*
X183332380Y-60483809D01*
X182332380Y-60150476D01*
X164719047Y-66111428D02*
X165480952Y-66111428D01*
X165100000Y-66492380D02*
X165100000Y-65730476D01*
X116332380Y-114752380D02*
X116856190Y-114085714D01*
X116332380Y-114085714D02*
X116856190Y-114752380D01*
X117237142Y-114371428D02*
X117999047Y-114371428D01*
X118475238Y-114752380D02*
X118475238Y-114085714D01*
X118475238Y-114180952D02*
X118522857Y-114133333D01*
X118618095Y-114085714D01*
X118760952Y-114085714D01*
X118856190Y-114133333D01*
X118903809Y-114228571D01*
X118903809Y-114752380D01*
X118903809Y-114228571D02*
X118951428Y-114133333D01*
X119046666Y-114085714D01*
X119189523Y-114085714D01*
X119284761Y-114133333D01*
X119332380Y-114228571D01*
X119332380Y-114752380D01*
X119951428Y-114752380D02*
X119856190Y-114704761D01*
X119808571Y-114657142D01*
X119760952Y-114561904D01*
X119760952Y-114276190D01*
X119808571Y-114180952D01*
X119856190Y-114133333D01*
X119951428Y-114085714D01*
X120094285Y-114085714D01*
X120189523Y-114133333D01*
X120237142Y-114180952D01*
X120284761Y-114276190D01*
X120284761Y-114561904D01*
X120237142Y-114657142D01*
X120189523Y-114704761D01*
X120094285Y-114752380D01*
X119951428Y-114752380D01*
X120570476Y-114085714D02*
X120951428Y-114085714D01*
X120713333Y-113752380D02*
X120713333Y-114609523D01*
X120760952Y-114704761D01*
X120856190Y-114752380D01*
X120951428Y-114752380D01*
X121427619Y-114752380D02*
X121332380Y-114704761D01*
X121284761Y-114657142D01*
X121237142Y-114561904D01*
X121237142Y-114276190D01*
X121284761Y-114180952D01*
X121332380Y-114133333D01*
X121427619Y-114085714D01*
X121570476Y-114085714D01*
X121665714Y-114133333D01*
X121713333Y-114180952D01*
X121760952Y-114276190D01*
X121760952Y-114561904D01*
X121713333Y-114657142D01*
X121665714Y-114704761D01*
X121570476Y-114752380D01*
X121427619Y-114752380D01*
X122189523Y-114752380D02*
X122189523Y-114085714D01*
X122189523Y-114276190D02*
X122237142Y-114180952D01*
X122284761Y-114133333D01*
X122380000Y-114085714D01*
X122475238Y-114085714D01*
%TO.C,2M2.5*%
X130032380Y-97797619D02*
X130080000Y-97750000D01*
X130175238Y-97702380D01*
X130413333Y-97702380D01*
X130508571Y-97750000D01*
X130556190Y-97797619D01*
X130603809Y-97892857D01*
X130603809Y-97988095D01*
X130556190Y-98130952D01*
X129984761Y-98702380D01*
X130603809Y-98702380D01*
X131032380Y-98702380D02*
X131032380Y-97702380D01*
X131365714Y-98416666D01*
X131699047Y-97702380D01*
X131699047Y-98702380D01*
X132127619Y-97797619D02*
X132175238Y-97750000D01*
X132270476Y-97702380D01*
X132508571Y-97702380D01*
X132603809Y-97750000D01*
X132651428Y-97797619D01*
X132699047Y-97892857D01*
X132699047Y-97988095D01*
X132651428Y-98130952D01*
X132080000Y-98702380D01*
X132699047Y-98702380D01*
X133127619Y-98607142D02*
X133175238Y-98654761D01*
X133127619Y-98702380D01*
X133080000Y-98654761D01*
X133127619Y-98607142D01*
X133127619Y-98702380D01*
X134080000Y-97702380D02*
X133603809Y-97702380D01*
X133556190Y-98178571D01*
X133603809Y-98130952D01*
X133699047Y-98083333D01*
X133937142Y-98083333D01*
X134032380Y-98130952D01*
X134080000Y-98178571D01*
X134127619Y-98273809D01*
X134127619Y-98511904D01*
X134080000Y-98607142D01*
X134032380Y-98654761D01*
X133937142Y-98702380D01*
X133699047Y-98702380D01*
X133603809Y-98654761D01*
X133556190Y-98607142D01*
%TO.C,1M2.5*%
X130603809Y-73302380D02*
X130032380Y-73302380D01*
X130318095Y-73302380D02*
X130318095Y-72302380D01*
X130222857Y-72445238D01*
X130127619Y-72540476D01*
X130032380Y-72588095D01*
X131032380Y-73302380D02*
X131032380Y-72302380D01*
X131365714Y-73016666D01*
X131699047Y-72302380D01*
X131699047Y-73302380D01*
X132127619Y-72397619D02*
X132175238Y-72350000D01*
X132270476Y-72302380D01*
X132508571Y-72302380D01*
X132603809Y-72350000D01*
X132651428Y-72397619D01*
X132699047Y-72492857D01*
X132699047Y-72588095D01*
X132651428Y-72730952D01*
X132080000Y-73302380D01*
X132699047Y-73302380D01*
X133127619Y-73207142D02*
X133175238Y-73254761D01*
X133127619Y-73302380D01*
X133080000Y-73254761D01*
X133127619Y-73207142D01*
X133127619Y-73302380D01*
X134080000Y-72302380D02*
X133603809Y-72302380D01*
X133556190Y-72778571D01*
X133603809Y-72730952D01*
X133699047Y-72683333D01*
X133937142Y-72683333D01*
X134032380Y-72730952D01*
X134080000Y-72778571D01*
X134127619Y-72873809D01*
X134127619Y-73111904D01*
X134080000Y-73207142D01*
X134032380Y-73254761D01*
X133937142Y-73302380D01*
X133699047Y-73302380D01*
X133603809Y-73254761D01*
X133556190Y-73207142D01*
%TO.C,3M2.5*%
X129984761Y-125642380D02*
X130603809Y-125642380D01*
X130270476Y-126023333D01*
X130413333Y-126023333D01*
X130508571Y-126070952D01*
X130556190Y-126118571D01*
X130603809Y-126213809D01*
X130603809Y-126451904D01*
X130556190Y-126547142D01*
X130508571Y-126594761D01*
X130413333Y-126642380D01*
X130127619Y-126642380D01*
X130032380Y-126594761D01*
X129984761Y-126547142D01*
X131032380Y-126642380D02*
X131032380Y-125642380D01*
X131365714Y-126356666D01*
X131699047Y-125642380D01*
X131699047Y-126642380D01*
X132127619Y-125737619D02*
X132175238Y-125690000D01*
X132270476Y-125642380D01*
X132508571Y-125642380D01*
X132603809Y-125690000D01*
X132651428Y-125737619D01*
X132699047Y-125832857D01*
X132699047Y-125928095D01*
X132651428Y-126070952D01*
X132080000Y-126642380D01*
X132699047Y-126642380D01*
X133127619Y-126547142D02*
X133175238Y-126594761D01*
X133127619Y-126642380D01*
X133080000Y-126594761D01*
X133127619Y-126547142D01*
X133127619Y-126642380D01*
X134080000Y-125642380D02*
X133603809Y-125642380D01*
X133556190Y-126118571D01*
X133603809Y-126070952D01*
X133699047Y-126023333D01*
X133937142Y-126023333D01*
X134032380Y-126070952D01*
X134080000Y-126118571D01*
X134127619Y-126213809D01*
X134127619Y-126451904D01*
X134080000Y-126547142D01*
X134032380Y-126594761D01*
X133937142Y-126642380D01*
X133699047Y-126642380D01*
X133603809Y-126594761D01*
X133556190Y-126547142D01*
%TO.C,4M2.5*%
X143208571Y-98035714D02*
X143208571Y-98702380D01*
X142970476Y-97654761D02*
X142732380Y-98369047D01*
X143351428Y-98369047D01*
X143732380Y-98702380D02*
X143732380Y-97702380D01*
X144065714Y-98416666D01*
X144399047Y-97702380D01*
X144399047Y-98702380D01*
X144827619Y-97797619D02*
X144875238Y-97750000D01*
X144970476Y-97702380D01*
X145208571Y-97702380D01*
X145303809Y-97750000D01*
X145351428Y-97797619D01*
X145399047Y-97892857D01*
X145399047Y-97988095D01*
X145351428Y-98130952D01*
X144780000Y-98702380D01*
X145399047Y-98702380D01*
X145827619Y-98607142D02*
X145875238Y-98654761D01*
X145827619Y-98702380D01*
X145780000Y-98654761D01*
X145827619Y-98607142D01*
X145827619Y-98702380D01*
X146780000Y-97702380D02*
X146303809Y-97702380D01*
X146256190Y-98178571D01*
X146303809Y-98130952D01*
X146399047Y-98083333D01*
X146637142Y-98083333D01*
X146732380Y-98130952D01*
X146780000Y-98178571D01*
X146827619Y-98273809D01*
X146827619Y-98511904D01*
X146780000Y-98607142D01*
X146732380Y-98654761D01*
X146637142Y-98702380D01*
X146399047Y-98702380D01*
X146303809Y-98654761D01*
X146256190Y-98607142D01*
%TO.C,D1*%
X151661904Y-69032380D02*
X151661904Y-68032380D01*
X151900000Y-68032380D01*
X152042857Y-68080000D01*
X152138095Y-68175238D01*
X152185714Y-68270476D01*
X152233333Y-68460952D01*
X152233333Y-68603809D01*
X152185714Y-68794285D01*
X152138095Y-68889523D01*
X152042857Y-68984761D01*
X151900000Y-69032380D01*
X151661904Y-69032380D01*
X153185714Y-69032380D02*
X152614285Y-69032380D01*
X152900000Y-69032380D02*
X152900000Y-68032380D01*
X152804761Y-68175238D01*
X152709523Y-68270476D01*
X152614285Y-68318095D01*
X157218095Y-71132380D02*
X157218095Y-70132380D01*
X157789523Y-71132380D02*
X157360952Y-70560952D01*
X157789523Y-70132380D02*
X157218095Y-70703809D01*
%TO.C,J1*%
X122382380Y-123463333D02*
X123096666Y-123463333D01*
X123239523Y-123510952D01*
X123334761Y-123606190D01*
X123382380Y-123749047D01*
X123382380Y-123844285D01*
X123382380Y-122463333D02*
X123382380Y-123034761D01*
X123382380Y-122749047D02*
X122382380Y-122749047D01*
X122525238Y-122844285D01*
X122620476Y-122939523D01*
X122668095Y-123034761D01*
%TO.C,J2*%
X122382380Y-96853333D02*
X123096666Y-96853333D01*
X123239523Y-96900952D01*
X123334761Y-96996190D01*
X123382380Y-97139047D01*
X123382380Y-97234285D01*
X122477619Y-96424761D02*
X122430000Y-96377142D01*
X122382380Y-96281904D01*
X122382380Y-96043809D01*
X122430000Y-95948571D01*
X122477619Y-95900952D01*
X122572857Y-95853333D01*
X122668095Y-95853333D01*
X122810952Y-95900952D01*
X123382380Y-96472380D01*
X123382380Y-95853333D01*
%TO.C,J3*%
X122382380Y-71453333D02*
X123096666Y-71453333D01*
X123239523Y-71500952D01*
X123334761Y-71596190D01*
X123382380Y-71739047D01*
X123382380Y-71834285D01*
X122382380Y-71072380D02*
X122382380Y-70453333D01*
X122763333Y-70786666D01*
X122763333Y-70643809D01*
X122810952Y-70548571D01*
X122858571Y-70500952D01*
X122953809Y-70453333D01*
X123191904Y-70453333D01*
X123287142Y-70500952D01*
X123334761Y-70548571D01*
X123382380Y-70643809D01*
X123382380Y-70929523D01*
X123334761Y-71024761D01*
X123287142Y-71072380D01*
%TO.C,J6*%
X154606666Y-60412380D02*
X154606666Y-61126666D01*
X154559047Y-61269523D01*
X154463809Y-61364761D01*
X154320952Y-61412380D01*
X154225714Y-61412380D01*
X155511428Y-60412380D02*
X155320952Y-60412380D01*
X155225714Y-60460000D01*
X155178095Y-60507619D01*
X155082857Y-60650476D01*
X155035238Y-60840952D01*
X155035238Y-61221904D01*
X155082857Y-61317142D01*
X155130476Y-61364761D01*
X155225714Y-61412380D01*
X155416190Y-61412380D01*
X155511428Y-61364761D01*
X155559047Y-61317142D01*
X155606666Y-61221904D01*
X155606666Y-60983809D01*
X155559047Y-60888571D01*
X155511428Y-60840952D01*
X155416190Y-60793333D01*
X155225714Y-60793333D01*
X155130476Y-60840952D01*
X155082857Y-60888571D01*
X155035238Y-60983809D01*
%TO.C,J8*%
X126691666Y-110982380D02*
X126691666Y-111696666D01*
X126644047Y-111839523D01*
X126548809Y-111934761D01*
X126405952Y-111982380D01*
X126310714Y-111982380D01*
X127310714Y-111410952D02*
X127215476Y-111363333D01*
X127167857Y-111315714D01*
X127120238Y-111220476D01*
X127120238Y-111172857D01*
X127167857Y-111077619D01*
X127215476Y-111030000D01*
X127310714Y-110982380D01*
X127501190Y-110982380D01*
X127596428Y-111030000D01*
X127644047Y-111077619D01*
X127691666Y-111172857D01*
X127691666Y-111220476D01*
X127644047Y-111315714D01*
X127596428Y-111363333D01*
X127501190Y-111410952D01*
X127310714Y-111410952D01*
X127215476Y-111458571D01*
X127167857Y-111506190D01*
X127120238Y-111601428D01*
X127120238Y-111791904D01*
X127167857Y-111887142D01*
X127215476Y-111934761D01*
X127310714Y-111982380D01*
X127501190Y-111982380D01*
X127596428Y-111934761D01*
X127644047Y-111887142D01*
X127691666Y-111791904D01*
X127691666Y-111601428D01*
X127644047Y-111506190D01*
X127596428Y-111458571D01*
X127501190Y-111410952D01*
%TO.C,J9*%
X139391666Y-110982380D02*
X139391666Y-111696666D01*
X139344047Y-111839523D01*
X139248809Y-111934761D01*
X139105952Y-111982380D01*
X139010714Y-111982380D01*
X139915476Y-111982380D02*
X140105952Y-111982380D01*
X140201190Y-111934761D01*
X140248809Y-111887142D01*
X140344047Y-111744285D01*
X140391666Y-111553809D01*
X140391666Y-111172857D01*
X140344047Y-111077619D01*
X140296428Y-111030000D01*
X140201190Y-110982380D01*
X140010714Y-110982380D01*
X139915476Y-111030000D01*
X139867857Y-111077619D01*
X139820238Y-111172857D01*
X139820238Y-111410952D01*
X139867857Y-111506190D01*
X139915476Y-111553809D01*
X140010714Y-111601428D01*
X140201190Y-111601428D01*
X140296428Y-111553809D01*
X140344047Y-111506190D01*
X140391666Y-111410952D01*
%TO.C,J10*%
X126215476Y-84327380D02*
X126215476Y-85041666D01*
X126167857Y-85184523D01*
X126072619Y-85279761D01*
X125929761Y-85327380D01*
X125834523Y-85327380D01*
X127215476Y-85327380D02*
X126644047Y-85327380D01*
X126929761Y-85327380D02*
X126929761Y-84327380D01*
X126834523Y-84470238D01*
X126739285Y-84565476D01*
X126644047Y-84613095D01*
X127834523Y-84327380D02*
X127929761Y-84327380D01*
X128025000Y-84375000D01*
X128072619Y-84422619D01*
X128120238Y-84517857D01*
X128167857Y-84708333D01*
X128167857Y-84946428D01*
X128120238Y-85136904D01*
X128072619Y-85232142D01*
X128025000Y-85279761D01*
X127929761Y-85327380D01*
X127834523Y-85327380D01*
X127739285Y-85279761D01*
X127691666Y-85232142D01*
X127644047Y-85136904D01*
X127596428Y-84946428D01*
X127596428Y-84708333D01*
X127644047Y-84517857D01*
X127691666Y-84422619D01*
X127739285Y-84375000D01*
X127834523Y-84327380D01*
%TO.C,J11*%
X138915476Y-84327380D02*
X138915476Y-85041666D01*
X138867857Y-85184523D01*
X138772619Y-85279761D01*
X138629761Y-85327380D01*
X138534523Y-85327380D01*
X139915476Y-85327380D02*
X139344047Y-85327380D01*
X139629761Y-85327380D02*
X139629761Y-84327380D01*
X139534523Y-84470238D01*
X139439285Y-84565476D01*
X139344047Y-84613095D01*
X140867857Y-85327380D02*
X140296428Y-85327380D01*
X140582142Y-85327380D02*
X140582142Y-84327380D01*
X140486904Y-84470238D01*
X140391666Y-84565476D01*
X140296428Y-84613095D01*
%TO.C,J12*%
X126215476Y-58927380D02*
X126215476Y-59641666D01*
X126167857Y-59784523D01*
X126072619Y-59879761D01*
X125929761Y-59927380D01*
X125834523Y-59927380D01*
X127215476Y-59927380D02*
X126644047Y-59927380D01*
X126929761Y-59927380D02*
X126929761Y-58927380D01*
X126834523Y-59070238D01*
X126739285Y-59165476D01*
X126644047Y-59213095D01*
X127596428Y-59022619D02*
X127644047Y-58975000D01*
X127739285Y-58927380D01*
X127977380Y-58927380D01*
X128072619Y-58975000D01*
X128120238Y-59022619D01*
X128167857Y-59117857D01*
X128167857Y-59213095D01*
X128120238Y-59355952D01*
X127548809Y-59927380D01*
X128167857Y-59927380D01*
%TO.C,J13*%
X138915476Y-58927380D02*
X138915476Y-59641666D01*
X138867857Y-59784523D01*
X138772619Y-59879761D01*
X138629761Y-59927380D01*
X138534523Y-59927380D01*
X139915476Y-59927380D02*
X139344047Y-59927380D01*
X139629761Y-59927380D02*
X139629761Y-58927380D01*
X139534523Y-59070238D01*
X139439285Y-59165476D01*
X139344047Y-59213095D01*
X140248809Y-58927380D02*
X140867857Y-58927380D01*
X140534523Y-59308333D01*
X140677380Y-59308333D01*
X140772619Y-59355952D01*
X140820238Y-59403571D01*
X140867857Y-59498809D01*
X140867857Y-59736904D01*
X140820238Y-59832142D01*
X140772619Y-59879761D01*
X140677380Y-59927380D01*
X140391666Y-59927380D01*
X140296428Y-59879761D01*
X140248809Y-59832142D01*
%TO.C,J14*%
X183862380Y-89709523D02*
X184576666Y-89709523D01*
X184719523Y-89757142D01*
X184814761Y-89852380D01*
X184862380Y-89995238D01*
X184862380Y-90090476D01*
X184862380Y-88709523D02*
X184862380Y-89280952D01*
X184862380Y-88995238D02*
X183862380Y-88995238D01*
X184005238Y-89090476D01*
X184100476Y-89185714D01*
X184148095Y-89280952D01*
X184195714Y-87852380D02*
X184862380Y-87852380D01*
X183814761Y-88090476D02*
X184529047Y-88328571D01*
X184529047Y-87709523D01*
%TO.C,J15*%
X183862380Y-102449523D02*
X184576666Y-102449523D01*
X184719523Y-102497142D01*
X184814761Y-102592380D01*
X184862380Y-102735238D01*
X184862380Y-102830476D01*
X184862380Y-101449523D02*
X184862380Y-102020952D01*
X184862380Y-101735238D02*
X183862380Y-101735238D01*
X184005238Y-101830476D01*
X184100476Y-101925714D01*
X184148095Y-102020952D01*
X183862380Y-100544761D02*
X183862380Y-101020952D01*
X184338571Y-101068571D01*
X184290952Y-101020952D01*
X184243333Y-100925714D01*
X184243333Y-100687619D01*
X184290952Y-100592380D01*
X184338571Y-100544761D01*
X184433809Y-100497142D01*
X184671904Y-100497142D01*
X184767142Y-100544761D01*
X184814761Y-100592380D01*
X184862380Y-100687619D01*
X184862380Y-100925714D01*
X184814761Y-101020952D01*
X184767142Y-101068571D01*
%TO.C,J16*%
X183862380Y-115149523D02*
X184576666Y-115149523D01*
X184719523Y-115197142D01*
X184814761Y-115292380D01*
X184862380Y-115435238D01*
X184862380Y-115530476D01*
X184862380Y-114149523D02*
X184862380Y-114720952D01*
X184862380Y-114435238D02*
X183862380Y-114435238D01*
X184005238Y-114530476D01*
X184100476Y-114625714D01*
X184148095Y-114720952D01*
X183862380Y-113292380D02*
X183862380Y-113482857D01*
X183910000Y-113578095D01*
X183957619Y-113625714D01*
X184100476Y-113720952D01*
X184290952Y-113768571D01*
X184671904Y-113768571D01*
X184767142Y-113720952D01*
X184814761Y-113673333D01*
X184862380Y-113578095D01*
X184862380Y-113387619D01*
X184814761Y-113292380D01*
X184767142Y-113244761D01*
X184671904Y-113197142D01*
X184433809Y-113197142D01*
X184338571Y-113244761D01*
X184290952Y-113292380D01*
X184243333Y-113387619D01*
X184243333Y-113578095D01*
X184290952Y-113673333D01*
X184338571Y-113720952D01*
X184433809Y-113768571D01*
%TO.C,Q1*%
X168997619Y-73755238D02*
X168950000Y-73850476D01*
X168854761Y-73945714D01*
X168711904Y-74088571D01*
X168664285Y-74183809D01*
X168664285Y-74279047D01*
X168902380Y-74231428D02*
X168854761Y-74326666D01*
X168759523Y-74421904D01*
X168569047Y-74469523D01*
X168235714Y-74469523D01*
X168045238Y-74421904D01*
X167950000Y-74326666D01*
X167902380Y-74231428D01*
X167902380Y-74040952D01*
X167950000Y-73945714D01*
X168045238Y-73850476D01*
X168235714Y-73802857D01*
X168569047Y-73802857D01*
X168759523Y-73850476D01*
X168854761Y-73945714D01*
X168902380Y-74040952D01*
X168902380Y-74231428D01*
X168902380Y-72850476D02*
X168902380Y-73421904D01*
X168902380Y-73136190D02*
X167902380Y-73136190D01*
X168045238Y-73231428D01*
X168140476Y-73326666D01*
X168188095Y-73421904D01*
%TO.C,J5*%
X167401666Y-60412380D02*
X167401666Y-61126666D01*
X167354047Y-61269523D01*
X167258809Y-61364761D01*
X167115952Y-61412380D01*
X167020714Y-61412380D01*
X168354047Y-60412380D02*
X167877857Y-60412380D01*
X167830238Y-60888571D01*
X167877857Y-60840952D01*
X167973095Y-60793333D01*
X168211190Y-60793333D01*
X168306428Y-60840952D01*
X168354047Y-60888571D01*
X168401666Y-60983809D01*
X168401666Y-61221904D01*
X168354047Y-61317142D01*
X168306428Y-61364761D01*
X168211190Y-61412380D01*
X167973095Y-61412380D01*
X167877857Y-61364761D01*
X167830238Y-61317142D01*
%TO.C,J18*%
X142845476Y-121372380D02*
X142845476Y-122086666D01*
X142797857Y-122229523D01*
X142702619Y-122324761D01*
X142559761Y-122372380D01*
X142464523Y-122372380D01*
X143845476Y-122372380D02*
X143274047Y-122372380D01*
X143559761Y-122372380D02*
X143559761Y-121372380D01*
X143464523Y-121515238D01*
X143369285Y-121610476D01*
X143274047Y-121658095D01*
X144416904Y-121800952D02*
X144321666Y-121753333D01*
X144274047Y-121705714D01*
X144226428Y-121610476D01*
X144226428Y-121562857D01*
X144274047Y-121467619D01*
X144321666Y-121420000D01*
X144416904Y-121372380D01*
X144607380Y-121372380D01*
X144702619Y-121420000D01*
X144750238Y-121467619D01*
X144797857Y-121562857D01*
X144797857Y-121610476D01*
X144750238Y-121705714D01*
X144702619Y-121753333D01*
X144607380Y-121800952D01*
X144416904Y-121800952D01*
X144321666Y-121848571D01*
X144274047Y-121896190D01*
X144226428Y-121991428D01*
X144226428Y-122181904D01*
X144274047Y-122277142D01*
X144321666Y-122324761D01*
X144416904Y-122372380D01*
X144607380Y-122372380D01*
X144702619Y-122324761D01*
X144750238Y-122277142D01*
X144797857Y-122181904D01*
X144797857Y-121991428D01*
X144750238Y-121896190D01*
X144702619Y-121848571D01*
X144607380Y-121800952D01*
%TO.C,C4*%
X133163333Y-84857142D02*
X133115714Y-84904761D01*
X132972857Y-84952380D01*
X132877619Y-84952380D01*
X132734761Y-84904761D01*
X132639523Y-84809523D01*
X132591904Y-84714285D01*
X132544285Y-84523809D01*
X132544285Y-84380952D01*
X132591904Y-84190476D01*
X132639523Y-84095238D01*
X132734761Y-84000000D01*
X132877619Y-83952380D01*
X132972857Y-83952380D01*
X133115714Y-84000000D01*
X133163333Y-84047619D01*
X134020476Y-84285714D02*
X134020476Y-84952380D01*
X133782380Y-83904761D02*
X133544285Y-84619047D01*
X134163333Y-84619047D01*
X131782380Y-93752380D02*
X131210952Y-93752380D01*
X131496666Y-93752380D02*
X131496666Y-92752380D01*
X131401428Y-92895238D01*
X131306190Y-92990476D01*
X131210952Y-93038095D01*
X132401428Y-92752380D02*
X132496666Y-92752380D01*
X132591904Y-92800000D01*
X132639523Y-92847619D01*
X132687142Y-92942857D01*
X132734761Y-93133333D01*
X132734761Y-93371428D01*
X132687142Y-93561904D01*
X132639523Y-93657142D01*
X132591904Y-93704761D01*
X132496666Y-93752380D01*
X132401428Y-93752380D01*
X132306190Y-93704761D01*
X132258571Y-93657142D01*
X132210952Y-93561904D01*
X132163333Y-93371428D01*
X132163333Y-93133333D01*
X132210952Y-92942857D01*
X132258571Y-92847619D01*
X132306190Y-92800000D01*
X132401428Y-92752380D01*
X133353809Y-92752380D02*
X133449047Y-92752380D01*
X133544285Y-92800000D01*
X133591904Y-92847619D01*
X133639523Y-92942857D01*
X133687142Y-93133333D01*
X133687142Y-93371428D01*
X133639523Y-93561904D01*
X133591904Y-93657142D01*
X133544285Y-93704761D01*
X133449047Y-93752380D01*
X133353809Y-93752380D01*
X133258571Y-93704761D01*
X133210952Y-93657142D01*
X133163333Y-93561904D01*
X133115714Y-93371428D01*
X133115714Y-93133333D01*
X133163333Y-92942857D01*
X133210952Y-92847619D01*
X133258571Y-92800000D01*
X133353809Y-92752380D01*
X134544285Y-93085714D02*
X134544285Y-93752380D01*
X134115714Y-93085714D02*
X134115714Y-93609523D01*
X134163333Y-93704761D01*
X134258571Y-93752380D01*
X134401428Y-93752380D01*
X134496666Y-93704761D01*
X134544285Y-93657142D01*
X135353809Y-93228571D02*
X135020476Y-93228571D01*
X135020476Y-93752380D02*
X135020476Y-92752380D01*
X135496666Y-92752380D01*
%TO.C,J17*%
X169370476Y-121372380D02*
X169370476Y-122086666D01*
X169322857Y-122229523D01*
X169227619Y-122324761D01*
X169084761Y-122372380D01*
X168989523Y-122372380D01*
X170370476Y-122372380D02*
X169799047Y-122372380D01*
X170084761Y-122372380D02*
X170084761Y-121372380D01*
X169989523Y-121515238D01*
X169894285Y-121610476D01*
X169799047Y-121658095D01*
X170703809Y-121372380D02*
X171370476Y-121372380D01*
X170941904Y-122372380D01*
%TO.C,U1*%
X157578095Y-76462380D02*
X157578095Y-77271904D01*
X157625714Y-77367142D01*
X157673333Y-77414761D01*
X157768571Y-77462380D01*
X157959047Y-77462380D01*
X158054285Y-77414761D01*
X158101904Y-77367142D01*
X158149523Y-77271904D01*
X158149523Y-76462380D01*
X159149523Y-77462380D02*
X158578095Y-77462380D01*
X158863809Y-77462380D02*
X158863809Y-76462380D01*
X158768571Y-76605238D01*
X158673333Y-76700476D01*
X158578095Y-76748095D01*
%TO.C,C3*%
X133163333Y-112797142D02*
X133115714Y-112844761D01*
X132972857Y-112892380D01*
X132877619Y-112892380D01*
X132734761Y-112844761D01*
X132639523Y-112749523D01*
X132591904Y-112654285D01*
X132544285Y-112463809D01*
X132544285Y-112320952D01*
X132591904Y-112130476D01*
X132639523Y-112035238D01*
X132734761Y-111940000D01*
X132877619Y-111892380D01*
X132972857Y-111892380D01*
X133115714Y-111940000D01*
X133163333Y-111987619D01*
X133496666Y-111892380D02*
X134115714Y-111892380D01*
X133782380Y-112273333D01*
X133925238Y-112273333D01*
X134020476Y-112320952D01*
X134068095Y-112368571D01*
X134115714Y-112463809D01*
X134115714Y-112701904D01*
X134068095Y-112797142D01*
X134020476Y-112844761D01*
X133925238Y-112892380D01*
X133639523Y-112892380D01*
X133544285Y-112844761D01*
X133496666Y-112797142D01*
X131782380Y-121692380D02*
X131210952Y-121692380D01*
X131496666Y-121692380D02*
X131496666Y-120692380D01*
X131401428Y-120835238D01*
X131306190Y-120930476D01*
X131210952Y-120978095D01*
X132401428Y-120692380D02*
X132496666Y-120692380D01*
X132591904Y-120740000D01*
X132639523Y-120787619D01*
X132687142Y-120882857D01*
X132734761Y-121073333D01*
X132734761Y-121311428D01*
X132687142Y-121501904D01*
X132639523Y-121597142D01*
X132591904Y-121644761D01*
X132496666Y-121692380D01*
X132401428Y-121692380D01*
X132306190Y-121644761D01*
X132258571Y-121597142D01*
X132210952Y-121501904D01*
X132163333Y-121311428D01*
X132163333Y-121073333D01*
X132210952Y-120882857D01*
X132258571Y-120787619D01*
X132306190Y-120740000D01*
X132401428Y-120692380D01*
X133353809Y-120692380D02*
X133449047Y-120692380D01*
X133544285Y-120740000D01*
X133591904Y-120787619D01*
X133639523Y-120882857D01*
X133687142Y-121073333D01*
X133687142Y-121311428D01*
X133639523Y-121501904D01*
X133591904Y-121597142D01*
X133544285Y-121644761D01*
X133449047Y-121692380D01*
X133353809Y-121692380D01*
X133258571Y-121644761D01*
X133210952Y-121597142D01*
X133163333Y-121501904D01*
X133115714Y-121311428D01*
X133115714Y-121073333D01*
X133163333Y-120882857D01*
X133210952Y-120787619D01*
X133258571Y-120740000D01*
X133353809Y-120692380D01*
X134544285Y-121025714D02*
X134544285Y-121692380D01*
X134115714Y-121025714D02*
X134115714Y-121549523D01*
X134163333Y-121644761D01*
X134258571Y-121692380D01*
X134401428Y-121692380D01*
X134496666Y-121644761D01*
X134544285Y-121597142D01*
X135353809Y-121168571D02*
X135020476Y-121168571D01*
X135020476Y-121692380D02*
X135020476Y-120692380D01*
X135496666Y-120692380D01*
%TO.C,C2*%
X149693333Y-104497142D02*
X149645714Y-104544761D01*
X149502857Y-104592380D01*
X149407619Y-104592380D01*
X149264761Y-104544761D01*
X149169523Y-104449523D01*
X149121904Y-104354285D01*
X149074285Y-104163809D01*
X149074285Y-104020952D01*
X149121904Y-103830476D01*
X149169523Y-103735238D01*
X149264761Y-103640000D01*
X149407619Y-103592380D01*
X149502857Y-103592380D01*
X149645714Y-103640000D01*
X149693333Y-103687619D01*
X150074285Y-103687619D02*
X150121904Y-103640000D01*
X150217142Y-103592380D01*
X150455238Y-103592380D01*
X150550476Y-103640000D01*
X150598095Y-103687619D01*
X150645714Y-103782857D01*
X150645714Y-103878095D01*
X150598095Y-104020952D01*
X150026666Y-104592380D01*
X150645714Y-104592380D01*
X147836190Y-107132380D02*
X147264761Y-107132380D01*
X147550476Y-107132380D02*
X147550476Y-106132380D01*
X147455238Y-106275238D01*
X147360000Y-106370476D01*
X147264761Y-106418095D01*
X148455238Y-106132380D02*
X148550476Y-106132380D01*
X148645714Y-106180000D01*
X148693333Y-106227619D01*
X148740952Y-106322857D01*
X148788571Y-106513333D01*
X148788571Y-106751428D01*
X148740952Y-106941904D01*
X148693333Y-107037142D01*
X148645714Y-107084761D01*
X148550476Y-107132380D01*
X148455238Y-107132380D01*
X148360000Y-107084761D01*
X148312380Y-107037142D01*
X148264761Y-106941904D01*
X148217142Y-106751428D01*
X148217142Y-106513333D01*
X148264761Y-106322857D01*
X148312380Y-106227619D01*
X148360000Y-106180000D01*
X148455238Y-106132380D01*
X149407619Y-106132380D02*
X149502857Y-106132380D01*
X149598095Y-106180000D01*
X149645714Y-106227619D01*
X149693333Y-106322857D01*
X149740952Y-106513333D01*
X149740952Y-106751428D01*
X149693333Y-106941904D01*
X149645714Y-107037142D01*
X149598095Y-107084761D01*
X149502857Y-107132380D01*
X149407619Y-107132380D01*
X149312380Y-107084761D01*
X149264761Y-107037142D01*
X149217142Y-106941904D01*
X149169523Y-106751428D01*
X149169523Y-106513333D01*
X149217142Y-106322857D01*
X149264761Y-106227619D01*
X149312380Y-106180000D01*
X149407619Y-106132380D01*
X150360000Y-106132380D02*
X150455238Y-106132380D01*
X150550476Y-106180000D01*
X150598095Y-106227619D01*
X150645714Y-106322857D01*
X150693333Y-106513333D01*
X150693333Y-106751428D01*
X150645714Y-106941904D01*
X150598095Y-107037142D01*
X150550476Y-107084761D01*
X150455238Y-107132380D01*
X150360000Y-107132380D01*
X150264761Y-107084761D01*
X150217142Y-107037142D01*
X150169523Y-106941904D01*
X150121904Y-106751428D01*
X150121904Y-106513333D01*
X150169523Y-106322857D01*
X150217142Y-106227619D01*
X150264761Y-106180000D01*
X150360000Y-106132380D01*
X151550476Y-106465714D02*
X151550476Y-107132380D01*
X151121904Y-106465714D02*
X151121904Y-106989523D01*
X151169523Y-107084761D01*
X151264761Y-107132380D01*
X151407619Y-107132380D01*
X151502857Y-107084761D01*
X151550476Y-107037142D01*
X152360000Y-106608571D02*
X152026666Y-106608571D01*
X152026666Y-107132380D02*
X152026666Y-106132380D01*
X152502857Y-106132380D01*
%TO.C,D2*%
X154201904Y-92072380D02*
X154201904Y-91072380D01*
X154440000Y-91072380D01*
X154582857Y-91120000D01*
X154678095Y-91215238D01*
X154725714Y-91310476D01*
X154773333Y-91500952D01*
X154773333Y-91643809D01*
X154725714Y-91834285D01*
X154678095Y-91929523D01*
X154582857Y-92024761D01*
X154440000Y-92072380D01*
X154201904Y-92072380D01*
X155154285Y-91167619D02*
X155201904Y-91120000D01*
X155297142Y-91072380D01*
X155535238Y-91072380D01*
X155630476Y-91120000D01*
X155678095Y-91167619D01*
X155725714Y-91262857D01*
X155725714Y-91358095D01*
X155678095Y-91500952D01*
X155106666Y-92072380D01*
X155725714Y-92072380D01*
X160417142Y-89352380D02*
X159845714Y-89352380D01*
X160131428Y-89352380D02*
X160131428Y-88352380D01*
X160036190Y-88495238D01*
X159940952Y-88590476D01*
X159845714Y-88638095D01*
X160845714Y-89352380D02*
X160845714Y-88352380D01*
X161417142Y-89352380D01*
X161417142Y-88352380D01*
X162369523Y-88352380D02*
X161893333Y-88352380D01*
X161845714Y-88828571D01*
X161893333Y-88780952D01*
X161988571Y-88733333D01*
X162226666Y-88733333D01*
X162321904Y-88780952D01*
X162369523Y-88828571D01*
X162417142Y-88923809D01*
X162417142Y-89161904D01*
X162369523Y-89257142D01*
X162321904Y-89304761D01*
X162226666Y-89352380D01*
X161988571Y-89352380D01*
X161893333Y-89304761D01*
X161845714Y-89257142D01*
X162988571Y-88780952D02*
X162893333Y-88733333D01*
X162845714Y-88685714D01*
X162798095Y-88590476D01*
X162798095Y-88542857D01*
X162845714Y-88447619D01*
X162893333Y-88400000D01*
X162988571Y-88352380D01*
X163179047Y-88352380D01*
X163274285Y-88400000D01*
X163321904Y-88447619D01*
X163369523Y-88542857D01*
X163369523Y-88590476D01*
X163321904Y-88685714D01*
X163274285Y-88733333D01*
X163179047Y-88780952D01*
X162988571Y-88780952D01*
X162893333Y-88828571D01*
X162845714Y-88876190D01*
X162798095Y-88971428D01*
X162798095Y-89161904D01*
X162845714Y-89257142D01*
X162893333Y-89304761D01*
X162988571Y-89352380D01*
X163179047Y-89352380D01*
X163274285Y-89304761D01*
X163321904Y-89257142D01*
X163369523Y-89161904D01*
X163369523Y-88971428D01*
X163321904Y-88876190D01*
X163274285Y-88828571D01*
X163179047Y-88780952D01*
X163750476Y-88447619D02*
X163798095Y-88400000D01*
X163893333Y-88352380D01*
X164131428Y-88352380D01*
X164226666Y-88400000D01*
X164274285Y-88447619D01*
X164321904Y-88542857D01*
X164321904Y-88638095D01*
X164274285Y-88780952D01*
X163702857Y-89352380D01*
X164321904Y-89352380D01*
X164702857Y-88447619D02*
X164750476Y-88400000D01*
X164845714Y-88352380D01*
X165083809Y-88352380D01*
X165179047Y-88400000D01*
X165226666Y-88447619D01*
X165274285Y-88542857D01*
X165274285Y-88638095D01*
X165226666Y-88780952D01*
X164655238Y-89352380D01*
X165274285Y-89352380D01*
X154678095Y-86752380D02*
X154678095Y-85752380D01*
X155249523Y-86752380D02*
X154820952Y-86180952D01*
X155249523Y-85752380D02*
X154678095Y-86323809D01*
%TO.C,R1*%
X149693333Y-76652380D02*
X149360000Y-76176190D01*
X149121904Y-76652380D02*
X149121904Y-75652380D01*
X149502857Y-75652380D01*
X149598095Y-75700000D01*
X149645714Y-75747619D01*
X149693333Y-75842857D01*
X149693333Y-75985714D01*
X149645714Y-76080952D01*
X149598095Y-76128571D01*
X149502857Y-76176190D01*
X149121904Y-76176190D01*
X150645714Y-76652380D02*
X150074285Y-76652380D01*
X150360000Y-76652380D02*
X150360000Y-75652380D01*
X150264761Y-75795238D01*
X150169523Y-75890476D01*
X150074285Y-75938095D01*
X151328571Y-74112380D02*
X150757142Y-74112380D01*
X151042857Y-74112380D02*
X151042857Y-73112380D01*
X150947619Y-73255238D01*
X150852380Y-73350476D01*
X150757142Y-73398095D01*
X151947619Y-73112380D02*
X152042857Y-73112380D01*
X152138095Y-73160000D01*
X152185714Y-73207619D01*
X152233333Y-73302857D01*
X152280952Y-73493333D01*
X152280952Y-73731428D01*
X152233333Y-73921904D01*
X152185714Y-74017142D01*
X152138095Y-74064761D01*
X152042857Y-74112380D01*
X151947619Y-74112380D01*
X151852380Y-74064761D01*
X151804761Y-74017142D01*
X151757142Y-73921904D01*
X151709523Y-73731428D01*
X151709523Y-73493333D01*
X151757142Y-73302857D01*
X151804761Y-73207619D01*
X151852380Y-73160000D01*
X151947619Y-73112380D01*
X152900000Y-73112380D02*
X152995238Y-73112380D01*
X153090476Y-73160000D01*
X153138095Y-73207619D01*
X153185714Y-73302857D01*
X153233333Y-73493333D01*
X153233333Y-73731428D01*
X153185714Y-73921904D01*
X153138095Y-74017142D01*
X153090476Y-74064761D01*
X152995238Y-74112380D01*
X152900000Y-74112380D01*
X152804761Y-74064761D01*
X152757142Y-74017142D01*
X152709523Y-73921904D01*
X152661904Y-73731428D01*
X152661904Y-73493333D01*
X152709523Y-73302857D01*
X152757142Y-73207619D01*
X152804761Y-73160000D01*
X152900000Y-73112380D01*
X153661904Y-74112380D02*
X153661904Y-73112380D01*
X153757142Y-73731428D02*
X154042857Y-74112380D01*
X154042857Y-73445714D02*
X153661904Y-73826666D01*
%TO.C,C5*%
X133163333Y-59457142D02*
X133115714Y-59504761D01*
X132972857Y-59552380D01*
X132877619Y-59552380D01*
X132734761Y-59504761D01*
X132639523Y-59409523D01*
X132591904Y-59314285D01*
X132544285Y-59123809D01*
X132544285Y-58980952D01*
X132591904Y-58790476D01*
X132639523Y-58695238D01*
X132734761Y-58600000D01*
X132877619Y-58552380D01*
X132972857Y-58552380D01*
X133115714Y-58600000D01*
X133163333Y-58647619D01*
X134068095Y-58552380D02*
X133591904Y-58552380D01*
X133544285Y-59028571D01*
X133591904Y-58980952D01*
X133687142Y-58933333D01*
X133925238Y-58933333D01*
X134020476Y-58980952D01*
X134068095Y-59028571D01*
X134115714Y-59123809D01*
X134115714Y-59361904D01*
X134068095Y-59457142D01*
X134020476Y-59504761D01*
X133925238Y-59552380D01*
X133687142Y-59552380D01*
X133591904Y-59504761D01*
X133544285Y-59457142D01*
X131782380Y-68352380D02*
X131210952Y-68352380D01*
X131496666Y-68352380D02*
X131496666Y-67352380D01*
X131401428Y-67495238D01*
X131306190Y-67590476D01*
X131210952Y-67638095D01*
X132401428Y-67352380D02*
X132496666Y-67352380D01*
X132591904Y-67400000D01*
X132639523Y-67447619D01*
X132687142Y-67542857D01*
X132734761Y-67733333D01*
X132734761Y-67971428D01*
X132687142Y-68161904D01*
X132639523Y-68257142D01*
X132591904Y-68304761D01*
X132496666Y-68352380D01*
X132401428Y-68352380D01*
X132306190Y-68304761D01*
X132258571Y-68257142D01*
X132210952Y-68161904D01*
X132163333Y-67971428D01*
X132163333Y-67733333D01*
X132210952Y-67542857D01*
X132258571Y-67447619D01*
X132306190Y-67400000D01*
X132401428Y-67352380D01*
X133353809Y-67352380D02*
X133449047Y-67352380D01*
X133544285Y-67400000D01*
X133591904Y-67447619D01*
X133639523Y-67542857D01*
X133687142Y-67733333D01*
X133687142Y-67971428D01*
X133639523Y-68161904D01*
X133591904Y-68257142D01*
X133544285Y-68304761D01*
X133449047Y-68352380D01*
X133353809Y-68352380D01*
X133258571Y-68304761D01*
X133210952Y-68257142D01*
X133163333Y-68161904D01*
X133115714Y-67971428D01*
X133115714Y-67733333D01*
X133163333Y-67542857D01*
X133210952Y-67447619D01*
X133258571Y-67400000D01*
X133353809Y-67352380D01*
X134544285Y-67685714D02*
X134544285Y-68352380D01*
X134115714Y-67685714D02*
X134115714Y-68209523D01*
X134163333Y-68304761D01*
X134258571Y-68352380D01*
X134401428Y-68352380D01*
X134496666Y-68304761D01*
X134544285Y-68257142D01*
X135353809Y-67828571D02*
X135020476Y-67828571D01*
X135020476Y-68352380D02*
X135020476Y-67352380D01*
X135496666Y-67352380D01*
%TO.C,C1*%
X152077142Y-82696666D02*
X152124761Y-82744285D01*
X152172380Y-82887142D01*
X152172380Y-82982380D01*
X152124761Y-83125238D01*
X152029523Y-83220476D01*
X151934285Y-83268095D01*
X151743809Y-83315714D01*
X151600952Y-83315714D01*
X151410476Y-83268095D01*
X151315238Y-83220476D01*
X151220000Y-83125238D01*
X151172380Y-82982380D01*
X151172380Y-82887142D01*
X151220000Y-82744285D01*
X151267619Y-82696666D01*
X152172380Y-81744285D02*
X152172380Y-82315714D01*
X152172380Y-82030000D02*
X151172380Y-82030000D01*
X151315238Y-82125238D01*
X151410476Y-82220476D01*
X151458095Y-82315714D01*
X143372380Y-84149047D02*
X143372380Y-84720476D01*
X143372380Y-84434761D02*
X142372380Y-84434761D01*
X142515238Y-84530000D01*
X142610476Y-84625238D01*
X142658095Y-84720476D01*
X142372380Y-83530000D02*
X142372380Y-83434761D01*
X142420000Y-83339523D01*
X142467619Y-83291904D01*
X142562857Y-83244285D01*
X142753333Y-83196666D01*
X142991428Y-83196666D01*
X143181904Y-83244285D01*
X143277142Y-83291904D01*
X143324761Y-83339523D01*
X143372380Y-83434761D01*
X143372380Y-83530000D01*
X143324761Y-83625238D01*
X143277142Y-83672857D01*
X143181904Y-83720476D01*
X142991428Y-83768095D01*
X142753333Y-83768095D01*
X142562857Y-83720476D01*
X142467619Y-83672857D01*
X142420000Y-83625238D01*
X142372380Y-83530000D01*
X142372380Y-82577619D02*
X142372380Y-82482380D01*
X142420000Y-82387142D01*
X142467619Y-82339523D01*
X142562857Y-82291904D01*
X142753333Y-82244285D01*
X142991428Y-82244285D01*
X143181904Y-82291904D01*
X143277142Y-82339523D01*
X143324761Y-82387142D01*
X143372380Y-82482380D01*
X143372380Y-82577619D01*
X143324761Y-82672857D01*
X143277142Y-82720476D01*
X143181904Y-82768095D01*
X142991428Y-82815714D01*
X142753333Y-82815714D01*
X142562857Y-82768095D01*
X142467619Y-82720476D01*
X142420000Y-82672857D01*
X142372380Y-82577619D01*
X142705714Y-81815714D02*
X143705714Y-81815714D01*
X143229523Y-81339523D02*
X143324761Y-81291904D01*
X143372380Y-81196666D01*
X143229523Y-81815714D02*
X143324761Y-81768095D01*
X143372380Y-81672857D01*
X143372380Y-81482380D01*
X143324761Y-81387142D01*
X143229523Y-81339523D01*
X142705714Y-81339523D01*
X142848571Y-80434761D02*
X142848571Y-80768095D01*
X143372380Y-80768095D02*
X142372380Y-80768095D01*
X142372380Y-80291904D01*
%TO.C,J19*%
X178512380Y-77009523D02*
X179226666Y-77009523D01*
X179369523Y-77057142D01*
X179464761Y-77152380D01*
X179512380Y-77295238D01*
X179512380Y-77390476D01*
X179512380Y-76009523D02*
X179512380Y-76580952D01*
X179512380Y-76295238D02*
X178512380Y-76295238D01*
X178655238Y-76390476D01*
X178750476Y-76485714D01*
X178798095Y-76580952D01*
X179512380Y-75533333D02*
X179512380Y-75342857D01*
X179464761Y-75247619D01*
X179417142Y-75200000D01*
X179274285Y-75104761D01*
X179083809Y-75057142D01*
X178702857Y-75057142D01*
X178607619Y-75104761D01*
X178560000Y-75152380D01*
X178512380Y-75247619D01*
X178512380Y-75438095D01*
X178560000Y-75533333D01*
X178607619Y-75580952D01*
X178702857Y-75628571D01*
X178940952Y-75628571D01*
X179036190Y-75580952D01*
X179083809Y-75533333D01*
X179131428Y-75438095D01*
X179131428Y-75247619D01*
X179083809Y-75152380D01*
X179036190Y-75104761D01*
X178940952Y-75057142D01*
%TO.C,R2*%
X178422380Y-63666666D02*
X177946190Y-64000000D01*
X178422380Y-64238095D02*
X177422380Y-64238095D01*
X177422380Y-63857142D01*
X177470000Y-63761904D01*
X177517619Y-63714285D01*
X177612857Y-63666666D01*
X177755714Y-63666666D01*
X177850952Y-63714285D01*
X177898571Y-63761904D01*
X177946190Y-63857142D01*
X177946190Y-64238095D01*
X177517619Y-63285714D02*
X177470000Y-63238095D01*
X177422380Y-63142857D01*
X177422380Y-62904761D01*
X177470000Y-62809523D01*
X177517619Y-62761904D01*
X177612857Y-62714285D01*
X177708095Y-62714285D01*
X177850952Y-62761904D01*
X178422380Y-63333333D01*
X178422380Y-62714285D01*
X180792380Y-64571428D02*
X180792380Y-65142857D01*
X180792380Y-64857142D02*
X179792380Y-64857142D01*
X179935238Y-64952380D01*
X180030476Y-65047619D01*
X180078095Y-65142857D01*
X179792380Y-63952380D02*
X179792380Y-63857142D01*
X179840000Y-63761904D01*
X179887619Y-63714285D01*
X179982857Y-63666666D01*
X180173333Y-63619047D01*
X180411428Y-63619047D01*
X180601904Y-63666666D01*
X180697142Y-63714285D01*
X180744761Y-63761904D01*
X180792380Y-63857142D01*
X180792380Y-63952380D01*
X180744761Y-64047619D01*
X180697142Y-64095238D01*
X180601904Y-64142857D01*
X180411428Y-64190476D01*
X180173333Y-64190476D01*
X179982857Y-64142857D01*
X179887619Y-64095238D01*
X179840000Y-64047619D01*
X179792380Y-63952380D01*
X179792380Y-63000000D02*
X179792380Y-62904761D01*
X179840000Y-62809523D01*
X179887619Y-62761904D01*
X179982857Y-62714285D01*
X180173333Y-62666666D01*
X180411428Y-62666666D01*
X180601904Y-62714285D01*
X180697142Y-62761904D01*
X180744761Y-62809523D01*
X180792380Y-62904761D01*
X180792380Y-63000000D01*
X180744761Y-63095238D01*
X180697142Y-63142857D01*
X180601904Y-63190476D01*
X180411428Y-63238095D01*
X180173333Y-63238095D01*
X179982857Y-63190476D01*
X179887619Y-63142857D01*
X179840000Y-63095238D01*
X179792380Y-63000000D01*
X180792380Y-62238095D02*
X179792380Y-62238095D01*
X180411428Y-62142857D02*
X180792380Y-61857142D01*
X180125714Y-61857142D02*
X180506666Y-62238095D01*
%TO.C,J4*%
X187412380Y-63833333D02*
X188126666Y-63833333D01*
X188269523Y-63880952D01*
X188364761Y-63976190D01*
X188412380Y-64119047D01*
X188412380Y-64214285D01*
X187745714Y-62928571D02*
X188412380Y-62928571D01*
X187364761Y-63166666D02*
X188079047Y-63404761D01*
X188079047Y-62785714D01*
%TO.C,L1*%
X170013333Y-107132380D02*
X169537142Y-107132380D01*
X169537142Y-106132380D01*
X170870476Y-107132380D02*
X170299047Y-107132380D01*
X170584761Y-107132380D02*
X170584761Y-106132380D01*
X170489523Y-106275238D01*
X170394285Y-106370476D01*
X170299047Y-106418095D01*
D11*
%TO.C,D1*%
X154100000Y-70050000D02*
X154100000Y-67110000D01*
X148660000Y-68580000D02*
X149680000Y-68580000D01*
X149680000Y-70050000D02*
X155120000Y-70050000D01*
X155120000Y-67110000D02*
X149680000Y-67110000D01*
X155120000Y-70050000D02*
X155120000Y-67110000D01*
X154220000Y-70050000D02*
X154220000Y-67110000D01*
X154340000Y-70050000D02*
X154340000Y-67110000D01*
X156140000Y-68580000D02*
X155120000Y-68580000D01*
X149680000Y-67110000D02*
X149680000Y-70050000D01*
%TO.C,J1*%
X121080000Y-118630000D02*
X121830000Y-118630000D01*
X121840000Y-129440000D02*
X121840000Y-116820000D01*
X121080000Y-120130000D02*
X121080000Y-126130000D01*
X119580000Y-116830000D02*
X119580000Y-117580000D01*
X121080000Y-126130000D02*
X121830000Y-126130000D01*
X122130000Y-116530000D02*
X120880000Y-116530000D01*
X119580000Y-129430000D02*
X119580000Y-128680000D01*
X121830000Y-126130000D02*
X121830000Y-120130000D01*
X116630000Y-117580000D02*
X116630000Y-123130000D01*
X121080000Y-129430000D02*
X121830000Y-129430000D01*
X121840000Y-116820000D02*
X115870000Y-116820000D01*
X121830000Y-129430000D02*
X121830000Y-127630000D01*
X119580000Y-117580000D02*
X116630000Y-117580000D01*
X116630000Y-128680000D02*
X116630000Y-123130000D01*
X122130000Y-117780000D02*
X122130000Y-116530000D01*
X121080000Y-127630000D02*
X121080000Y-129430000D01*
X121830000Y-120130000D02*
X121080000Y-120130000D01*
X121830000Y-127630000D02*
X121080000Y-127630000D01*
X121830000Y-118630000D02*
X121830000Y-116830000D01*
X119580000Y-128680000D02*
X116630000Y-128680000D01*
X121830000Y-116830000D02*
X121080000Y-116830000D01*
X115870000Y-129440000D02*
X121840000Y-129440000D01*
X121080000Y-116830000D02*
X121080000Y-118630000D01*
X115870000Y-116820000D02*
X115870000Y-129440000D01*
%TO.C,J2*%
X122130000Y-91170000D02*
X122130000Y-89920000D01*
X115870000Y-102830000D02*
X121840000Y-102830000D01*
X119580000Y-102820000D02*
X119580000Y-102070000D01*
X121080000Y-99520000D02*
X121830000Y-99520000D01*
X116630000Y-102070000D02*
X116630000Y-96520000D01*
X121830000Y-93520000D02*
X121080000Y-93520000D01*
X121840000Y-90210000D02*
X115870000Y-90210000D01*
X121840000Y-102830000D02*
X121840000Y-90210000D01*
X121830000Y-90220000D02*
X121080000Y-90220000D01*
X116630000Y-90970000D02*
X116630000Y-96520000D01*
X121080000Y-102820000D02*
X121830000Y-102820000D01*
X119580000Y-90220000D02*
X119580000Y-90970000D01*
X121830000Y-92020000D02*
X121830000Y-90220000D01*
X121080000Y-92020000D02*
X121830000Y-92020000D01*
X119580000Y-90970000D02*
X116630000Y-90970000D01*
X119580000Y-102070000D02*
X116630000Y-102070000D01*
X115870000Y-90210000D02*
X115870000Y-102830000D01*
X121830000Y-99520000D02*
X121830000Y-93520000D01*
X121080000Y-90220000D02*
X121080000Y-92020000D01*
X121080000Y-101020000D02*
X121080000Y-102820000D01*
X121080000Y-93520000D02*
X121080000Y-99520000D01*
X121830000Y-102820000D02*
X121830000Y-101020000D01*
X121830000Y-101020000D02*
X121080000Y-101020000D01*
X122130000Y-89920000D02*
X120880000Y-89920000D01*
%TO.C,J3*%
X121840000Y-77430000D02*
X121840000Y-64810000D01*
X121830000Y-75620000D02*
X121080000Y-75620000D01*
X122130000Y-65770000D02*
X122130000Y-64520000D01*
X121080000Y-68120000D02*
X121080000Y-74120000D01*
X115870000Y-64810000D02*
X115870000Y-77430000D01*
X115870000Y-77430000D02*
X121840000Y-77430000D01*
X121830000Y-74120000D02*
X121830000Y-68120000D01*
X121830000Y-66620000D02*
X121830000Y-64820000D01*
X121830000Y-64820000D02*
X121080000Y-64820000D01*
X116630000Y-65570000D02*
X116630000Y-71120000D01*
X121840000Y-64810000D02*
X115870000Y-64810000D01*
X122130000Y-64520000D02*
X120880000Y-64520000D01*
X119580000Y-77420000D02*
X119580000Y-76670000D01*
X116630000Y-76670000D02*
X116630000Y-71120000D01*
X119580000Y-65570000D02*
X116630000Y-65570000D01*
X119580000Y-76670000D02*
X116630000Y-76670000D01*
X121080000Y-75620000D02*
X121080000Y-77420000D01*
X119580000Y-64820000D02*
X119580000Y-65570000D01*
X121830000Y-77420000D02*
X121830000Y-75620000D01*
X121830000Y-68120000D02*
X121080000Y-68120000D01*
X121080000Y-74120000D02*
X121830000Y-74120000D01*
X121080000Y-66620000D02*
X121830000Y-66620000D01*
X121080000Y-77420000D02*
X121830000Y-77420000D01*
X121080000Y-64820000D02*
X121080000Y-66620000D01*
%TO.C,J6*%
X160020000Y-56860000D02*
X149860000Y-56860000D01*
X149860000Y-56860000D02*
X149860000Y-65060000D01*
X149860000Y-65060000D02*
X160020000Y-65060000D01*
X160020000Y-65060000D02*
X160020000Y-56860000D01*
%TO.C,J8*%
X125695000Y-115570000D02*
X125695000Y-133410000D01*
X127025000Y-112970000D02*
X128355000Y-112970000D01*
X128355000Y-115570000D02*
X128355000Y-133410000D01*
X128355000Y-112970000D02*
X128355000Y-114300000D01*
X125695000Y-115570000D02*
X128355000Y-115570000D01*
X125695000Y-133410000D02*
X128355000Y-133410000D01*
%TO.C,J9*%
X138395000Y-133410000D02*
X141055000Y-133410000D01*
X138395000Y-115570000D02*
X138395000Y-133410000D01*
X138395000Y-115570000D02*
X141055000Y-115570000D01*
X139725000Y-112970000D02*
X141055000Y-112970000D01*
X141055000Y-115570000D02*
X141055000Y-133410000D01*
X141055000Y-112970000D02*
X141055000Y-114300000D01*
%TO.C,J10*%
X128355000Y-86315000D02*
X128355000Y-87645000D01*
X125695000Y-106755000D02*
X128355000Y-106755000D01*
X125695000Y-88915000D02*
X125695000Y-106755000D01*
X125695000Y-88915000D02*
X128355000Y-88915000D01*
X128355000Y-88915000D02*
X128355000Y-106755000D01*
X127025000Y-86315000D02*
X128355000Y-86315000D01*
%TO.C,J11*%
X138395000Y-88915000D02*
X141055000Y-88915000D01*
X138395000Y-106755000D02*
X141055000Y-106755000D01*
X141055000Y-86315000D02*
X141055000Y-87645000D01*
X141055000Y-88915000D02*
X141055000Y-106755000D01*
X138395000Y-88915000D02*
X138395000Y-106755000D01*
X139725000Y-86315000D02*
X141055000Y-86315000D01*
%TO.C,J12*%
X125695000Y-81355000D02*
X128355000Y-81355000D01*
X128355000Y-63515000D02*
X128355000Y-81355000D01*
X125695000Y-63515000D02*
X128355000Y-63515000D01*
X127025000Y-60915000D02*
X128355000Y-60915000D01*
X125695000Y-63515000D02*
X125695000Y-81355000D01*
X128355000Y-60915000D02*
X128355000Y-62245000D01*
%TO.C,J13*%
X139725000Y-60915000D02*
X141055000Y-60915000D01*
X138395000Y-63515000D02*
X141055000Y-63515000D01*
X138395000Y-81355000D02*
X141055000Y-81355000D01*
X141055000Y-60915000D02*
X141055000Y-62245000D01*
X138395000Y-63515000D02*
X138395000Y-81355000D01*
X141055000Y-63515000D02*
X141055000Y-81355000D01*
%TO.C,J14*%
X185500000Y-93960000D02*
X191470000Y-93960000D01*
X186260000Y-85650000D02*
X186260000Y-83850000D01*
X185510000Y-85650000D02*
X186260000Y-85650000D01*
X185510000Y-87150000D02*
X185510000Y-90650000D01*
X185510000Y-83850000D02*
X185510000Y-85650000D01*
X185500000Y-83840000D02*
X185500000Y-93960000D01*
X187760000Y-84600000D02*
X190710000Y-84600000D01*
X186260000Y-93950000D02*
X186260000Y-92150000D01*
X187760000Y-93200000D02*
X190710000Y-93200000D01*
X185510000Y-90650000D02*
X186260000Y-90650000D01*
X187760000Y-93950000D02*
X187760000Y-93200000D01*
X185210000Y-93000000D02*
X185210000Y-94250000D01*
X185210000Y-94250000D02*
X186460000Y-94250000D01*
X190710000Y-93200000D02*
X190710000Y-88900000D01*
X191470000Y-83840000D02*
X185500000Y-83840000D01*
X185510000Y-93950000D02*
X186260000Y-93950000D01*
X186260000Y-90650000D02*
X186260000Y-87150000D01*
X185510000Y-92150000D02*
X185510000Y-93950000D01*
X187760000Y-83850000D02*
X187760000Y-84600000D01*
X186260000Y-92150000D02*
X185510000Y-92150000D01*
X186260000Y-87150000D02*
X185510000Y-87150000D01*
X191470000Y-93960000D02*
X191470000Y-83840000D01*
X186260000Y-83850000D02*
X185510000Y-83850000D01*
X190710000Y-84600000D02*
X190710000Y-88900000D01*
%TO.C,J15*%
X190710000Y-97340000D02*
X190710000Y-101640000D01*
X186260000Y-99890000D02*
X185510000Y-99890000D01*
X187760000Y-106690000D02*
X187760000Y-105940000D01*
X185510000Y-99890000D02*
X185510000Y-103390000D01*
X185500000Y-106700000D02*
X191470000Y-106700000D01*
X186260000Y-104890000D02*
X185510000Y-104890000D01*
X185510000Y-103390000D02*
X186260000Y-103390000D01*
X191470000Y-106700000D02*
X191470000Y-96580000D01*
X186260000Y-96590000D02*
X185510000Y-96590000D01*
X187760000Y-96590000D02*
X187760000Y-97340000D01*
X186260000Y-106690000D02*
X186260000Y-104890000D01*
X187760000Y-105940000D02*
X190710000Y-105940000D01*
X185500000Y-96580000D02*
X185500000Y-106700000D01*
X185510000Y-96590000D02*
X185510000Y-98390000D01*
X190710000Y-105940000D02*
X190710000Y-101640000D01*
X185510000Y-106690000D02*
X186260000Y-106690000D01*
X185210000Y-105740000D02*
X185210000Y-106990000D01*
X187760000Y-97340000D02*
X190710000Y-97340000D01*
X185510000Y-104890000D02*
X185510000Y-106690000D01*
X185210000Y-106990000D02*
X186460000Y-106990000D01*
X185510000Y-98390000D02*
X186260000Y-98390000D01*
X191470000Y-96580000D02*
X185500000Y-96580000D01*
X186260000Y-98390000D02*
X186260000Y-96590000D01*
X186260000Y-103390000D02*
X186260000Y-99890000D01*
%TO.C,J16*%
X185510000Y-109290000D02*
X185510000Y-111090000D01*
X186260000Y-119390000D02*
X186260000Y-117590000D01*
X185510000Y-116090000D02*
X186260000Y-116090000D01*
X186260000Y-112590000D02*
X185510000Y-112590000D01*
X186260000Y-109290000D02*
X185510000Y-109290000D01*
X191470000Y-119400000D02*
X191470000Y-109280000D01*
X191470000Y-109280000D02*
X185500000Y-109280000D01*
X185500000Y-109280000D02*
X185500000Y-119400000D01*
X186260000Y-111090000D02*
X186260000Y-109290000D01*
X186260000Y-116090000D02*
X186260000Y-112590000D01*
X187760000Y-118640000D02*
X190710000Y-118640000D01*
X187760000Y-119390000D02*
X187760000Y-118640000D01*
X187760000Y-110040000D02*
X190710000Y-110040000D01*
X190710000Y-110040000D02*
X190710000Y-114340000D01*
X187760000Y-109290000D02*
X187760000Y-110040000D01*
X186260000Y-117590000D02*
X185510000Y-117590000D01*
X190710000Y-118640000D02*
X190710000Y-114340000D01*
X185510000Y-119390000D02*
X186260000Y-119390000D01*
X185510000Y-117590000D02*
X185510000Y-119390000D01*
X185210000Y-118440000D02*
X185210000Y-119690000D01*
X185500000Y-119400000D02*
X191470000Y-119400000D01*
X185210000Y-119690000D02*
X186460000Y-119690000D01*
X185510000Y-112590000D02*
X185510000Y-116090000D01*
X185510000Y-111090000D02*
X186260000Y-111090000D01*
%TO.C,Q1*%
X169450000Y-75510000D02*
X170960000Y-75510000D01*
X169450000Y-71809000D02*
X170960000Y-71809000D01*
X170960000Y-78780000D02*
X170960000Y-68540000D01*
X169450000Y-68540000D02*
X174091000Y-68540000D01*
X169450000Y-78780000D02*
X174091000Y-78780000D01*
X174091000Y-78780000D02*
X174091000Y-68540000D01*
X169450000Y-78780000D02*
X169450000Y-68540000D01*
%TO.C,J5*%
X162655000Y-64965000D02*
X172815000Y-64965000D01*
X172815000Y-64965000D02*
X172815000Y-56765000D01*
X172815000Y-56765000D02*
X162655000Y-56765000D01*
X162655000Y-56765000D02*
X162655000Y-64965000D01*
%TO.C,J18*%
X144999520Y-134550000D02*
X144999520Y-125920000D01*
X145590000Y-134550000D02*
X145590000Y-125920000D01*
X159920000Y-125920000D02*
X159920000Y-125510000D01*
X142990000Y-123350000D02*
X144320000Y-123350000D01*
X142990000Y-134550000D02*
X142990000Y-125920000D01*
X144527140Y-134550000D02*
X144527140Y-125920000D01*
X144054760Y-134550000D02*
X144054760Y-125920000D01*
X160830000Y-134550000D02*
X160830000Y-125920000D01*
X156660000Y-125920000D02*
X156660000Y-125510000D01*
X162460000Y-125920000D02*
X162460000Y-125510000D01*
X166820000Y-125920000D02*
X166820000Y-125510000D01*
X145353805Y-134550000D02*
X145353805Y-125920000D01*
X152300000Y-125920000D02*
X152300000Y-125510000D01*
X144645235Y-134550000D02*
X144645235Y-125920000D01*
X144172855Y-134550000D02*
X144172855Y-125920000D01*
X143228095Y-134550000D02*
X143228095Y-125920000D01*
X143936665Y-134550000D02*
X143936665Y-125920000D01*
X143464285Y-134550000D02*
X143464285Y-125920000D01*
X144290950Y-134550000D02*
X144290950Y-125920000D01*
X142990000Y-124460000D02*
X142990000Y-123350000D01*
X167540000Y-125920000D02*
X167540000Y-125510000D01*
X151580000Y-125920000D02*
X151580000Y-125510000D01*
X154840000Y-125920000D02*
X154840000Y-125510000D01*
X163370000Y-134550000D02*
X163370000Y-125920000D01*
X148130000Y-134550000D02*
X148130000Y-125920000D01*
X143346190Y-134550000D02*
X143346190Y-125920000D01*
X165910000Y-134550000D02*
X165910000Y-125920000D01*
X143700475Y-134550000D02*
X143700475Y-125920000D01*
X144881425Y-134550000D02*
X144881425Y-125920000D01*
X158290000Y-134550000D02*
X158290000Y-125920000D01*
X143960000Y-125920000D02*
X143960000Y-125570000D01*
X149040000Y-125920000D02*
X149040000Y-125510000D01*
X144409045Y-134550000D02*
X144409045Y-125920000D01*
X143818570Y-134550000D02*
X143818570Y-125920000D01*
X145471900Y-134550000D02*
X145471900Y-125920000D01*
X154120000Y-125920000D02*
X154120000Y-125510000D01*
X155750000Y-134550000D02*
X155750000Y-125920000D01*
X165000000Y-125920000D02*
X165000000Y-125510000D01*
X143110000Y-134550000D02*
X143110000Y-125920000D01*
X159200000Y-125920000D02*
X159200000Y-125510000D01*
X145117615Y-134550000D02*
X145117615Y-125920000D01*
X153210000Y-134550000D02*
X153210000Y-125920000D01*
X142990000Y-134550000D02*
X168510000Y-134550000D01*
X164280000Y-125920000D02*
X164280000Y-125510000D01*
X143582380Y-134550000D02*
X143582380Y-125920000D01*
X168510000Y-134550000D02*
X168510000Y-125920000D01*
X146500000Y-125920000D02*
X146500000Y-125510000D01*
X147220000Y-125920000D02*
X147220000Y-125510000D01*
X145235710Y-134550000D02*
X145235710Y-125920000D01*
X144763330Y-134550000D02*
X144763330Y-125920000D01*
X150670000Y-134550000D02*
X150670000Y-125920000D01*
X144680000Y-125920000D02*
X144680000Y-125570000D01*
X157380000Y-125920000D02*
X157380000Y-125510000D01*
X149760000Y-125920000D02*
X149760000Y-125510000D01*
X142990000Y-125920000D02*
X168510000Y-125920000D01*
X161740000Y-125920000D02*
X161740000Y-125510000D01*
%TO.C,C4*%
X136011000Y-87066000D02*
X136011000Y-90734000D01*
X135051000Y-89940000D02*
X135051000Y-91642000D01*
X135531000Y-86520000D02*
X135531000Y-87860000D01*
X135611000Y-89940000D02*
X135611000Y-91205000D01*
X135571000Y-86557000D02*
X135571000Y-87860000D01*
X135971000Y-87010000D02*
X135971000Y-90790000D01*
X135731000Y-86718000D02*
X135731000Y-91082000D01*
X135171000Y-89940000D02*
X135171000Y-91564000D01*
X135411000Y-86416000D02*
X135411000Y-87860000D01*
X133410000Y-85670000D02*
X133410000Y-92130000D01*
X133330000Y-85670000D02*
X133330000Y-92130000D01*
X133970000Y-89940000D02*
X133970000Y-92067000D01*
X134891000Y-86066000D02*
X134891000Y-87860000D01*
X129829759Y-87061000D02*
X130459759Y-87061000D01*
X135331000Y-86352000D02*
X135331000Y-87860000D01*
X134211000Y-89940000D02*
X134211000Y-92010000D01*
X134010000Y-89940000D02*
X134010000Y-92059000D01*
X133850000Y-85711000D02*
X133850000Y-87860000D01*
X135411000Y-89940000D02*
X135411000Y-91384000D01*
X133890000Y-85718000D02*
X133890000Y-87860000D01*
X135371000Y-86384000D02*
X135371000Y-87860000D01*
X134811000Y-86024000D02*
X134811000Y-87860000D01*
X136051000Y-87124000D02*
X136051000Y-90676000D01*
X134811000Y-89940000D02*
X134811000Y-91776000D01*
X134371000Y-89940000D02*
X134371000Y-91961000D01*
X133690000Y-89940000D02*
X133690000Y-92111000D01*
X134251000Y-89940000D02*
X134251000Y-91998000D01*
X133770000Y-89940000D02*
X133770000Y-92101000D01*
X135371000Y-89940000D02*
X135371000Y-91416000D01*
X136291000Y-87550000D02*
X136291000Y-90250000D01*
X134411000Y-85853000D02*
X134411000Y-87860000D01*
X135131000Y-89940000D02*
X135131000Y-91590000D01*
X135491000Y-86484000D02*
X135491000Y-87860000D01*
X136211000Y-87391000D02*
X136211000Y-90409000D01*
X135851000Y-86856000D02*
X135851000Y-90944000D01*
X134171000Y-85779000D02*
X134171000Y-87860000D01*
X134291000Y-85814000D02*
X134291000Y-87860000D01*
X135211000Y-89940000D02*
X135211000Y-91536000D01*
X134491000Y-85882000D02*
X134491000Y-87860000D01*
X135091000Y-89940000D02*
X135091000Y-91616000D01*
X134651000Y-85948000D02*
X134651000Y-87860000D01*
X135771000Y-86763000D02*
X135771000Y-91037000D01*
X133650000Y-85685000D02*
X133650000Y-87860000D01*
X136411000Y-87841000D02*
X136411000Y-89959000D01*
X134411000Y-89940000D02*
X134411000Y-91947000D01*
X134010000Y-85741000D02*
X134010000Y-87860000D01*
X135291000Y-86322000D02*
X135291000Y-87860000D01*
X134651000Y-89940000D02*
X134651000Y-91852000D01*
X134531000Y-85898000D02*
X134531000Y-87860000D01*
X133610000Y-85682000D02*
X133610000Y-87860000D01*
X133690000Y-85689000D02*
X133690000Y-87860000D01*
X133890000Y-89940000D02*
X133890000Y-92082000D01*
X134491000Y-89940000D02*
X134491000Y-91918000D01*
X134091000Y-89940000D02*
X134091000Y-92041000D01*
X134291000Y-89940000D02*
X134291000Y-91986000D01*
X135331000Y-89940000D02*
X135331000Y-91448000D01*
X134571000Y-89940000D02*
X134571000Y-91886000D01*
X134731000Y-85984000D02*
X134731000Y-87860000D01*
X136171000Y-87319000D02*
X136171000Y-90481000D01*
X135811000Y-86808000D02*
X135811000Y-90992000D01*
X135171000Y-86236000D02*
X135171000Y-87860000D01*
X135691000Y-86676000D02*
X135691000Y-91124000D01*
X133610000Y-89940000D02*
X133610000Y-92118000D01*
X135491000Y-89940000D02*
X135491000Y-91316000D01*
X136091000Y-87186000D02*
X136091000Y-90614000D01*
X134211000Y-85790000D02*
X134211000Y-87860000D01*
X134971000Y-86110000D02*
X134971000Y-87860000D01*
X135891000Y-86905000D02*
X135891000Y-90895000D01*
X134331000Y-85826000D02*
X134331000Y-87860000D01*
X134771000Y-89940000D02*
X134771000Y-91796000D01*
X134171000Y-89940000D02*
X134171000Y-92021000D01*
X134531000Y-89940000D02*
X134531000Y-91902000D01*
X136451000Y-87960000D02*
X136451000Y-89840000D01*
X135251000Y-86293000D02*
X135251000Y-87860000D01*
X136491000Y-88098000D02*
X136491000Y-89702000D01*
X136571000Y-88498000D02*
X136571000Y-89302000D01*
X133370000Y-85670000D02*
X133370000Y-92130000D01*
X134251000Y-85802000D02*
X134251000Y-87860000D01*
X136531000Y-88267000D02*
X136531000Y-89533000D01*
X134451000Y-89940000D02*
X134451000Y-91933000D01*
X135931000Y-86956000D02*
X135931000Y-90844000D01*
X133810000Y-89940000D02*
X133810000Y-92095000D01*
X135251000Y-89940000D02*
X135251000Y-91507000D01*
X134611000Y-89940000D02*
X134611000Y-91870000D01*
X135451000Y-86450000D02*
X135451000Y-87860000D01*
X136371000Y-87735000D02*
X136371000Y-90065000D01*
X133930000Y-85725000D02*
X133930000Y-87860000D01*
X134851000Y-89940000D02*
X134851000Y-91756000D01*
X133650000Y-89940000D02*
X133650000Y-92115000D01*
X134771000Y-86004000D02*
X134771000Y-87860000D01*
X130144759Y-86746000D02*
X130144759Y-87376000D01*
X135211000Y-86264000D02*
X135211000Y-87860000D01*
X135051000Y-86158000D02*
X135051000Y-87860000D01*
X134891000Y-89940000D02*
X134891000Y-91734000D01*
X134571000Y-85914000D02*
X134571000Y-87860000D01*
X135611000Y-86595000D02*
X135611000Y-87860000D01*
X134691000Y-85966000D02*
X134691000Y-87860000D01*
X133930000Y-89940000D02*
X133930000Y-92075000D01*
X136251000Y-87468000D02*
X136251000Y-90332000D01*
X135011000Y-89940000D02*
X135011000Y-91666000D01*
X133730000Y-89940000D02*
X133730000Y-92106000D01*
X134131000Y-89940000D02*
X134131000Y-92031000D01*
X133970000Y-85733000D02*
X133970000Y-87860000D01*
X135011000Y-86134000D02*
X135011000Y-87860000D01*
X134931000Y-86088000D02*
X134931000Y-87860000D01*
X136131000Y-87250000D02*
X136131000Y-90550000D01*
X134691000Y-89940000D02*
X134691000Y-91834000D01*
X135571000Y-89940000D02*
X135571000Y-91243000D01*
X133450000Y-85672000D02*
X133450000Y-92128000D01*
X135091000Y-86184000D02*
X135091000Y-87860000D01*
X133490000Y-85673000D02*
X133490000Y-92127000D01*
X134451000Y-85867000D02*
X134451000Y-87860000D01*
X135291000Y-89940000D02*
X135291000Y-91478000D01*
X136331000Y-87638000D02*
X136331000Y-90162000D01*
X133850000Y-89940000D02*
X133850000Y-92089000D01*
X135451000Y-89940000D02*
X135451000Y-91350000D01*
X134971000Y-89940000D02*
X134971000Y-91690000D01*
X134131000Y-85769000D02*
X134131000Y-87860000D01*
X133570000Y-85678000D02*
X133570000Y-87860000D01*
X134051000Y-89940000D02*
X134051000Y-92050000D01*
X135531000Y-89940000D02*
X135531000Y-91280000D01*
X134091000Y-85759000D02*
X134091000Y-87860000D01*
X135131000Y-86210000D02*
X135131000Y-87860000D01*
X133810000Y-85705000D02*
X133810000Y-87860000D01*
X134611000Y-85930000D02*
X134611000Y-87860000D01*
X134051000Y-85750000D02*
X134051000Y-87860000D01*
X133570000Y-89940000D02*
X133570000Y-92122000D01*
X134731000Y-89940000D02*
X134731000Y-91816000D01*
X134851000Y-86044000D02*
X134851000Y-87860000D01*
X135651000Y-86635000D02*
X135651000Y-91165000D01*
X133770000Y-85699000D02*
X133770000Y-87860000D01*
X134931000Y-89940000D02*
X134931000Y-91712000D01*
X134331000Y-89940000D02*
X134331000Y-91974000D01*
X133530000Y-85676000D02*
X133530000Y-92124000D01*
X133730000Y-85694000D02*
X133730000Y-87860000D01*
X134371000Y-85839000D02*
X134371000Y-87860000D01*
X136600000Y-88900000D02*
G75*
G03*
X136600000Y-88900000I-3270000J0D01*
G01*
%TO.C,J17*%
X169324285Y-134550000D02*
X169324285Y-125920000D01*
X170540000Y-125920000D02*
X170540000Y-125570000D01*
X182520000Y-125920000D02*
X182520000Y-125510000D01*
X169442380Y-134550000D02*
X169442380Y-125920000D01*
X171450000Y-134550000D02*
X171450000Y-125920000D01*
X168850000Y-123350000D02*
X170180000Y-123350000D01*
X184150000Y-134550000D02*
X184150000Y-125920000D01*
X176530000Y-134550000D02*
X176530000Y-125920000D01*
X179980000Y-125920000D02*
X179980000Y-125510000D01*
X169088095Y-134550000D02*
X169088095Y-125920000D01*
X173080000Y-125920000D02*
X173080000Y-125510000D01*
X181610000Y-134550000D02*
X181610000Y-125920000D01*
X169914760Y-134550000D02*
X169914760Y-125920000D01*
X169678570Y-134550000D02*
X169678570Y-125920000D01*
X170150950Y-134550000D02*
X170150950Y-125920000D01*
X169820000Y-125920000D02*
X169820000Y-125570000D01*
X185780000Y-125920000D02*
X185780000Y-125510000D01*
X170269045Y-134550000D02*
X170269045Y-125920000D01*
X170741425Y-134550000D02*
X170741425Y-125920000D01*
X168850000Y-134550000D02*
X189290000Y-134550000D01*
X168850000Y-134550000D02*
X168850000Y-125920000D01*
X171213805Y-134550000D02*
X171213805Y-125920000D01*
X180700000Y-125920000D02*
X180700000Y-125510000D01*
X177440000Y-125920000D02*
X177440000Y-125510000D01*
X171095710Y-134550000D02*
X171095710Y-125920000D01*
X168850000Y-125920000D02*
X189290000Y-125920000D01*
X183240000Y-125920000D02*
X183240000Y-125510000D01*
X169560475Y-134550000D02*
X169560475Y-125920000D01*
X186690000Y-134550000D02*
X186690000Y-125920000D01*
X174900000Y-125920000D02*
X174900000Y-125510000D01*
X172360000Y-125920000D02*
X172360000Y-125510000D01*
X169206190Y-134550000D02*
X169206190Y-125920000D01*
X168970000Y-134550000D02*
X168970000Y-125920000D01*
X170387140Y-134550000D02*
X170387140Y-125920000D01*
X169796665Y-134550000D02*
X169796665Y-125920000D01*
X179070000Y-134550000D02*
X179070000Y-125920000D01*
X171331900Y-134550000D02*
X171331900Y-125920000D01*
X168850000Y-124460000D02*
X168850000Y-123350000D01*
X187600000Y-125920000D02*
X187600000Y-125510000D01*
X189290000Y-134550000D02*
X189290000Y-125920000D01*
X170859520Y-134550000D02*
X170859520Y-125920000D01*
X170623330Y-134550000D02*
X170623330Y-125920000D01*
X173990000Y-134550000D02*
X173990000Y-125920000D01*
X170032855Y-134550000D02*
X170032855Y-125920000D01*
X175620000Y-125920000D02*
X175620000Y-125510000D01*
X170505235Y-134550000D02*
X170505235Y-125920000D01*
X178160000Y-125920000D02*
X178160000Y-125510000D01*
X170977615Y-134550000D02*
X170977615Y-125920000D01*
X188320000Y-125920000D02*
X188320000Y-125510000D01*
X185060000Y-125920000D02*
X185060000Y-125510000D01*
%TO.C,U1*%
X153219000Y-82651000D02*
X163460000Y-82651000D01*
X156490000Y-78010000D02*
X156490000Y-79520000D01*
X153219000Y-78010000D02*
X163460000Y-78010000D01*
X160190000Y-78010000D02*
X160190000Y-79520000D01*
X153219000Y-79520000D02*
X163460000Y-79520000D01*
X163460000Y-78010000D02*
X163460000Y-82651000D01*
X153219000Y-78010000D02*
X153219000Y-82651000D01*
%TO.C,C3*%
X136451000Y-115900000D02*
X136451000Y-117780000D01*
X134731000Y-113924000D02*
X134731000Y-115800000D01*
X135331000Y-117880000D02*
X135331000Y-119388000D01*
X136331000Y-115578000D02*
X136331000Y-118102000D01*
X134411000Y-117880000D02*
X134411000Y-119887000D01*
X133810000Y-113645000D02*
X133810000Y-115800000D01*
X134131000Y-113709000D02*
X134131000Y-115800000D01*
X135171000Y-117880000D02*
X135171000Y-119504000D01*
X134691000Y-113906000D02*
X134691000Y-115800000D01*
X134010000Y-117880000D02*
X134010000Y-119999000D01*
X135451000Y-114390000D02*
X135451000Y-115800000D01*
X134771000Y-113944000D02*
X134771000Y-115800000D01*
X135611000Y-114535000D02*
X135611000Y-115800000D01*
X136011000Y-115006000D02*
X136011000Y-118674000D01*
X135891000Y-114845000D02*
X135891000Y-118835000D01*
X133370000Y-113610000D02*
X133370000Y-120070000D01*
X136171000Y-115259000D02*
X136171000Y-118421000D01*
X135531000Y-117880000D02*
X135531000Y-119220000D01*
X135291000Y-117880000D02*
X135291000Y-119418000D01*
X134051000Y-113690000D02*
X134051000Y-115800000D01*
X133730000Y-113634000D02*
X133730000Y-115800000D01*
X134651000Y-117880000D02*
X134651000Y-119792000D01*
X134251000Y-113742000D02*
X134251000Y-115800000D01*
X135811000Y-114748000D02*
X135811000Y-118932000D01*
X134571000Y-113854000D02*
X134571000Y-115800000D01*
X135171000Y-114176000D02*
X135171000Y-115800000D01*
X135451000Y-117880000D02*
X135451000Y-119290000D01*
X133970000Y-117880000D02*
X133970000Y-120007000D01*
X134491000Y-113822000D02*
X134491000Y-115800000D01*
X134131000Y-117880000D02*
X134131000Y-119971000D01*
X135091000Y-117880000D02*
X135091000Y-119556000D01*
X133490000Y-113613000D02*
X133490000Y-120067000D01*
X136491000Y-116038000D02*
X136491000Y-117642000D01*
X134691000Y-117880000D02*
X134691000Y-119774000D01*
X130144759Y-114686000D02*
X130144759Y-115316000D01*
X133810000Y-117880000D02*
X133810000Y-120035000D01*
X134291000Y-113754000D02*
X134291000Y-115800000D01*
X133850000Y-117880000D02*
X133850000Y-120029000D01*
X135291000Y-114262000D02*
X135291000Y-115800000D01*
X135251000Y-114233000D02*
X135251000Y-115800000D01*
X133890000Y-113658000D02*
X133890000Y-115800000D01*
X135211000Y-117880000D02*
X135211000Y-119476000D01*
X133690000Y-113629000D02*
X133690000Y-115800000D01*
X134931000Y-117880000D02*
X134931000Y-119652000D01*
X135091000Y-114124000D02*
X135091000Y-115800000D01*
X135651000Y-114575000D02*
X135651000Y-119105000D01*
X133770000Y-113639000D02*
X133770000Y-115800000D01*
X135011000Y-117880000D02*
X135011000Y-119606000D01*
X135251000Y-117880000D02*
X135251000Y-119447000D01*
X134251000Y-117880000D02*
X134251000Y-119938000D01*
X133730000Y-117880000D02*
X133730000Y-120046000D01*
X134651000Y-113888000D02*
X134651000Y-115800000D01*
X134051000Y-117880000D02*
X134051000Y-119990000D01*
X135531000Y-114460000D02*
X135531000Y-115800000D01*
X135931000Y-114896000D02*
X135931000Y-118784000D01*
X135491000Y-114424000D02*
X135491000Y-115800000D01*
X133690000Y-117880000D02*
X133690000Y-120051000D01*
X134331000Y-113766000D02*
X134331000Y-115800000D01*
X135131000Y-117880000D02*
X135131000Y-119530000D01*
X136371000Y-115675000D02*
X136371000Y-118005000D01*
X135851000Y-114796000D02*
X135851000Y-118884000D01*
X134331000Y-117880000D02*
X134331000Y-119914000D01*
X134531000Y-117880000D02*
X134531000Y-119842000D01*
X135331000Y-114292000D02*
X135331000Y-115800000D01*
X133610000Y-117880000D02*
X133610000Y-120058000D01*
X135571000Y-114497000D02*
X135571000Y-115800000D01*
X133610000Y-113622000D02*
X133610000Y-115800000D01*
X135131000Y-114150000D02*
X135131000Y-115800000D01*
X134571000Y-117880000D02*
X134571000Y-119826000D01*
X135411000Y-117880000D02*
X135411000Y-119324000D01*
X135491000Y-117880000D02*
X135491000Y-119256000D01*
X134811000Y-117880000D02*
X134811000Y-119716000D01*
X134851000Y-113984000D02*
X134851000Y-115800000D01*
X133330000Y-113610000D02*
X133330000Y-120070000D01*
X134451000Y-113807000D02*
X134451000Y-115800000D01*
X134811000Y-113964000D02*
X134811000Y-115800000D01*
X133570000Y-113618000D02*
X133570000Y-115800000D01*
X136291000Y-115490000D02*
X136291000Y-118190000D01*
X134931000Y-114028000D02*
X134931000Y-115800000D01*
X135611000Y-117880000D02*
X135611000Y-119145000D01*
X136051000Y-115064000D02*
X136051000Y-118616000D01*
X134371000Y-117880000D02*
X134371000Y-119901000D01*
X133570000Y-117880000D02*
X133570000Y-120062000D01*
X134171000Y-113719000D02*
X134171000Y-115800000D01*
X136571000Y-116438000D02*
X136571000Y-117242000D01*
X134411000Y-113793000D02*
X134411000Y-115800000D01*
X134451000Y-117880000D02*
X134451000Y-119873000D01*
X136411000Y-115781000D02*
X136411000Y-117899000D01*
X135211000Y-114204000D02*
X135211000Y-115800000D01*
X136091000Y-115126000D02*
X136091000Y-118554000D01*
X133850000Y-113651000D02*
X133850000Y-115800000D01*
X134611000Y-117880000D02*
X134611000Y-119810000D01*
X133930000Y-113665000D02*
X133930000Y-115800000D01*
X133890000Y-117880000D02*
X133890000Y-120022000D01*
X134971000Y-114050000D02*
X134971000Y-115800000D01*
X134091000Y-117880000D02*
X134091000Y-119981000D01*
X135571000Y-117880000D02*
X135571000Y-119183000D01*
X134171000Y-117880000D02*
X134171000Y-119961000D01*
X134291000Y-117880000D02*
X134291000Y-119926000D01*
X129829759Y-115001000D02*
X130459759Y-115001000D01*
X134211000Y-117880000D02*
X134211000Y-119950000D01*
X134731000Y-117880000D02*
X134731000Y-119756000D01*
X135371000Y-117880000D02*
X135371000Y-119356000D01*
X135411000Y-114356000D02*
X135411000Y-115800000D01*
X136531000Y-116207000D02*
X136531000Y-117473000D01*
X135051000Y-114098000D02*
X135051000Y-115800000D01*
X134891000Y-117880000D02*
X134891000Y-119674000D01*
X135371000Y-114324000D02*
X135371000Y-115800000D01*
X134371000Y-113779000D02*
X134371000Y-115800000D01*
X133410000Y-113610000D02*
X133410000Y-120070000D01*
X134611000Y-113870000D02*
X134611000Y-115800000D01*
X134771000Y-117880000D02*
X134771000Y-119736000D01*
X135011000Y-114074000D02*
X135011000Y-115800000D01*
X134971000Y-117880000D02*
X134971000Y-119630000D01*
X133650000Y-117880000D02*
X133650000Y-120055000D01*
X134491000Y-117880000D02*
X134491000Y-119858000D01*
X134010000Y-113681000D02*
X134010000Y-115800000D01*
X136131000Y-115190000D02*
X136131000Y-118490000D01*
X133450000Y-113612000D02*
X133450000Y-120068000D01*
X136211000Y-115331000D02*
X136211000Y-118349000D01*
X133770000Y-117880000D02*
X133770000Y-120041000D01*
X136251000Y-115408000D02*
X136251000Y-118272000D01*
X135691000Y-114616000D02*
X135691000Y-119064000D01*
X133930000Y-117880000D02*
X133930000Y-120015000D01*
X135971000Y-114950000D02*
X135971000Y-118730000D01*
X134891000Y-114006000D02*
X134891000Y-115800000D01*
X134091000Y-113699000D02*
X134091000Y-115800000D01*
X134851000Y-117880000D02*
X134851000Y-119696000D01*
X133650000Y-113625000D02*
X133650000Y-115800000D01*
X133530000Y-113616000D02*
X133530000Y-120064000D01*
X135771000Y-114703000D02*
X135771000Y-118977000D01*
X134211000Y-113730000D02*
X134211000Y-115800000D01*
X135051000Y-117880000D02*
X135051000Y-119582000D01*
X134531000Y-113838000D02*
X134531000Y-115800000D01*
X133970000Y-113673000D02*
X133970000Y-115800000D01*
X135731000Y-114658000D02*
X135731000Y-119022000D01*
X136600000Y-116840000D02*
G75*
G03*
X136600000Y-116840000I-3270000J0D01*
G01*
%TO.C,C2*%
X154745000Y-118301000D02*
X144975000Y-118301000D01*
X156105000Y-115301000D02*
X143615000Y-115301000D01*
X152172000Y-120181000D02*
X147548000Y-120181000D01*
X155076000Y-117861000D02*
X151300000Y-117861000D01*
X153262000Y-119621000D02*
X146458000Y-119621000D01*
X156035000Y-115661000D02*
X151300000Y-115661000D01*
X155103000Y-117821000D02*
X151300000Y-117821000D01*
X150888000Y-120541000D02*
X148832000Y-120541000D01*
X148420000Y-116981000D02*
X144139000Y-116981000D01*
X154574000Y-118501000D02*
X145146000Y-118501000D01*
X155827000Y-116381000D02*
X151300000Y-116381000D01*
X148420000Y-117541000D02*
X144439000Y-117541000D01*
X152856000Y-119861000D02*
X146864000Y-119861000D01*
X153500000Y-119461000D02*
X146220000Y-119461000D01*
X155894000Y-116181000D02*
X151300000Y-116181000D01*
X156016000Y-115741000D02*
X151300000Y-115741000D01*
X148420000Y-117981000D02*
X144729000Y-117981000D01*
X153767000Y-119261000D02*
X145953000Y-119261000D01*
X148420000Y-116141000D02*
X143813000Y-116141000D01*
X153443000Y-119501000D02*
X146277000Y-119501000D01*
X148420000Y-116661000D02*
X143999000Y-116661000D01*
X155305000Y-117501000D02*
X151300000Y-117501000D01*
X148420000Y-115861000D02*
X143734000Y-115861000D01*
X154388000Y-118701000D02*
X145332000Y-118701000D01*
X148420000Y-115781000D02*
X143714000Y-115781000D01*
X156076000Y-115461000D02*
X151300000Y-115461000D01*
X148420000Y-115701000D02*
X143694000Y-115701000D01*
X148420000Y-115901000D02*
X143744000Y-115901000D01*
X148420000Y-117621000D02*
X144488000Y-117621000D01*
X156190000Y-114300000D02*
X143530000Y-114300000D01*
X155721000Y-116661000D02*
X151300000Y-116661000D01*
X148420000Y-115341000D02*
X143622000Y-115341000D01*
X148420000Y-116781000D02*
X144049000Y-116781000D01*
X148420000Y-115981000D02*
X143766000Y-115981000D01*
X156135000Y-115101000D02*
X143585000Y-115101000D01*
X152624000Y-119981000D02*
X147096000Y-119981000D01*
X155768000Y-116541000D02*
X151300000Y-116541000D01*
X156091000Y-115381000D02*
X151300000Y-115381000D01*
X148420000Y-117061000D02*
X144178000Y-117061000D01*
X156186000Y-114500000D02*
X143534000Y-114500000D01*
X155841000Y-116341000D02*
X151300000Y-116341000D01*
X148420000Y-117661000D02*
X144513000Y-117661000D01*
X154645000Y-118421000D02*
X145075000Y-118421000D01*
X155396000Y-117341000D02*
X151300000Y-117341000D01*
X155482000Y-117181000D02*
X151300000Y-117181000D01*
X154679000Y-118381000D02*
X145041000Y-118381000D01*
X148420000Y-115621000D02*
X143676000Y-115621000D01*
X155813000Y-116421000D02*
X151300000Y-116421000D01*
X154872000Y-118141000D02*
X151300000Y-118141000D01*
X148420000Y-117501000D02*
X144415000Y-117501000D01*
X152541000Y-120021000D02*
X147179000Y-120021000D01*
X152270000Y-120141000D02*
X147450000Y-120141000D01*
X156178000Y-114660000D02*
X143542000Y-114660000D01*
X154427000Y-118661000D02*
X145293000Y-118661000D01*
X155855000Y-116301000D02*
X151300000Y-116301000D01*
X154309000Y-118781000D02*
X145411000Y-118781000D01*
X156098000Y-115341000D02*
X151300000Y-115341000D01*
X148420000Y-118181000D02*
X144878000Y-118181000D01*
X154465000Y-118621000D02*
X145255000Y-118621000D01*
X153610000Y-119381000D02*
X146110000Y-119381000D01*
X155130000Y-117781000D02*
X151300000Y-117781000D01*
X153915000Y-119141000D02*
X145805000Y-119141000D01*
X148420000Y-115501000D02*
X143651000Y-115501000D01*
X153000000Y-119781000D02*
X146720000Y-119781000D01*
X155328000Y-117461000D02*
X151300000Y-117461000D01*
X153199000Y-119661000D02*
X146521000Y-119661000D01*
X155753000Y-116581000D02*
X151300000Y-116581000D01*
X155986000Y-115861000D02*
X151300000Y-115861000D01*
X154903000Y-118101000D02*
X151300000Y-118101000D01*
X151101000Y-120501000D02*
X148619000Y-120501000D01*
X155799000Y-116461000D02*
X151300000Y-116461000D01*
X151443000Y-120421000D02*
X148277000Y-120421000D01*
X155599000Y-116941000D02*
X151300000Y-116941000D01*
X148420000Y-115541000D02*
X143659000Y-115541000D01*
X152929000Y-119821000D02*
X146791000Y-119821000D01*
X154060000Y-108067918D02*
X152810000Y-108067918D01*
X148420000Y-118061000D02*
X144787000Y-118061000D01*
X156184000Y-114540000D02*
X143536000Y-114540000D01*
X155919000Y-116101000D02*
X151300000Y-116101000D01*
X152364000Y-120101000D02*
X147356000Y-120101000D01*
X154842000Y-118181000D02*
X151300000Y-118181000D01*
X153716000Y-119301000D02*
X146004000Y-119301000D01*
X155440000Y-117261000D02*
X151300000Y-117261000D01*
X148420000Y-117941000D02*
X144700000Y-117941000D01*
X148420000Y-116421000D02*
X143907000Y-116421000D01*
X148420000Y-116621000D02*
X143983000Y-116621000D01*
X148420000Y-117701000D02*
X144538000Y-117701000D01*
X155048000Y-117901000D02*
X151300000Y-117901000D01*
X155907000Y-116141000D02*
X151300000Y-116141000D01*
X156124000Y-115181000D02*
X143596000Y-115181000D01*
X154991000Y-117981000D02*
X151300000Y-117981000D01*
X155954000Y-115981000D02*
X151300000Y-115981000D01*
X155997000Y-115821000D02*
X151300000Y-115821000D01*
X152781000Y-119901000D02*
X146939000Y-119901000D01*
X148420000Y-117821000D02*
X144617000Y-117821000D01*
X153867000Y-119181000D02*
X145853000Y-119181000D01*
X152069000Y-120221000D02*
X147651000Y-120221000D01*
X153962000Y-119101000D02*
X145758000Y-119101000D01*
X155156000Y-117741000D02*
X151300000Y-117741000D01*
X156190000Y-114260000D02*
X143530000Y-114260000D01*
X156150000Y-114981000D02*
X143570000Y-114981000D01*
X155257000Y-117581000D02*
X151300000Y-117581000D01*
X156189000Y-114380000D02*
X143531000Y-114380000D01*
X155688000Y-116741000D02*
X151300000Y-116741000D01*
X148420000Y-117861000D02*
X144644000Y-117861000D01*
X148420000Y-117781000D02*
X144590000Y-117781000D01*
X154810000Y-118221000D02*
X144910000Y-118221000D01*
X148420000Y-116181000D02*
X143826000Y-116181000D01*
X154349000Y-118741000D02*
X145371000Y-118741000D01*
X154933000Y-118061000D02*
X151300000Y-118061000D01*
X148420000Y-116461000D02*
X143921000Y-116461000D01*
X153435000Y-107442918D02*
X153435000Y-108692918D01*
X148420000Y-117341000D02*
X144324000Y-117341000D01*
X155636000Y-116861000D02*
X151300000Y-116861000D01*
X148420000Y-116701000D02*
X144015000Y-116701000D01*
X155522000Y-117101000D02*
X151300000Y-117101000D01*
X155351000Y-117421000D02*
X151300000Y-117421000D01*
X148420000Y-117421000D02*
X144369000Y-117421000D01*
X154610000Y-118461000D02*
X145110000Y-118461000D01*
X155784000Y-116501000D02*
X151300000Y-116501000D01*
X151960000Y-120261000D02*
X147760000Y-120261000D01*
X148420000Y-116861000D02*
X144084000Y-116861000D01*
X156140000Y-115061000D02*
X143580000Y-115061000D01*
X155737000Y-116621000D02*
X151300000Y-116621000D01*
X155182000Y-117701000D02*
X151300000Y-117701000D01*
X148420000Y-116101000D02*
X143801000Y-116101000D01*
X155653000Y-116821000D02*
X151300000Y-116821000D01*
X156112000Y-115261000D02*
X143608000Y-115261000D01*
X156118000Y-115221000D02*
X143602000Y-115221000D01*
X155502000Y-117141000D02*
X151300000Y-117141000D01*
X156026000Y-115701000D02*
X151300000Y-115701000D01*
X155562000Y-117021000D02*
X151300000Y-117021000D01*
X148420000Y-116021000D02*
X143777000Y-116021000D01*
X156145000Y-115021000D02*
X143575000Y-115021000D01*
X148420000Y-117221000D02*
X144259000Y-117221000D01*
X148420000Y-116301000D02*
X143865000Y-116301000D01*
X156180000Y-114620000D02*
X143540000Y-114620000D01*
X156069000Y-115501000D02*
X151300000Y-115501000D01*
X156158000Y-114900000D02*
X143562000Y-114900000D01*
X155281000Y-117541000D02*
X151300000Y-117541000D01*
X151844000Y-120301000D02*
X147876000Y-120301000D01*
X148420000Y-117581000D02*
X144463000Y-117581000D01*
X155931000Y-116061000D02*
X151300000Y-116061000D01*
X155705000Y-116701000D02*
X151300000Y-116701000D01*
X148420000Y-116941000D02*
X144121000Y-116941000D01*
X155976000Y-115901000D02*
X151300000Y-115901000D01*
X148420000Y-116061000D02*
X143789000Y-116061000D01*
X155943000Y-116021000D02*
X151300000Y-116021000D01*
X154538000Y-118541000D02*
X145182000Y-118541000D01*
X148420000Y-116341000D02*
X143879000Y-116341000D01*
X148420000Y-115421000D02*
X143636000Y-115421000D01*
X148420000Y-117301000D02*
X144302000Y-117301000D01*
X151588000Y-120381000D02*
X148132000Y-120381000D01*
X148420000Y-117741000D02*
X144564000Y-117741000D01*
X148420000Y-115461000D02*
X143644000Y-115461000D01*
X151282000Y-120461000D02*
X148438000Y-120461000D01*
X156154000Y-114940000D02*
X143566000Y-114940000D01*
X156162000Y-114860000D02*
X143558000Y-114860000D01*
X154268000Y-118821000D02*
X145452000Y-118821000D01*
X148420000Y-117901000D02*
X144672000Y-117901000D01*
X148420000Y-115581000D02*
X143668000Y-115581000D01*
X154227000Y-118861000D02*
X145493000Y-118861000D01*
X150177000Y-120621000D02*
X149543000Y-120621000D01*
X156044000Y-115621000D02*
X151300000Y-115621000D01*
X152454000Y-120061000D02*
X147266000Y-120061000D01*
X155418000Y-117301000D02*
X151300000Y-117301000D01*
X148420000Y-115741000D02*
X143704000Y-115741000D01*
X153324000Y-119581000D02*
X146396000Y-119581000D01*
X154054000Y-119021000D02*
X145666000Y-119021000D01*
X148420000Y-116821000D02*
X144067000Y-116821000D01*
X156129000Y-115141000D02*
X143591000Y-115141000D01*
X154008000Y-119061000D02*
X145712000Y-119061000D01*
X148420000Y-115661000D02*
X143685000Y-115661000D01*
X156187000Y-114460000D02*
X143533000Y-114460000D01*
X155461000Y-117221000D02*
X151300000Y-117221000D01*
X153384000Y-119541000D02*
X146336000Y-119541000D01*
X153817000Y-119221000D02*
X145903000Y-119221000D01*
X148420000Y-117021000D02*
X144158000Y-117021000D01*
X148420000Y-117181000D02*
X144238000Y-117181000D01*
X156169000Y-114780000D02*
X143551000Y-114780000D01*
X148420000Y-117461000D02*
X144392000Y-117461000D01*
X148420000Y-116901000D02*
X144102000Y-116901000D01*
X154778000Y-118261000D02*
X144942000Y-118261000D01*
X155020000Y-117941000D02*
X151300000Y-117941000D01*
X148420000Y-117261000D02*
X144280000Y-117261000D01*
X155207000Y-117661000D02*
X151300000Y-117661000D01*
X148420000Y-116221000D02*
X143839000Y-116221000D01*
X155881000Y-116221000D02*
X151300000Y-116221000D01*
X148420000Y-115941000D02*
X143755000Y-115941000D01*
X154098000Y-118981000D02*
X145622000Y-118981000D01*
X156166000Y-114820000D02*
X143554000Y-114820000D01*
X152704000Y-119941000D02*
X147016000Y-119941000D01*
X150617000Y-120581000D02*
X149103000Y-120581000D01*
X156052000Y-115581000D02*
X151300000Y-115581000D01*
X148420000Y-116541000D02*
X143952000Y-116541000D01*
X155965000Y-115941000D02*
X151300000Y-115941000D01*
X154142000Y-118941000D02*
X145578000Y-118941000D01*
X153068000Y-119741000D02*
X146652000Y-119741000D01*
X148420000Y-115821000D02*
X143723000Y-115821000D01*
X148420000Y-118021000D02*
X144758000Y-118021000D01*
X155581000Y-116981000D02*
X151300000Y-116981000D01*
X148420000Y-117101000D02*
X144198000Y-117101000D01*
X155232000Y-117621000D02*
X151300000Y-117621000D01*
X156175000Y-114700000D02*
X143545000Y-114700000D01*
X155374000Y-117381000D02*
X151300000Y-117381000D01*
X153135000Y-119701000D02*
X146585000Y-119701000D01*
X148420000Y-116501000D02*
X143936000Y-116501000D01*
X156188000Y-114420000D02*
X143532000Y-114420000D01*
X153556000Y-119421000D02*
X146164000Y-119421000D01*
X155618000Y-116901000D02*
X151300000Y-116901000D01*
X154962000Y-118021000D02*
X151300000Y-118021000D01*
X156084000Y-115421000D02*
X151300000Y-115421000D01*
X148420000Y-116741000D02*
X144032000Y-116741000D01*
X148420000Y-117141000D02*
X144218000Y-117141000D01*
X154185000Y-118901000D02*
X145535000Y-118901000D01*
X148420000Y-116261000D02*
X143852000Y-116261000D01*
X156061000Y-115541000D02*
X151300000Y-115541000D01*
X148420000Y-117381000D02*
X144346000Y-117381000D01*
X148420000Y-118101000D02*
X144817000Y-118101000D01*
X153664000Y-119341000D02*
X146056000Y-119341000D01*
X155542000Y-117061000D02*
X151300000Y-117061000D01*
X156190000Y-114340000D02*
X143530000Y-114340000D01*
X151721000Y-120341000D02*
X147999000Y-120341000D01*
X156182000Y-114580000D02*
X143538000Y-114580000D01*
X148420000Y-115381000D02*
X143629000Y-115381000D01*
X156006000Y-115781000D02*
X151300000Y-115781000D01*
X155671000Y-116781000D02*
X151300000Y-116781000D01*
X154502000Y-118581000D02*
X145218000Y-118581000D01*
X148420000Y-116381000D02*
X143893000Y-116381000D01*
X148420000Y-118141000D02*
X144848000Y-118141000D01*
X156172000Y-114740000D02*
X143548000Y-114740000D01*
X154712000Y-118341000D02*
X145008000Y-118341000D01*
X155868000Y-116261000D02*
X151300000Y-116261000D01*
X148420000Y-116581000D02*
X143967000Y-116581000D01*
X156230000Y-114260000D02*
G75*
G03*
X156230000Y-114260000I-6370000J0D01*
G01*
%TO.C,D2*%
X157690000Y-86180000D02*
X157690000Y-91620000D01*
X159115000Y-86180000D02*
X159115000Y-91620000D01*
X159235000Y-86180000D02*
X159235000Y-91620000D01*
X167430000Y-91620000D02*
X167430000Y-86180000D01*
X157690000Y-91620000D02*
X167430000Y-91620000D01*
X167430000Y-86180000D02*
X157690000Y-86180000D01*
X159355000Y-86180000D02*
X159355000Y-91620000D01*
X156780000Y-88900000D02*
X157690000Y-88900000D01*
X168340000Y-88900000D02*
X167430000Y-88900000D01*
%TO.C,R1*%
X155670000Y-72290000D02*
X149130000Y-72290000D01*
X156440000Y-73660000D02*
X155670000Y-73660000D01*
X148360000Y-73660000D02*
X149130000Y-73660000D01*
X155670000Y-75030000D02*
X155670000Y-72290000D01*
X149130000Y-75030000D02*
X155670000Y-75030000D01*
X149130000Y-72290000D02*
X149130000Y-75030000D01*
%TO.C,C5*%
X134611000Y-60530000D02*
X134611000Y-62460000D01*
X134691000Y-64540000D02*
X134691000Y-66434000D01*
X133690000Y-60289000D02*
X133690000Y-62460000D01*
X135811000Y-61408000D02*
X135811000Y-65592000D01*
X135571000Y-61157000D02*
X135571000Y-62460000D01*
X134411000Y-64540000D02*
X134411000Y-66547000D01*
X134010000Y-64540000D02*
X134010000Y-66659000D01*
X134251000Y-60402000D02*
X134251000Y-62460000D01*
X134731000Y-60584000D02*
X134731000Y-62460000D01*
X135211000Y-60864000D02*
X135211000Y-62460000D01*
X136051000Y-61724000D02*
X136051000Y-65276000D01*
X133850000Y-60311000D02*
X133850000Y-62460000D01*
X134931000Y-60688000D02*
X134931000Y-62460000D01*
X135051000Y-64540000D02*
X135051000Y-66242000D01*
X133890000Y-60318000D02*
X133890000Y-62460000D01*
X135371000Y-60984000D02*
X135371000Y-62460000D01*
X134491000Y-64540000D02*
X134491000Y-66518000D01*
X134051000Y-60350000D02*
X134051000Y-62460000D01*
X134451000Y-60467000D02*
X134451000Y-62460000D01*
X134771000Y-60604000D02*
X134771000Y-62460000D01*
X135611000Y-64540000D02*
X135611000Y-65805000D01*
X134891000Y-64540000D02*
X134891000Y-66334000D01*
X135131000Y-60810000D02*
X135131000Y-62460000D01*
X133690000Y-64540000D02*
X133690000Y-66711000D01*
X133810000Y-60305000D02*
X133810000Y-62460000D01*
X134691000Y-60566000D02*
X134691000Y-62460000D01*
X134331000Y-64540000D02*
X134331000Y-66574000D01*
X134131000Y-64540000D02*
X134131000Y-66631000D01*
X133530000Y-60276000D02*
X133530000Y-66724000D01*
X135291000Y-64540000D02*
X135291000Y-66078000D01*
X135851000Y-61456000D02*
X135851000Y-65544000D01*
X135491000Y-61084000D02*
X135491000Y-62460000D01*
X135931000Y-61556000D02*
X135931000Y-65444000D01*
X136011000Y-61666000D02*
X136011000Y-65334000D01*
X134131000Y-60369000D02*
X134131000Y-62460000D01*
X136531000Y-62867000D02*
X136531000Y-64133000D01*
X133730000Y-60294000D02*
X133730000Y-62460000D01*
X134331000Y-60426000D02*
X134331000Y-62460000D01*
X136491000Y-62698000D02*
X136491000Y-64302000D01*
X135451000Y-61050000D02*
X135451000Y-62460000D01*
X135531000Y-61120000D02*
X135531000Y-62460000D01*
X129829759Y-61661000D02*
X130459759Y-61661000D01*
X130144759Y-61346000D02*
X130144759Y-61976000D01*
X134571000Y-64540000D02*
X134571000Y-66486000D01*
X134931000Y-64540000D02*
X134931000Y-66312000D01*
X135651000Y-61235000D02*
X135651000Y-65765000D01*
X134811000Y-60624000D02*
X134811000Y-62460000D01*
X135411000Y-61016000D02*
X135411000Y-62460000D01*
X133970000Y-64540000D02*
X133970000Y-66667000D01*
X133330000Y-60270000D02*
X133330000Y-66730000D01*
X133890000Y-64540000D02*
X133890000Y-66682000D01*
X134451000Y-64540000D02*
X134451000Y-66533000D01*
X134371000Y-64540000D02*
X134371000Y-66561000D01*
X134291000Y-60414000D02*
X134291000Y-62460000D01*
X134491000Y-60482000D02*
X134491000Y-62460000D01*
X134571000Y-60514000D02*
X134571000Y-62460000D01*
X133490000Y-60273000D02*
X133490000Y-66727000D01*
X134171000Y-60379000D02*
X134171000Y-62460000D01*
X135131000Y-64540000D02*
X135131000Y-66190000D01*
X136411000Y-62441000D02*
X136411000Y-64559000D01*
X135491000Y-64540000D02*
X135491000Y-65916000D01*
X133610000Y-60282000D02*
X133610000Y-62460000D01*
X133650000Y-60285000D02*
X133650000Y-62460000D01*
X135531000Y-64540000D02*
X135531000Y-65880000D01*
X133930000Y-60325000D02*
X133930000Y-62460000D01*
X135171000Y-60836000D02*
X135171000Y-62460000D01*
X135891000Y-61505000D02*
X135891000Y-65495000D01*
X133770000Y-60299000D02*
X133770000Y-62460000D01*
X133770000Y-64540000D02*
X133770000Y-66701000D01*
X136451000Y-62560000D02*
X136451000Y-64440000D01*
X134051000Y-64540000D02*
X134051000Y-66650000D01*
X134171000Y-64540000D02*
X134171000Y-66621000D01*
X135251000Y-64540000D02*
X135251000Y-66107000D01*
X133970000Y-60333000D02*
X133970000Y-62460000D01*
X134211000Y-60390000D02*
X134211000Y-62460000D01*
X133570000Y-64540000D02*
X133570000Y-66722000D01*
X134251000Y-64540000D02*
X134251000Y-66598000D01*
X135331000Y-60952000D02*
X135331000Y-62460000D01*
X135771000Y-61363000D02*
X135771000Y-65637000D01*
X135011000Y-60734000D02*
X135011000Y-62460000D01*
X133610000Y-64540000D02*
X133610000Y-66718000D01*
X134851000Y-60644000D02*
X134851000Y-62460000D01*
X135291000Y-60922000D02*
X135291000Y-62460000D01*
X134531000Y-64540000D02*
X134531000Y-66502000D01*
X133810000Y-64540000D02*
X133810000Y-66695000D01*
X134010000Y-60341000D02*
X134010000Y-62460000D01*
X133410000Y-60270000D02*
X133410000Y-66730000D01*
X136291000Y-62150000D02*
X136291000Y-64850000D01*
X133930000Y-64540000D02*
X133930000Y-66675000D01*
X135971000Y-61610000D02*
X135971000Y-65390000D01*
X134651000Y-64540000D02*
X134651000Y-66452000D01*
X134971000Y-60710000D02*
X134971000Y-62460000D01*
X134291000Y-64540000D02*
X134291000Y-66586000D01*
X135171000Y-64540000D02*
X135171000Y-66164000D01*
X134371000Y-60439000D02*
X134371000Y-62460000D01*
X135091000Y-60784000D02*
X135091000Y-62460000D01*
X134651000Y-60548000D02*
X134651000Y-62460000D01*
X135611000Y-61195000D02*
X135611000Y-62460000D01*
X134091000Y-60359000D02*
X134091000Y-62460000D01*
X136091000Y-61786000D02*
X136091000Y-65214000D01*
X133370000Y-60270000D02*
X133370000Y-66730000D01*
X134411000Y-60453000D02*
X134411000Y-62460000D01*
X135011000Y-64540000D02*
X135011000Y-66266000D01*
X136371000Y-62335000D02*
X136371000Y-64665000D01*
X134731000Y-64540000D02*
X134731000Y-66416000D01*
X133650000Y-64540000D02*
X133650000Y-66715000D01*
X134811000Y-64540000D02*
X134811000Y-66376000D01*
X134211000Y-64540000D02*
X134211000Y-66610000D01*
X135251000Y-60893000D02*
X135251000Y-62460000D01*
X135331000Y-64540000D02*
X135331000Y-66048000D01*
X136171000Y-61919000D02*
X136171000Y-65081000D01*
X134891000Y-60666000D02*
X134891000Y-62460000D01*
X136251000Y-62068000D02*
X136251000Y-64932000D01*
X133730000Y-64540000D02*
X133730000Y-66706000D01*
X134531000Y-60498000D02*
X134531000Y-62460000D01*
X133850000Y-64540000D02*
X133850000Y-66689000D01*
X136571000Y-63098000D02*
X136571000Y-63902000D01*
X136331000Y-62238000D02*
X136331000Y-64762000D01*
X135691000Y-61276000D02*
X135691000Y-65724000D01*
X134971000Y-64540000D02*
X134971000Y-66290000D01*
X136211000Y-61991000D02*
X136211000Y-65009000D01*
X135371000Y-64540000D02*
X135371000Y-66016000D01*
X135211000Y-64540000D02*
X135211000Y-66136000D01*
X136131000Y-61850000D02*
X136131000Y-65150000D01*
X135411000Y-64540000D02*
X135411000Y-65984000D01*
X135731000Y-61318000D02*
X135731000Y-65682000D01*
X133450000Y-60272000D02*
X133450000Y-66728000D01*
X134771000Y-64540000D02*
X134771000Y-66396000D01*
X134611000Y-64540000D02*
X134611000Y-66470000D01*
X134091000Y-64540000D02*
X134091000Y-66641000D01*
X135571000Y-64540000D02*
X135571000Y-65843000D01*
X135051000Y-60758000D02*
X135051000Y-62460000D01*
X135451000Y-64540000D02*
X135451000Y-65950000D01*
X135091000Y-64540000D02*
X135091000Y-66216000D01*
X133570000Y-60278000D02*
X133570000Y-62460000D01*
X134851000Y-64540000D02*
X134851000Y-66356000D01*
X136600000Y-63500000D02*
G75*
G03*
X136600000Y-63500000I-3270000J0D01*
G01*
%TO.C,C1*%
X146280000Y-83571000D02*
X144259000Y-83571000D01*
X148901000Y-85371000D02*
X145739000Y-85371000D01*
X146280000Y-82810000D02*
X144102000Y-82810000D01*
X146280000Y-83931000D02*
X144404000Y-83931000D01*
X147953000Y-85731000D02*
X146687000Y-85731000D01*
X146280000Y-84731000D02*
X144940000Y-84731000D01*
X150531000Y-82890000D02*
X148360000Y-82890000D01*
X150132000Y-84131000D02*
X148360000Y-84131000D01*
X150441000Y-83371000D02*
X148360000Y-83371000D01*
X150196000Y-84011000D02*
X148360000Y-84011000D01*
X148260000Y-85651000D02*
X146380000Y-85651000D01*
X146280000Y-84331000D02*
X144630000Y-84331000D01*
X148379000Y-85611000D02*
X146261000Y-85611000D01*
X146280000Y-83411000D02*
X144210000Y-83411000D01*
X147722000Y-85771000D02*
X146918000Y-85771000D01*
X150521000Y-82970000D02*
X148360000Y-82970000D01*
X150495000Y-83130000D02*
X148360000Y-83130000D01*
X146280000Y-83611000D02*
X144273000Y-83611000D01*
X146280000Y-82770000D02*
X144098000Y-82770000D01*
X148829000Y-85411000D02*
X145811000Y-85411000D01*
X146280000Y-83651000D02*
X144287000Y-83651000D01*
X149898000Y-84491000D02*
X148360000Y-84491000D01*
X146280000Y-84171000D02*
X144530000Y-84171000D01*
X150010000Y-84331000D02*
X148360000Y-84331000D01*
X146280000Y-82890000D02*
X144109000Y-82890000D01*
X150418000Y-83451000D02*
X148360000Y-83451000D01*
X146280000Y-83731000D02*
X144318000Y-83731000D01*
X146280000Y-83811000D02*
X144350000Y-83811000D01*
X150526000Y-82930000D02*
X148360000Y-82930000D01*
X149984000Y-84371000D02*
X148360000Y-84371000D01*
X146280000Y-84571000D02*
X144804000Y-84571000D01*
X148752000Y-85451000D02*
X145888000Y-85451000D01*
X150086000Y-84211000D02*
X148360000Y-84211000D01*
X150322000Y-83731000D02*
X148360000Y-83731000D01*
X146280000Y-83891000D02*
X144386000Y-83891000D01*
X146280000Y-83251000D02*
X144170000Y-83251000D01*
X150176000Y-84051000D02*
X148360000Y-84051000D01*
X148485000Y-85571000D02*
X146155000Y-85571000D01*
X149364000Y-85051000D02*
X145276000Y-85051000D01*
X149210000Y-85171000D02*
X145430000Y-85171000D01*
X149736000Y-84691000D02*
X148360000Y-84691000D01*
X149457000Y-84971000D02*
X145183000Y-84971000D01*
X149804000Y-84611000D02*
X148360000Y-84611000D01*
X150461000Y-83291000D02*
X148360000Y-83291000D01*
X146280000Y-84531000D02*
X144772000Y-84531000D01*
X146280000Y-84451000D02*
X144713000Y-84451000D01*
X150338000Y-83691000D02*
X148360000Y-83691000D01*
X146280000Y-83971000D02*
X144424000Y-83971000D01*
X149770000Y-84651000D02*
X148360000Y-84651000D01*
X146280000Y-82970000D02*
X144119000Y-82970000D01*
X146280000Y-83331000D02*
X144189000Y-83331000D01*
X149836000Y-84571000D02*
X148360000Y-84571000D01*
X146280000Y-84651000D02*
X144870000Y-84651000D01*
X146280000Y-84371000D02*
X144656000Y-84371000D01*
X150062000Y-84251000D02*
X148360000Y-84251000D01*
X149502000Y-84931000D02*
X145138000Y-84931000D01*
X146280000Y-82930000D02*
X144114000Y-82930000D01*
X146280000Y-84691000D02*
X144904000Y-84691000D01*
X150509000Y-83050000D02*
X148360000Y-83050000D01*
X150154000Y-84091000D02*
X148360000Y-84091000D01*
X146280000Y-84291000D02*
X144604000Y-84291000D01*
X150406000Y-83491000D02*
X148360000Y-83491000D01*
X150479000Y-83210000D02*
X148360000Y-83210000D01*
X146280000Y-84611000D02*
X144836000Y-84611000D01*
X146280000Y-83491000D02*
X144234000Y-83491000D01*
X146280000Y-84771000D02*
X144977000Y-84771000D01*
X148670000Y-85491000D02*
X145970000Y-85491000D01*
X150470000Y-83251000D02*
X148360000Y-83251000D01*
X150542000Y-82770000D02*
X148360000Y-82770000D01*
X150535000Y-82850000D02*
X148360000Y-82850000D01*
X146280000Y-83090000D02*
X144138000Y-83090000D01*
X149264000Y-85131000D02*
X145376000Y-85131000D01*
X146280000Y-83291000D02*
X144179000Y-83291000D01*
X149663000Y-84771000D02*
X148360000Y-84771000D01*
X150550000Y-82610000D02*
X144090000Y-82610000D01*
X150550000Y-82530000D02*
X144090000Y-82530000D01*
X150487000Y-83170000D02*
X148360000Y-83170000D01*
X150306000Y-83771000D02*
X148360000Y-83771000D01*
X150430000Y-83411000D02*
X148360000Y-83411000D01*
X146280000Y-83531000D02*
X144246000Y-83531000D01*
X146280000Y-83691000D02*
X144302000Y-83691000D01*
X146280000Y-83010000D02*
X144125000Y-83010000D01*
X150550000Y-82570000D02*
X144090000Y-82570000D01*
X150547000Y-82690000D02*
X144093000Y-82690000D01*
X146280000Y-83771000D02*
X144334000Y-83771000D01*
X150353000Y-83651000D02*
X148360000Y-83651000D01*
X150394000Y-83531000D02*
X148360000Y-83531000D01*
X149412000Y-85011000D02*
X145228000Y-85011000D01*
X150110000Y-84171000D02*
X148360000Y-84171000D01*
X146280000Y-84011000D02*
X144444000Y-84011000D01*
X146280000Y-83050000D02*
X144131000Y-83050000D01*
X150216000Y-83971000D02*
X148360000Y-83971000D01*
X146280000Y-84211000D02*
X144554000Y-84211000D01*
X146280000Y-84091000D02*
X144486000Y-84091000D01*
X150272000Y-83851000D02*
X148360000Y-83851000D01*
X146280000Y-83210000D02*
X144161000Y-83210000D01*
X149700000Y-84731000D02*
X148360000Y-84731000D01*
X150367000Y-83611000D02*
X148360000Y-83611000D01*
X148122000Y-85691000D02*
X146518000Y-85691000D01*
X150502000Y-83090000D02*
X148360000Y-83090000D01*
X146280000Y-84411000D02*
X144684000Y-84411000D01*
X150538000Y-82810000D02*
X148360000Y-82810000D01*
X149154000Y-85211000D02*
X145486000Y-85211000D01*
X149159000Y-79029759D02*
X149159000Y-79659759D01*
X146280000Y-84251000D02*
X144578000Y-84251000D01*
X146280000Y-83130000D02*
X144145000Y-83130000D01*
X149474000Y-79344759D02*
X148844000Y-79344759D01*
X146280000Y-83451000D02*
X144222000Y-83451000D01*
X146280000Y-83851000D02*
X144368000Y-83851000D01*
X149034000Y-85291000D02*
X145606000Y-85291000D01*
X150451000Y-83331000D02*
X148360000Y-83331000D01*
X149544000Y-84891000D02*
X145096000Y-84891000D01*
X150515000Y-83010000D02*
X148360000Y-83010000D01*
X149625000Y-84811000D02*
X148360000Y-84811000D01*
X148970000Y-85331000D02*
X145670000Y-85331000D01*
X149927000Y-84451000D02*
X148360000Y-84451000D01*
X150254000Y-83891000D02*
X148360000Y-83891000D01*
X146280000Y-83170000D02*
X144153000Y-83170000D01*
X150036000Y-84291000D02*
X148360000Y-84291000D01*
X149096000Y-85251000D02*
X145544000Y-85251000D01*
X148582000Y-85531000D02*
X146058000Y-85531000D01*
X146280000Y-82850000D02*
X144105000Y-82850000D01*
X146280000Y-84491000D02*
X144742000Y-84491000D01*
X150290000Y-83811000D02*
X148360000Y-83811000D01*
X150544000Y-82730000D02*
X144096000Y-82730000D01*
X150548000Y-82650000D02*
X144092000Y-82650000D01*
X149868000Y-84531000D02*
X148360000Y-84531000D01*
X146280000Y-83371000D02*
X144199000Y-83371000D01*
X146280000Y-84051000D02*
X144464000Y-84051000D01*
X149315000Y-85091000D02*
X145325000Y-85091000D01*
X150236000Y-83931000D02*
X148360000Y-83931000D01*
X149956000Y-84411000D02*
X148360000Y-84411000D01*
X146280000Y-84131000D02*
X144508000Y-84131000D01*
X149585000Y-84851000D02*
X145055000Y-84851000D01*
X150381000Y-83571000D02*
X148360000Y-83571000D01*
X146280000Y-84811000D02*
X145015000Y-84811000D01*
X150590000Y-82530000D02*
G75*
G03*
X150590000Y-82530000I-3270000J0D01*
G01*
%TO.C,J19*%
X180050000Y-80950000D02*
X180050000Y-79450000D01*
X183070000Y-80950000D02*
X187310000Y-80950000D01*
X183070000Y-71450000D02*
X187310000Y-71450000D01*
X180050000Y-71450000D02*
X181570000Y-71450000D01*
X180050000Y-72950000D02*
X180050000Y-71450000D01*
X180050000Y-80950000D02*
X181570000Y-80950000D01*
%TO.C,R2*%
X178970000Y-66770000D02*
X181710000Y-66770000D01*
X181710000Y-60230000D02*
X178970000Y-60230000D01*
X180340000Y-67540000D02*
X180340000Y-66770000D01*
X181710000Y-66770000D02*
X181710000Y-60230000D01*
X178970000Y-60230000D02*
X178970000Y-66770000D01*
X180340000Y-59460000D02*
X180340000Y-60230000D01*
%TO.C,J4*%
X183955000Y-58420000D02*
X192155000Y-58420000D01*
X192155000Y-58420000D02*
X192155000Y-68580000D01*
X192155000Y-68580000D02*
X183955000Y-68580000D01*
X183955000Y-68580000D02*
X183955000Y-58420000D01*
%TO.C,L1*%
X168420000Y-94486362D02*
G75*
G03*
X168420000Y-118873638I1760000J-12193638D01*
G01*
X171940000Y-118873638D02*
G75*
G03*
X171940000Y-94486362I-1760000J12193638D01*
G01*
X172810000Y-106680000D02*
G75*
G03*
X172810000Y-106680000I-2630000J0D01*
G01*
%TD*%
M02*
